SplineFontDB: 3.0
FontName: Slize
FullName: Slize
FamilyName: Slize
Weight: Black
Copyright: 
Version: 2.0
ItalicAngle: 0
UnderlinePosition: -100
UnderlineWidth: 50
Ascent: 750
Descent: 250
InvalidEm: 0
sfntRevision: 0x0002051e
LayerCount: 2
Layer: 0 0 "Back" 1
Layer: 1 0 "Fore" 0
XUID: [1021 262 -834161442 3055857]
BaseHoriz: 2 'ideo' 'romn'
BaseScript: 'DFLT' 1  -170 0
BaseScript: 'cyrl' 1  -170 0
BaseScript: 'grek' 1  -170 0
BaseScript: 'latn' 1  -170 0
FSType: 0
OS2Version: 3
OS2_WeightWidthSlopeOnly: 0
OS2_UseTypoMetrics: 1
CreationTime: 1441032285
ModificationTime: 1455114593
PfmFamily: 17
TTFWeight: 900
TTFWidth: 5
LineGap: 0
VLineGap: 0
Panose: 2 11 8 3 3 4 3 2 2 4
OS2TypoAscent: 750
OS2TypoAOffset: 0
OS2TypoDescent: -250
OS2TypoDOffset: 0
OS2TypoLinegap: 0
OS2WinAscent: 984
OS2WinAOffset: 0
OS2WinDescent: 273
OS2WinDOffset: 0
HheadAscent: 984
HheadAOffset: 0
HheadDescent: -273
HheadDOffset: 0
OS2SubXSize: 650
OS2SubYSize: 600
OS2SubXOff: 0
OS2SubYOff: 75
OS2SupXSize: 650
OS2SupYSize: 600
OS2SupXOff: 0
OS2SupYOff: 350
OS2StrikeYSize: 50
OS2StrikeYPos: 300
OS2CapHeight: 660
OS2XHeight: 500
OS2Vendor: 'ADBO'
OS2CodePages: 2000019f.00000000
OS2UnicodeRanges: 600002f7.02000001.00000000.00000000
Lookup: 1 0 0 "'aalt' Access All Alternates lookup 0" { "'aalt' Access All Alternates lookup 0 subtable"  } ['aalt' ('DFLT' <'dflt' > 'cyrl' <'SRB ' 'dflt' > 'grek' <'dflt' > 'latn' <'AZE ' 'CRT ' 'NSM ' 'SKS ' 'TRK ' 'dflt' > ) ]
Lookup: 3 0 0 "'aalt' Access All Alternates lookup 1" { "'aalt' Access All Alternates lookup 1 subtable"  } ['aalt' ('DFLT' <'dflt' > 'cyrl' <'SRB ' 'dflt' > 'grek' <'dflt' > 'latn' <'AZE ' 'CRT ' 'NSM ' 'SKS ' 'TRK ' 'dflt' > ) ]
Lookup: 1 0 0 "'locl' Localized Forms in Latin lookup 2" { "'locl' Localized Forms in Latin lookup 2 subtable"  } ['locl' ('latn' <'AZE ' 'CRT ' 'TRK ' > ) ]

StartChar: .notdef
Encoding: 1114112 -1 0
Width: 704
Flags: MW
HStem: 0 104<288 416 288 628> 556 104<292 412 292 292>
VStem: 76 112<172 172 172 508> 516 112<172 508 508 508>
LayerCount: 2
Back
Fore
SplineSet
76 0 m 1
 76 660 l 1
 628 660 l 1
 628 0 l 1
 76 0 l 1
288 104 m 1
 416 104 l 1
 390 160 l 1
 354 256 l 1
 350 256 l 1
 314 160 l 1
 288 104 l 1
350 424 m 1
 354 424 l 1
 394 520 l 1
 412 556 l 1
 292 556 l 1
 310 520 l 1
 350 424 l 1
188 172 m 1
 270 340 l 1
 188 508 l 1
 188 172 l 1
516 172 m 1
 516 508 l 1
 434 340 l 1
 516 172 l 1
EndSplineSet
Validated: 1
EndChar

StartChar: A
Encoding: 65 65 2
Width: 584
GlyphClass: 2
Flags: MW
HStem: 0 21G<-10 -10 -10 166 412 412 412 594> 138 133<229 349 229 380 198 349> 522 128<286 290 286 286>
VStem: -10 604<0 0>
AnchorPoint: "Anchor-8" 484 0 basechar 0
AnchorPoint: "Anchor-4" 288 -22 basechar 0
AnchorPoint: "Anchor-1" 288 672 basechar 0
LayerCount: 2
Back
Fore
SplineSet
240 316 m 2
 229 271 l 1
 349 271 l 1
 338 316 l 2
 322 378 306 457 290 522 c 1
 286 522 l 1
 272 456 256 378 240 316 c 2
-10 0 m 1
 188 650 l 1
 396 650 l 1
 594 0 l 1
 412 0 l 1
 380 138 l 1
 198 138 l 1
 166 0 l 1
 -10 0 l 1
EndSplineSet
Validated: 1
Substitution2: "'sups' Superscript lookup 27 subtable" A.sups
Substitution2: "'c2sc' Capitals to Small Capitals lookup 17 subtable" A.sc
AlternateSubs2: "'aalt' Access All Alternates lookup 1 subtable" A.sc A.sups
EndChar

StartChar: B
Encoding: 66 66 3
Width: 612
GlyphClass: 2
Flags: MW
HStem: 0 132<244 314 314 326> 270 126<244 302 302 314 244 302> 518 132<244 302 244 244>
VStem: 72 172<132 132 132 270 396 518> 384 168<460 482> 414 168<180 228>
AnchorPoint: "Anchor-4" 320 -22 basechar 0
AnchorPoint: "Anchor-1" 305 672 basechar 0
LayerCount: 2
Back
Fore
SplineSet
72 0 m 1xf4
 72 650 l 1
 306 650 l 2
 442 650 552 616 552 488 c 0xf8
 552 432 520 368 470 348 c 1
 470 344 l 1
 532 326 582 278 582 192 c 0
 582 58 466 0 326 0 c 2
 72 0 l 1xf4
244 396 m 1
 302 396 l 2
 358 396 384 422 384 462 c 0
 384 502 358 518 302 518 c 2
 244 518 l 1
 244 396 l 1
244 132 m 1
 314 132 l 2
 382 132 414 156 414 204 c 0
 414 252 382 270 314 270 c 2xf4
 244 270 l 1
 244 132 l 1
EndSplineSet
Validated: 1
Substitution2: "'sups' Superscript lookup 27 subtable" B.sups
Substitution2: "'c2sc' Capitals to Small Capitals lookup 17 subtable" B.sc
AlternateSubs2: "'aalt' Access All Alternates lookup 1 subtable" B.sc B.sups
EndChar

StartChar: C
Encoding: 67 67 4
Width: 586
GlyphClass: 2
Flags: MW
HStem: -12 148<318 385 318 396> 514 148<324 384>
VStem: 44 176<265 385 265 429>
AnchorPoint: "Anchor-4" 352 -22 basechar 0
AnchorPoint: "Anchor-3" 352 0 basechar 0
AnchorPoint: "Anchor-1" 348 672 basechar 0
LayerCount: 2
Back
Fore
SplineSet
354 -12 m 0
 188 -12 44 98 44 320 c 0
 44 538 194 662 358 662 c 0
 444 662 514 622 560 576 c 1
 470 466 l 1
 438 494 406 514 362 514 c 0
 286 514 220 444 220 326 c 0
 220 204 276 136 360 136 c 0
 410 136 450 162 478 192 c 1
 568 84 l 1
 513 20 438 -12 354 -12 c 0
EndSplineSet
Validated: 1
Substitution2: "'sups' Superscript lookup 27 subtable" C.sups
Substitution2: "'c2sc' Capitals to Small Capitals lookup 17 subtable" C.sc
AlternateSubs2: "'aalt' Access All Alternates lookup 1 subtable" C.sc C.sups
EndChar

StartChar: D
Encoding: 68 68 5
Width: 642
GlyphClass: 2
Flags: MW
HStem: 0 138<244 254 254 274> 512 138<244 254 244 244>
VStem: 72 172<138 138 138 512> 422 176<252 404>
AnchorPoint: "Anchor-4" 316 -22 basechar 0
AnchorPoint: "Anchor-1" 322 672 basechar 0
LayerCount: 2
Back
Fore
SplineSet
72 0 m 1
 72 650 l 1
 264 650 l 2
 462 650 598 558 598 328 c 0
 598 98 462 0 274 0 c 2
 72 0 l 1
244 138 m 1
 254 138 l 2
 348 138 422 176 422 328 c 0
 422 480 348 512 254 512 c 2
 244 512 l 1
 244 138 l 1
EndSplineSet
Validated: 1
Substitution2: "'sups' Superscript lookup 27 subtable" D.sups
Substitution2: "'c2sc' Capitals to Small Capitals lookup 17 subtable" D.sc
AlternateSubs2: "'aalt' Access All Alternates lookup 1 subtable" D.sc D.sups
EndChar

StartChar: E
Encoding: 69 69 6
Width: 556
GlyphClass: 2
Flags: MW
HStem: 0 144<244 502 244 502> 260 144<244 456 244 456> 506 144<244 492 244 244>
VStem: 72 172<144 260 404 506>
AnchorPoint: "Anchor-8" 396 0 basechar 0
AnchorPoint: "Anchor-4" 294 -22 basechar 0
AnchorPoint: "Anchor-1" 290 672 basechar 0
LayerCount: 2
Back
Fore
SplineSet
72 0 m 1
 72 650 l 1
 492 650 l 1
 492 506 l 1
 244 506 l 1
 244 404 l 1
 456 404 l 1
 456 260 l 1
 244 260 l 1
 244 144 l 1
 502 144 l 1
 502 0 l 1
 72 0 l 1
EndSplineSet
Validated: 1
Substitution2: "'sups' Superscript lookup 27 subtable" E.sups
Substitution2: "'c2sc' Capitals to Small Capitals lookup 17 subtable" E.sc
AlternateSubs2: "'aalt' Access All Alternates lookup 1 subtable" E.sc E.sups
EndChar

StartChar: F
Encoding: 70 70 7
Width: 536
GlyphClass: 2
Flags: MW
HStem: 0 21G<72 72 72 244> 238 144<244 460 244 460> 506 144<244 496 244 244>
VStem: 72 172<0 238 382 506>
AnchorPoint: "Anchor-4" 168 -22 basechar 0
AnchorPoint: "Anchor-1" 290 672 basechar 0
LayerCount: 2
Back
Fore
SplineSet
72 0 m 1
 72 650 l 1
 496 650 l 1
 496 506 l 1
 244 506 l 1
 244 382 l 1
 460 382 l 1
 460 238 l 1
 244 238 l 1
 244 0 l 1
 72 0 l 1
EndSplineSet
Validated: 1
Substitution2: "'sups' Superscript lookup 27 subtable" F.sups
Substitution2: "'c2sc' Capitals to Small Capitals lookup 17 subtable" F.sc
AlternateSubs2: "'aalt' Access All Alternates lookup 1 subtable" F.sc F.sups
EndChar

StartChar: G
Encoding: 71 71 8
Width: 646
GlyphClass: 2
Flags: MW
HStem: -12 148<332 399 332 418> 238 140<344 440 344 592> 514 148<330 400>
VStem: 44 176<265 385 265 429> 440 152<148 238 238 238>
AnchorPoint: "Anchor-4" 368 -22 basechar 0
AnchorPoint: "Anchor-1" 372 672 basechar 0
LayerCount: 2
Back
Fore
SplineSet
372 -12 m 0
 190 -12 44 98 44 320 c 0
 44 538 194 662 368 662 c 0
 464 662 534 622 580 576 c 1
 490 466 l 1
 458 494 426 514 374 514 c 0
 286 514 220 444 220 326 c 0
 220 204 274 136 390 136 c 0
 408 136 428 140 440 148 c 1
 440 238 l 1
 344 238 l 1
 344 378 l 1
 592 378 l 1
 592 68 l 1
 546 24 464 -12 372 -12 c 0
EndSplineSet
Validated: 1
Substitution2: "'sups' Superscript lookup 27 subtable" G.sups
Substitution2: "'c2sc' Capitals to Small Capitals lookup 17 subtable" G.sc
AlternateSubs2: "'aalt' Access All Alternates lookup 1 subtable" G.sc G.sups
EndChar

StartChar: H
Encoding: 72 72 9
Width: 682
GlyphClass: 2
Flags: MW
HStem: 0 21G<72 72 72 244 438 438 438 610> 258 150<244 438 244 438> 630 20G<72 244 244 244 438 610 610 610>
VStem: 72 172<0 258 408 650> 438 172<0 258 258 258 408 650 0 650>
AnchorPoint: "Anchor-4" 340 -22 basechar 0
AnchorPoint: "Anchor-1" 340 672 basechar 0
LayerCount: 2
Back
Fore
SplineSet
72 0 m 1
 72 650 l 1
 244 650 l 1
 244 408 l 1
 438 408 l 1
 438 650 l 1
 610 650 l 1
 610 0 l 1
 438 0 l 1
 438 258 l 1
 244 258 l 1
 244 0 l 1
 72 0 l 1
EndSplineSet
Validated: 1
Substitution2: "'sups' Superscript lookup 27 subtable" H.sups
Substitution2: "'c2sc' Capitals to Small Capitals lookup 17 subtable" H.sc
AlternateSubs2: "'aalt' Access All Alternates lookup 1 subtable" H.sc H.sups
EndChar

StartChar: I
Encoding: 73 73 10
Width: 316
GlyphClass: 2
Flags: MW
HStem: 0 21G<72 72 72 244> 630 20G<72 244 244 244>
VStem: 72 172<0 650 0 650>
AnchorPoint: "Anchor-8" 140 0 basechar 0
AnchorPoint: "Anchor-4" 158 -22 basechar 0
AnchorPoint: "Anchor-1" 158 672 basechar 0
LayerCount: 2
Back
Fore
SplineSet
72 0 m 1
 72 650 l 1
 244 650 l 1
 244 0 l 1
 72 0 l 1
EndSplineSet
Validated: 1
Substitution2: "'ss04' Style Set 4 lookup 43 subtable" I.a
Substitution2: "'sups' Superscript lookup 27 subtable" I.sups
Substitution2: "'c2sc' Capitals to Small Capitals lookup 17 subtable" I.sc
AlternateSubs2: "'aalt' Access All Alternates lookup 1 subtable" I.sc I.sups I.a
EndChar

StartChar: J
Encoding: 74 74 11
Width: 520
GlyphClass: 2
Flags: MW
HStem: -12 148<194 231 194 307> 630 20G<280 452 452 452>
VStem: 280 172<240 650>
AnchorPoint: "Anchor-4" 276 -22 basechar 0
AnchorPoint: "Anchor-1" 364 672 basechar 0
LayerCount: 2
Back
Fore
SplineSet
232 -12 m 0
 126 -12 58 28 10 111 c 1
 126 198 l 1
 148 156 180 136 208 136 c 0
 254 136 280 158 280 240 c 2
 280 650 l 1
 452 650 l 1
 452 226 l 2
 452 96 382 -12 232 -12 c 0
EndSplineSet
Validated: 1
Substitution2: "'sups' Superscript lookup 27 subtable" J.sups
Substitution2: "'c2sc' Capitals to Small Capitals lookup 17 subtable" J.sc
AlternateSubs2: "'aalt' Access All Alternates lookup 1 subtable" J.sc J.sups
EndChar

StartChar: K
Encoding: 75 75 12
Width: 628
GlyphClass: 2
Flags: MW
HStem: 0 21G<72 72 72 244 450 450 450 638> 630 20G<72 244 244 244 412 600 600 600>
VStem: 72 172<0 162 408 650>
AnchorPoint: "Anchor-4" 334 -22 basechar 0
AnchorPoint: "Anchor-1" 322 672 basechar 0
LayerCount: 2
Back
Fore
SplineSet
72 0 m 1
 72 650 l 1
 244 650 l 1
 244 408 l 1
 248 408 l 1
 412 650 l 1
 600 650 l 1
 406 386 l 1
 638 0 l 1
 450 0 l 1
 306 250 l 1
 244 162 l 1
 244 0 l 1
 72 0 l 1
EndSplineSet
Validated: 1
Substitution2: "'sups' Superscript lookup 27 subtable" K.sups
Substitution2: "'c2sc' Capitals to Small Capitals lookup 17 subtable" K.sc
AlternateSubs2: "'aalt' Access All Alternates lookup 1 subtable" K.sc K.sups
EndChar

StartChar: L
Encoding: 76 76 13
Width: 530
GlyphClass: 2
Flags: MW
HStem: 0 144<244 490 244 490> 630 20G<72 244 244 244>
VStem: 72 172<144 650 144 650 144 650>
AnchorPoint: "Anchor-4" 291 -22 basechar 0
AnchorPoint: "Anchor-1" 162 672 basechar 0
LayerCount: 2
Back
Fore
SplineSet
72 0 m 1
 72 650 l 1
 244 650 l 1
 244 144 l 1
 490 144 l 1
 490 0 l 1
 72 0 l 1
EndSplineSet
Validated: 1
Substitution2: "'sups' Superscript lookup 27 subtable" L.sups
Substitution2: "'c2sc' Capitals to Small Capitals lookup 17 subtable" L.sc
AlternateSubs2: "'aalt' Access All Alternates lookup 1 subtable" L.sc L.sups
EndChar

StartChar: M
Encoding: 77 77 14
Width: 776
GlyphClass: 2
Flags: MW
HStem: 0 21G<72 72 72 226 548 548 548 704> 424 226<204 208 204 204 566 570 566 566> 630 20G<72 256 256 256 520 704 704 704>
VStem: 72 154<0 192 0 650> 548 156<0 192 192 225>
AnchorPoint: "Anchor-4" 390 -22 basechar 0
AnchorPoint: "Anchor-1" 388 672 basechar 0
LayerCount: 2
Back
Fore
SplineSet
72 0 m 1xb8
 72 650 l 1
 256 650 l 1
 354 384 l 2
 366 348 376 308 388 270 c 1
 392 270 l 1
 404 308 414 348 426 384 c 2
 520 650 l 1
 704 650 l 1
 704 0 l 1
 548 0 l 1
 548 192 l 2
 548 258 562 359 570 424 c 1
 566 424 l 1
 512 268 l 1
 432 53 l 1
 340 53 l 1
 260 268 l 1
 208 424 l 1
 204 424 l 1xd8
 212 359 226 258 226 192 c 2
 226 0 l 1
 72 0 l 1xb8
EndSplineSet
Validated: 1
Substitution2: "'sups' Superscript lookup 27 subtable" M.sups
Substitution2: "'c2sc' Capitals to Small Capitals lookup 17 subtable" M.sc
AlternateSubs2: "'aalt' Access All Alternates lookup 1 subtable" M.sc M.sups
EndChar

StartChar: N
Encoding: 78 78 15
Width: 672
GlyphClass: 2
Flags: MW
HStem: 0 21G<72 72 72 236 424 424 424 600> 630 20G<72 248 248 248 436 600 600 600>
VStem: 72 164<0 188 0 650> 436 164<462 650 0 650>
AnchorPoint: "Anchor-4" 350 -22 basechar 0
AnchorPoint: "Anchor-1" 336 672 basechar 0
LayerCount: 2
Back
Fore
SplineSet
72 0 m 1
 72 650 l 1
 248 650 l 1
 392 360 l 1
 454 214 l 1
 458 214 l 1
 450 284 436 382 436 462 c 2
 436 650 l 1
 600 650 l 1
 600 0 l 1
 424 0 l 1
 280 291 l 1
 218 436 l 1
 214 436 l 1
 222 362 236 268 236 188 c 2
 236 0 l 1
 72 0 l 1
EndSplineSet
Validated: 1
Substitution2: "'sups' Superscript lookup 27 subtable" N.sups
Substitution2: "'c2sc' Capitals to Small Capitals lookup 17 subtable" N.sc
AlternateSubs2: "'aalt' Access All Alternates lookup 1 subtable" N.sc N.sups
EndChar

StartChar: O
Encoding: 79 79 16
Width: 692
GlyphClass: 2
Flags: MW
HStem: -12 148<307 385 307 436> 514 148<307 385>
VStem: 44 176<269 387 269 435> 472 176<269 387>
AnchorPoint: "Anchor-8" 346 0 basechar 0
AnchorPoint: "Anchor-6" 490 640 basechar 0
AnchorPoint: "Anchor-4" 346 -22 basechar 0
AnchorPoint: "Anchor-1" 346 672 basechar 0
LayerCount: 2
Back
Fore
SplineSet
346 -12 m 0
 166 -12 44 114 44 328 c 0
 44 542 166 662 346 662 c 0
 526 662 648 541 648 328 c 0
 648 114 526 -12 346 -12 c 0
346 136 m 0
 424 136 472 210 472 328 c 0
 472 446 424 514 346 514 c 0
 268 514 220 446 220 328 c 0
 220 210 268 136 346 136 c 0
EndSplineSet
Validated: 1
Substitution2: "'sups' Superscript lookup 27 subtable" O.sups
Substitution2: "'c2sc' Capitals to Small Capitals lookup 17 subtable" O.sc
AlternateSubs2: "'aalt' Access All Alternates lookup 1 subtable" O.sc O.sups
EndChar

StartChar: P
Encoding: 80 80 17
Width: 608
GlyphClass: 2
Flags: MW
HStem: 0 21G<72 72 72 244> 206 136<244 306 306 314 244 306> 514 136<244 302 244 244>
VStem: 72 172<0 206 342 514> 406 168<405 463>
AnchorPoint: "Anchor-4" 170 -22 basechar 0
AnchorPoint: "Anchor-1" 321 672 basechar 0
LayerCount: 2
Back
Fore
SplineSet
72 0 m 1
 72 650 l 1
 310 650 l 2
 452 650 574 598 574 434 c 0
 574 275 450 206 314 206 c 2
 244 206 l 1
 244 0 l 1
 72 0 l 1
244 342 m 1
 306 342 l 2
 374 342 406 376 406 434 c 0
 406 492 368 514 302 514 c 2
 244 514 l 1
 244 342 l 1
EndSplineSet
Validated: 1
Substitution2: "'sups' Superscript lookup 27 subtable" P.sups
Substitution2: "'c2sc' Capitals to Small Capitals lookup 17 subtable" P.sc
AlternateSubs2: "'aalt' Access All Alternates lookup 1 subtable" P.sc P.sups
EndChar

StartChar: Q
Encoding: 81 81 18
Width: 692
GlyphClass: 2
Flags: MW
HStem: -188 136<561.5 593.5> 514 148<307 385>
VStem: 44 176<264 387 264 435> 472 176<264 387>
AnchorPoint: "Anchor-1" 346 672 basechar 0
LayerCount: 2
Back
Fore
SplineSet
346 128 m 0
 424 128 472 200 472 328 c 0
 472 446 424 514 346 514 c 0
 268 514 220 446 220 328 c 0
 220 200 268 128 346 128 c 0
566 -188 m 0
 420 -188 318 -111 268 -3 c 1
 132 28 44 147 44 328 c 0
 44 542 166 662 346 662 c 0
 526 662 648 541 648 328 c 0
 648 158 571 44 449 4 c 1
 479 -38 537 -52 586 -52 c 0
 614 -52 640 -47 660 -40 c 1
 690 -164 l 1
 664 -178 621 -188 566 -188 c 0
EndSplineSet
Validated: 1
Substitution2: "'sups' Superscript lookup 27 subtable" Q.sups
Substitution2: "'c2sc' Capitals to Small Capitals lookup 17 subtable" Q.sc
AlternateSubs2: "'aalt' Access All Alternates lookup 1 subtable" Q.sc Q.sups
EndChar

StartChar: R
Encoding: 82 82 19
Width: 630
GlyphClass: 2
Flags: MW
HStem: 0 21G<72 72 72 244 422 422 422 614> 218 136<244 306 306 310 244 306> 514 136<244 306 244 244>
VStem: 72 172<0 218 354 514> 410 168<412 468>
AnchorPoint: "Anchor-4" 334 -22 basechar 0
AnchorPoint: "Anchor-1" 316 672 basechar 0
LayerCount: 2
Back
Fore
SplineSet
72 0 m 1
 72 650 l 1
 318 650 l 2
 458 650 578 602 578 440 c 0
 578 347 536 286 473 252 c 1
 614 0 l 1
 422 0 l 1
 310 218 l 1
 244 218 l 1
 244 0 l 1
 72 0 l 1
244 354 m 1
 306 354 l 2
 374 354 410 384 410 440 c 0
 410 496 374 514 306 514 c 2
 244 514 l 1
 244 354 l 1
EndSplineSet
Validated: 1
Substitution2: "'sups' Superscript lookup 27 subtable" R.sups
Substitution2: "'c2sc' Capitals to Small Capitals lookup 17 subtable" R.sc
AlternateSubs2: "'aalt' Access All Alternates lookup 1 subtable" R.sc R.sups
EndChar

StartChar: S
Encoding: 83 83 20
Width: 564
GlyphClass: 2
Flags: MW
HStem: -12 148<258 308 258 359> 514 148<277 322>
VStem: 56 174<454.5 484.5 454.5 515.5> 356 176<167.5 197.5>
AnchorPoint: "Anchor-4" 282 -22 basechar 0
AnchorPoint: "Anchor-3" 282 0 basechar 0
AnchorPoint: "Anchor-1" 296 672 basechar 0
LayerCount: 2
Back
Fore
SplineSet
278 -12 m 0
 196 -12 102 18 32 81 c 1
 130 199 l 1
 176 162 234 136 282 136 c 0
 334 136 356 153 356 182 c 0
 356 213 323 223 268 245 c 2
 187 279 l 2
 117 307 56 366 56 460 c 0
 56 571 156 662 298 662 c 0
 372 662 454 634 514 575 c 1
 428 467 l 1
 384 498 346 514 298 514 c 0
 256 514 230 499 230 470 c 0
 230 439 267 428 326 405 c 2
 405 374 l 2
 486 342 532 286 532 196 c 0
 532 86 440 -12 278 -12 c 0
EndSplineSet
Validated: 1
Substitution2: "'sups' Superscript lookup 27 subtable" S.sups
Substitution2: "'c2sc' Capitals to Small Capitals lookup 17 subtable" S.sc
AlternateSubs2: "'aalt' Access All Alternates lookup 1 subtable" S.sc S.sups
EndChar

StartChar: T
Encoding: 84 84 21
Width: 564
GlyphClass: 2
Flags: MW
HStem: 0 21G<196 196 196 368> 506 144<24 196 24 540 368 368 368 540>
VStem: 196 172<0 506 0 506>
AnchorPoint: "Anchor-4" 282 -22 basechar 0
AnchorPoint: "Anchor-3" 282 0 basechar 0
AnchorPoint: "Anchor-1" 282 672 basechar 0
LayerCount: 2
Back
Fore
SplineSet
196 0 m 1
 196 506 l 1
 24 506 l 1
 24 650 l 1
 540 650 l 1
 540 506 l 1
 368 506 l 1
 368 0 l 1
 196 0 l 1
EndSplineSet
Validated: 1
Substitution2: "'sups' Superscript lookup 27 subtable" T.sups
Substitution2: "'c2sc' Capitals to Small Capitals lookup 17 subtable" T.sc
AlternateSubs2: "'aalt' Access All Alternates lookup 1 subtable" T.sc T.sups
EndChar

StartChar: U
Encoding: 85 85 22
Width: 672
GlyphClass: 2
Flags: MW
HStem: -12 148<304 372 304 429> 630 20G<68 240 240 240 438 604 604 604>
VStem: 68 172<314 650> 438 166<294 314 314 650>
AnchorPoint: "Anchor-8" 336 0 basechar 0
AnchorPoint: "Anchor-6" 552 660 basechar 0
AnchorPoint: "Anchor-4" 336 -22 basechar 0
AnchorPoint: "Anchor-1" 336 672 basechar 0
LayerCount: 2
Back
Fore
SplineSet
338 -12 m 0
 156 -12 68 92 68 314 c 2
 68 650 l 1
 240 650 l 1
 240 294 l 2
 240 178 270 136 338 136 c 0
 406 136 438 178 438 294 c 2
 438 650 l 1
 604 650 l 1
 604 314 l 2
 604 92 520 -12 338 -12 c 0
EndSplineSet
Validated: 1
Substitution2: "'sups' Superscript lookup 27 subtable" U.sups
Substitution2: "'c2sc' Capitals to Small Capitals lookup 17 subtable" U.sc
AlternateSubs2: "'aalt' Access All Alternates lookup 1 subtable" U.sc U.sups
EndChar

StartChar: V
Encoding: 86 86 23
Width: 572
GlyphClass: 2
Flags: MW
HStem: 0 21G<182 182 182 390> 0 160<182 292 288 292 288 390> 630 20G<-10 172 172 172 406 582 582 582>
VStem: -10 592<650 650>
AnchorPoint: "Anchor-4" 282 -22 basechar 0
AnchorPoint: "Anchor-1" 286 672 basechar 0
LayerCount: 2
Back
Fore
SplineSet
182 0 m 1xb0
 -10 650 l 1
 172 650 l 1
 240 366 l 2
 258 297 270 230 288 160 c 1
 292 160 l 1x70
 310 230 323 297 340 366 c 2
 406 650 l 1
 582 650 l 1
 390 0 l 1
 182 0 l 1xb0
EndSplineSet
Validated: 1
Substitution2: "'sups' Superscript lookup 27 subtable" V.sups
Substitution2: "'c2sc' Capitals to Small Capitals lookup 17 subtable" V.sc
AlternateSubs2: "'aalt' Access All Alternates lookup 1 subtable" V.sc V.sups
EndChar

StartChar: W
Encoding: 87 87 24
Width: 824
GlyphClass: 2
Flags: MW
HStem: 0 162<124 248 244 248 244 338 588 592> 630 20G<10 186 186 186 346 490 490 490 650 814 814 814>
VStem: 10 804<650 650>
AnchorPoint: "Anchor-4" 414 -22 basechar 0
AnchorPoint: "Anchor-1" 412 672 basechar 0
LayerCount: 2
Back
Fore
SplineSet
124 0 m 1
 10 650 l 1
 186 650 l 1
 222 366 l 2
 229 298 237 230 244 162 c 1
 248 162 l 1
 260 230 272 299 284 366 c 2
 346 650 l 1
 490 650 l 1
 552 366 l 2
 564 301 576 231 588 162 c 1
 592 162 l 1
 599 231 607 300 614 366 c 2
 650 650 l 1
 814 650 l 1
 706 0 l 1
 488 0 l 1
 438 258 l 2
 428 308 420 362 414 410 c 1
 410 410 l 1
 403 362 396 308 386 258 c 2
 338 0 l 1
 124 0 l 1
EndSplineSet
Validated: 1
Substitution2: "'sups' Superscript lookup 27 subtable" W.sups
Substitution2: "'c2sc' Capitals to Small Capitals lookup 17 subtable" W.sc
AlternateSubs2: "'aalt' Access All Alternates lookup 1 subtable" W.sc W.sups
EndChar

StartChar: X
Encoding: 88 88 25
Width: 588
GlyphClass: 2
Flags: MW
HStem: 0 21G<10 10 10 194 386 386 386 578> 630 20G<20 212 212 212 384 568 568 568>
VStem: 10 568<0 0>
AnchorPoint: "Anchor-4" 282 -22 basechar 0
AnchorPoint: "Anchor-1" 294 672 basechar 0
LayerCount: 2
Back
Fore
SplineSet
10 0 m 1
 186 334 l 1
 20 650 l 1
 212 650 l 1
 256 544 l 2
 270 514 284 478 302 436 c 1
 306 436 l 1
 320 478 334 514 346 544 c 2
 384 650 l 1
 568 650 l 1
 402 326 l 1
 578 0 l 1
 386 0 l 1
 334 116 l 2
 318 150 304 184 288 224 c 1
 284 224 l 1
 270 184 256 150 242 116 c 2
 194 0 l 1
 10 0 l 1
EndSplineSet
Validated: 1
Substitution2: "'sups' Superscript lookup 27 subtable" X.sups
Substitution2: "'c2sc' Capitals to Small Capitals lookup 17 subtable" X.sc
AlternateSubs2: "'aalt' Access All Alternates lookup 1 subtable" X.sc X.sups
EndChar

StartChar: Y
Encoding: 89 89 26
Width: 544
GlyphClass: 2
Flags: MW
HStem: 0 21G<186 186 186 358> 630 20G<-10 174 174 174 374 554 554 554>
VStem: 186 172<0 224 0 224>
AnchorPoint: "Anchor-4" 274 -22 basechar 0
AnchorPoint: "Anchor-1" 272 672 basechar 0
LayerCount: 2
Back
Fore
SplineSet
186 0 m 1
 186 224 l 1
 -10 650 l 1
 174 650 l 1
 222 514 l 2
 238 465 254 420 271 369 c 1
 275 369 l 1
 292 420 309 465 326 514 c 2
 374 650 l 1
 554 650 l 1
 358 224 l 1
 358 0 l 1
 186 0 l 1
EndSplineSet
Validated: 1
Substitution2: "'sups' Superscript lookup 27 subtable" Y.sups
Substitution2: "'c2sc' Capitals to Small Capitals lookup 17 subtable" Y.sc
AlternateSubs2: "'aalt' Access All Alternates lookup 1 subtable" Y.sc Y.sups
EndChar

StartChar: Z
Encoding: 90 90 27
Width: 542
GlyphClass: 2
Flags: MW
HStem: 0 144<244 512 244 512> 506 144<58 298 58 510>
VStem: 32 480<0 104 104 104>
AnchorPoint: "Anchor-4" 282 -22 basechar 0
AnchorPoint: "Anchor-1" 284 672 basechar 0
LayerCount: 2
Back
Fore
SplineSet
32 0 m 1
 32 104 l 1
 298 506 l 1
 58 506 l 1
 58 650 l 1
 510 650 l 1
 510 546 l 1
 244 144 l 1
 512 144 l 1
 512 0 l 1
 32 0 l 1
EndSplineSet
Validated: 1
Substitution2: "'sups' Superscript lookup 27 subtable" Z.sups
Substitution2: "'c2sc' Capitals to Small Capitals lookup 17 subtable" Z.sc
AlternateSubs2: "'aalt' Access All Alternates lookup 1 subtable" Z.sc Z.sups
EndChar

StartChar: a
Encoding: 97 97 28
Width: 536
GlyphClass: 2
Flags: MW
HStem: -12 21G<141 215> -12 132<141 262> 0 21G<342 482 342 342> 376 136<235 262>
VStem: 38 164<144.5 170 144.5 194> 310 172<154 222 222 222>
AnchorPoint: "Anchor-7" 430 0 basechar 0
AnchorPoint: "Anchor-4" 268 -22 basechar 0
AnchorPoint: "Anchor-0" 285 522 basechar 0
LayerCount: 2
Back
Fore
SplineSet
188 -12 m 0x9c
 94 -12 38 60 38 142 c 0
 38 246 118 304 310 324 c 1
 306 360 284 376 240 376 c 0
 204 376 166 362 114 334 c 1
 54 446 l 1
 124 488 196 512 274 512 c 0
 404 512 482 442 482 278 c 2
 482 0 l 1
 342 0 l 1x3c
 330 48 l 1
 326 48 l 1
 286 12 242 -12 188 -12 c 0x9c
248 120 m 0x5c
 276 120 292 134 310 154 c 1
 310 222 l 1
 228 210 202 184 202 156 c 0
 202 133 218 120 248 120 c 0x5c
EndSplineSet
Validated: 1
Substitution2: "'ss02' Style Set 2 lookup 39 subtable" a.a
Substitution2: "'sups' Superscript lookup 26 subtable" a.sups
Substitution2: "'smcp' Lowercase to Small Capitals lookup 20 subtable" A.sc
AlternateSubs2: "'aalt' Access All Alternates lookup 1 subtable" A.sc a.sups a.a
EndChar

StartChar: b
Encoding: 98 98 29
Width: 580
GlyphClass: 2
Flags: MW
HStem: -12 21G<314 389> -12 140<283 389> 0 21G<58 192 58 58> 372 140<285 408> 676 20G<58 230 230 230>
VStem: 58 172<152 336 534 696> 368 176<208 297>
AnchorPoint: "Anchor-4" 297 -22 basechar 0
AnchorPoint: "Anchor-0" 146 730 basechar 0
LayerCount: 2
Back
Fore
SplineSet
336 -12 m 0x9e
 292 -12 248 10 210 54 c 1
 206 54 l 1x9e
 192 0 l 1
 58 0 l 1x3e
 58 696 l 1
 230 696 l 1
 230 534 l 1
 226 462 l 1
 261 494 305 512 349 512 c 0
 467 512 544 412 544 259 c 0
 544 86 442 -12 336 -12 c 0x9e
294 128 m 0x5e
 334 128 368 160 368 256 c 0
 368 338 344 372 298 372 c 0
 272 372 252 362 230 336 c 1
 230 152 l 1
 250 134 272 128 294 128 c 0x5e
EndSplineSet
Validated: 1
Substitution2: "'sups' Superscript lookup 26 subtable" b.sups
Substitution2: "'smcp' Lowercase to Small Capitals lookup 20 subtable" B.sc
AlternateSubs2: "'aalt' Access All Alternates lookup 1 subtable" B.sc b.sups
EndChar

StartChar: c
Encoding: 99 99 30
Width: 472
GlyphClass: 2
Flags: MW
HStem: -12 138<277 310> 374 138<278 319>
VStem: 32 176<212 288 212 333>
AnchorPoint: "Anchor-4" 276 -22 basechar 0
AnchorPoint: "Anchor-3" 276 0 basechar 0
AnchorPoint: "Anchor-0" 280 522 basechar 0
LayerCount: 2
Back
Fore
SplineSet
284 -12 m 0
 142 -12 32 84 32 250 c 0
 32 416 158 512 300 512 c 0
 360 512 408 492 446 460 c 1
 366 350 l 1
 344 368 328 374 310 374 c 0
 246 374 208 326 208 250 c 0
 208 174 250 126 304 126 c 0
 332 126 360 140 384 158 c 1
 450 46 l 1
 400 2 336 -12 284 -12 c 0
EndSplineSet
Validated: 1
Substitution2: "'sups' Superscript lookup 26 subtable" c.sups
Substitution2: "'smcp' Lowercase to Small Capitals lookup 20 subtable" C.sc
AlternateSubs2: "'aalt' Access All Alternates lookup 1 subtable" C.sc c.sups
EndChar

StartChar: d
Encoding: 100 100 31
Width: 580
GlyphClass: 2
Flags: MW
HStem: -12 140<178 299> 0 21G<382 522 382 382> 372 140<264 267 189 293> 492 20G<189 267> 676 20G<350 522 522 522>
VStem: 36 176<207 296 207 332> 350 172<164 348 348 348 534 696 0 696>
AnchorPoint: "Anchor-4" 316 -22 basechar 0
AnchorPoint: "Anchor-0" 414 730 basechar 0
LayerCount: 2
Back
Fore
SplineSet
240 -12 m 0x9e
 116 -12 36 88 36 250 c 0
 36 414 138 512 240 512 c 0
 294 512 326 492 356 462 c 1
 350 534 l 1
 350 696 l 1
 522 696 l 1
 522 0 l 1
 382 0 l 1x5e
 370 46 l 1
 366 46 l 1
 332 12 284 -12 240 -12 c 0x9e
286 128 m 0
 312 128 332 136 350 164 c 1
 350 348 l 1
 330 366 304 372 282 372 c 0xae
 246 372 212 340 212 252 c 0
 212 162 240 128 286 128 c 0
EndSplineSet
Validated: 1
Substitution2: "'sups' Superscript lookup 26 subtable" d.sups
Substitution2: "'smcp' Lowercase to Small Capitals lookup 20 subtable" D.sc
AlternateSubs2: "'aalt' Access All Alternates lookup 1 subtable" D.sc d.sups
EndChar

StartChar: e
Encoding: 101 101 32
Width: 526
GlyphClass: 2
Flags: MW
HStem: -12 130<286 318> 198 112<198 344 196 483 198 198> 382 130<257 302>
VStem: 344 146<310 329>
AnchorPoint: "Anchor-7" 400 0 basechar 0
AnchorPoint: "Anchor-4" 272 -22 basechar 0
AnchorPoint: "Anchor-0" 272 522 basechar 0
LayerCount: 2
Back
Fore
SplineSet
290 -12 m 0
 144 -12 32 84 32 250 c 0
 32 412 150 512 272 512 c 0
 420 512 490 404 490 270 c 0
 490 240 486 210 483 198 c 1
 198 198 l 1
 214 138 258 118 314 118 c 0
 348 118 380 128 416 148 c 1
 472 46 l 1
 418 8 346 -12 290 -12 c 0
196 310 m 1
 344 310 l 1
 344 348 328 382 276 382 c 0
 238 382 206 360 196 310 c 1
EndSplineSet
Validated: 1
Substitution2: "'sups' Superscript lookup 26 subtable" e.sups
Substitution2: "'smcp' Lowercase to Small Capitals lookup 20 subtable" E.sc
AlternateSubs2: "'aalt' Access All Alternates lookup 1 subtable" E.sc e.sups
EndChar

StartChar: f
Encoding: 102 102 33
Width: 360
GlyphClass: 2
Flags: MW
HStem: 0 21G<88 88 88 260> 366 130.5 366 134<260 344 260 344> 574 134<296 309 212 320> 688 20G<212 309>
VStem: 88 172<0 366 0 366 500 506 506 512 0 559.5>
AnchorPoint: "Anchor-4" 174 -22 basechar 0
AnchorPoint: "Anchor-0" 230 741 basechar 0
LayerCount: 2
Back
Fore
SplineSet
88 0 m 1xb4
 88 366 l 1
 22 366 l 1xb4
 22 494 l 1
 88 499 l 1
 88 506 l 2
 88 613 138 708 286 708 c 0xd4
 332 708 370 698 392 690 c 1xac
 362 564 l 1
 346 570 328 574 312 574 c 0
 280 574 260 559 260 512 c 2
 260 500 l 1
 344 500 l 1
 344 366 l 1
 260 366 l 1
 260 0 l 1
 88 0 l 1xb4
EndSplineSet
Validated: 1
Substitution2: "'sups' Superscript lookup 26 subtable" f.sups
Substitution2: "'smcp' Lowercase to Small Capitals lookup 20 subtable" F.sc
AlternateSubs2: "'aalt' Access All Alternates lookup 1 subtable" F.sc f.sups
EndChar

StartChar: g
Encoding: 103 103 34
Width: 546
GlyphClass: 2
Flags: MW
HStem: -206 106<239 296 239 329> -24 130<258 260 260 299> 158 102<248 272 240 312> 376 124<450 522 450 450> 398 114<240 270 201 272>
VStem: 30 140<-70 -61.5> 42 160<306 353 306 392> 54 134<83 143> 310 148<306 334 265 353> 366 164<-68 -41>
AnchorPoint: "Anchor-4" 249 -229 basechar 0
AnchorPoint: "Anchor-0" 276 522 basechar 0
LayerCount: 2
Back
Fore
SplineSet
240 -206 m 0xf440
 126 -206 30 -172 30 -82 c 0xf480
 30 -41 54 -10 100 14 c 1
 100 18 l 1
 74 36 54 62 54 104 c 0xf180
 54 138 76 174 110 198 c 1
 110 202 l 1
 74 226 42 272 42 330 c 0
 42 454 146 512 256 512 c 0xea80
 284 512 312 508 336 500 c 1
 522 500 l 1
 522 376 l 1
 450 376 l 1
 454 364 458 344 458 324 c 0
 458 206 368 158 256 158 c 0
 240 158 222 160 200 165 c 1
 190 156 188 150 188 136 c 0
 188 114 208 106 258 106 c 2xf180
 333 106 l 2
 458 106 530 68 530 -24 c 0
 530 -132 418 -206 240 -206 c 0xf440
256 260 m 0xea80
 288 260 310 282 310 330 c 0
 310 376 288 398 256 398 c 0
 224 398 202 376 202 330 c 0
 202 282 224 260 256 260 c 0xea80
268 -100 m 0xf440
 324 -100 366 -82 366 -54 c 0
 366 -28 342 -24 299 -24 c 2
 260 -24 l 2
 220 -24 202 -22 188 -18 c 1
 176 -30 170 -40 170 -54 c 0
 170 -86 210 -100 268 -100 c 0xf440
EndSplineSet
Validated: 1
Substitution2: "'ss03' Style Set 3 lookup 41 subtable" g.a
Substitution2: "'sups' Superscript lookup 26 subtable" g.sups
Substitution2: "'smcp' Lowercase to Small Capitals lookup 20 subtable" G.sc
AlternateSubs2: "'aalt' Access All Alternates lookup 1 subtable" G.sc g.sups g.a
EndChar

StartChar: h
Encoding: 104 104 35
Width: 582
GlyphClass: 2
Flags: MW
HStem: 0 21G<58 58 58 230 356 356 356 528> 366 146<290 427> 492 20G<338 427> 676 20G<58 230 230 230>
VStem: 58 172<0 328 534 696> 356 172<0 286 286 308 0 318>
AnchorPoint: "Anchor-4" 296 -22 basechar 0
AnchorPoint: "Anchor-0" 142 730 basechar 0
LayerCount: 2
Back
Fore
SplineSet
58 0 m 1xbc
 58 696 l 1
 230 696 l 1
 230 534 l 1
 222 448 l 1
 256 478 304 512 372 512 c 0
 482 512 528 432 528 308 c 2
 528 0 l 1
 356 0 l 1
 356 286 l 2
 356 350 340 366 306 366 c 0
 274 366 256 352 230 328 c 1xdc
 230 0 l 1
 58 0 l 1xbc
EndSplineSet
Validated: 1
Substitution2: "'sups' Superscript lookup 26 subtable" h.sups
Substitution2: "'smcp' Lowercase to Small Capitals lookup 20 subtable" H.sc
AlternateSubs2: "'aalt' Access All Alternates lookup 1 subtable" H.sc h.sups
EndChar

StartChar: i
Encoding: 105 105 36
Width: 288
GlyphClass: 2
Flags: HMW
HStem: 0 21G<58 58 58 230> 480 20G<58 230 230 230> 562 172<116 172>
VStem: 48 192<623 673> 58 172<0 500 0 500>
AnchorPoint: "Anchor-7" 190 0 basechar 0
AnchorPoint: "Anchor-4" 144 -22 basechar 0
LayerCount: 2
Back
Fore
SplineSet
50 639 m 4
 50 689 90 729 140 729 c 4
 190 729 230 689 230 639 c 4
 230 589 190 549 140 549 c 4
 90 549 50 589 50 639 c 4
58 0 m 1xe8
 58 500 l 1
 230 500 l 1
 230 0 l 1
 58 0 l 1xe8
EndSplineSet
Validated: 1
Substitution2: "'sups' Superscript lookup 26 subtable" i.sups
Substitution2: "'smcp' Lowercase to Small Capitals lookup 20 subtable" I.sc
Substitution2: "'locl' Localized Forms in Latin lookup 2 subtable" i.trk
AlternateSubs2: "'aalt' Access All Alternates lookup 1 subtable" i.trk I.sc i.sups
EndChar

StartChar: j
Encoding: 106 106 37
Width: 290
GlyphClass: 2
Flags: HMW
HStem: -188 134<15 28 4 113> 480 20G<60 232 232 232> 562 172<118 174>
VStem: 50 192<623 673> 60 172<20 26 26 500>
AnchorPoint: "Anchor-4" 86 -237 basechar 0
LayerCount: 2
Back
Fore
SplineSet
50 639 m 0
 50 689 90 729 140 729 c 0
 190 729 230 689 230 639 c 0
 230 589 190 549 140 549 c 0
 90 549 50 589 50 639 c 0
38 -188 m 0xe8
 -8 -188 -34 -182 -56 -174 c 1
 -26 -48 l 1
 -12 -52 -2 -54 10 -54 c 0
 46 -54 60 -34 60 20 c 2
 60 500 l 1
 232 500 l 1
 232 26 l 2
 232 -86 188 -188 38 -188 c 0xe8
EndSplineSet
Validated: 1
AlternateSubs2: "'aalt' Access All Alternates lookup 1 subtable" J.sc j.sups
Substitution2: "'smcp' Lowercase to Small Capitals lookup 20 subtable" J.sc
Substitution2: "'sups' Superscript lookup 26 subtable" j.sups
EndChar

StartChar: k
Encoding: 107 107 38
Width: 568
GlyphClass: 2
Flags: MW
HStem: 0 21G<58 58 58 226 378 378 378 564> 480 20G<368 554 554 554> 676 20G<58 226 226 226>
VStem: 58 168<0 120 326 696>
AnchorPoint: "Anchor-4" 304 -22 basechar 0
AnchorPoint: "Anchor-0" 146 730 basechar 0
LayerCount: 2
Back
Fore
SplineSet
58 0 m 1
 58 696 l 1
 226 696 l 1
 226 326 l 1
 230 326 l 1
 368 500 l 1
 554 500 l 1
 376 292 l 1
 564 0 l 1
 378 0 l 1
 278 178 l 1
 226 120 l 1
 226 0 l 1
 58 0 l 1
EndSplineSet
Validated: 1
AlternateSubs2: "'aalt' Access All Alternates lookup 1 subtable" K.sc k.sups
Substitution2: "'smcp' Lowercase to Small Capitals lookup 20 subtable" K.sc
Substitution2: "'sups' Superscript lookup 26 subtable" k.sups
EndChar

StartChar: l
Encoding: 108 108 39
Width: 298
GlyphClass: 2
Flags: HMW
HStem: -12 21G<154 231> -12 138<154 261> 676 20G<58 230 230 230>
VStem: 58 172<176 696>
AnchorPoint: "Anchor-4" 132 -22 basechar 0
AnchorPoint: "Anchor-0" 132 730 basechar 0
LayerCount: 2
Back
Fore
SplineSet
201 -12 m 0xb0
 85 -12 47 64.005859375 47 176 c 2
 48 618 l 5
 219 641 l 1
 219 170 l 2
 219 136.002929688 235 126 247 126 c 0
 253 126 257 126 265 128 c 1x70
 285 2 l 1
 267 -6 239 -12 201 -12 c 0xb0
EndSplineSet
AlternateSubs2: "'aalt' Access All Alternates lookup 1 subtable" L.sc l.sups l.a
Substitution2: "'smcp' Lowercase to Small Capitals lookup 20 subtable" L.sc
Substitution2: "'sups' Superscript lookup 26 subtable" l.sups
Substitution2: "'ss01' Style Set 1 lookup 36 subtable" l.a
EndChar

StartChar: m
Encoding: 109 109 40
Width: 868
GlyphClass: 2
Flags: MW
HStem: 0 21G<58 58 58 230 350 350 350 522 642 642 642 814> 366 146<290 398> 480 20G<58 198 198 198>
VStem: 58 172<0 328 0 500> 350 172<0 286 286 318> 642 172<0 286 286 308 0 318>
CounterMasks: 1 1c
AnchorPoint: "Anchor-4" 444 -22 basechar 0
AnchorPoint: "Anchor-0" 446 522 basechar 0
LayerCount: 2
Back
Fore
SplineSet
58 0 m 1xbc
 58 500 l 1
 198 500 l 1xbc
 210 439 l 1
 214 439 l 1
 254 478 296 512 364 512 c 0
 432 512 475 484 502 432 c 1
 543 474 588 512 656 512 c 0
 766 512 814 432 814 308 c 2
 814 0 l 1
 642 0 l 1
 642 286 l 2
 642 350 626 366 592 366 c 0
 572 366 548 354 522 328 c 1
 522 0 l 1
 350 0 l 1
 350 286 l 2
 350 350 334 366 300 366 c 0
 280 366 256 354 230 328 c 1xdc
 230 0 l 1
 58 0 l 1xbc
EndSplineSet
Validated: 1
Substitution2: "'sups' Superscript lookup 26 subtable" m.sups
Substitution2: "'smcp' Lowercase to Small Capitals lookup 20 subtable" M.sc
AlternateSubs2: "'aalt' Access All Alternates lookup 1 subtable" M.sc m.sups
EndChar

StartChar: n
Encoding: 110 110 41
Width: 582
GlyphClass: 2
Flags: MW
HStem: 0 21G<58 58 58 230 356 356 356 528> 366 146<290 427> 480 20G<58 198 198 198> 492 20G<338 427>
VStem: 58 172<0 328 0 500> 356 172<0 286 286 308 0 318>
AnchorPoint: "Anchor-4" 296 -22 basechar 0
AnchorPoint: "Anchor-0" 314 522 basechar 0
LayerCount: 2
Back
Fore
SplineSet
58 0 m 1x9c
 58 500 l 1
 198 500 l 1xac
 210 440 l 1
 214 440 l 1
 254 478 304 512 372 512 c 0
 482 512 528 432 528 308 c 2
 528 0 l 1
 356 0 l 1
 356 286 l 2
 356 350 340 366 306 366 c 0
 274 366 256 352 230 328 c 1xcc
 230 0 l 1
 58 0 l 1x9c
EndSplineSet
Validated: 1
Substitution2: "'sups' Superscript lookup 26 subtable" n.sups
Substitution2: "'smcp' Lowercase to Small Capitals lookup 20 subtable" N.sc
AlternateSubs2: "'aalt' Access All Alternates lookup 1 subtable" N.sc n.sups
EndChar

StartChar: o
Encoding: 111 111 42
Width: 560
GlyphClass: 2
Flags: MW
HStem: -12 138<254 306 254 344> 374 138<254 306>
VStem: 32 176<212 288 212 333> 352 176<212 288>
AnchorPoint: "Anchor-7" 334 0 basechar 0
AnchorPoint: "Anchor-6" 374 500 basechar 0
AnchorPoint: "Anchor-4" 280 -22 basechar 0
AnchorPoint: "Anchor-0" 280 522 basechar 0
LayerCount: 2
Back
Fore
SplineSet
280 -12 m 0
 152 -12 32 84 32 250 c 0
 32 416 152 512 280 512 c 0
 408 512 528 416 528 250 c 0
 528 84 408 -12 280 -12 c 0
280 126 m 0
 332 126 352 174 352 250 c 0
 352 326 332 374 280 374 c 0
 228 374 208 326 208 250 c 0
 208 174 228 126 280 126 c 0
EndSplineSet
Validated: 1
Substitution2: "'sups' Superscript lookup 26 subtable" o.sups
Substitution2: "'smcp' Lowercase to Small Capitals lookup 20 subtable" O.sc
AlternateSubs2: "'aalt' Access All Alternates lookup 1 subtable" O.sc o.sups
EndChar

StartChar: p
Encoding: 112 112 43
Width: 580
GlyphClass: 2
Flags: MW
HStem: -176 21G<58 58 58 230> -12 21G<315 389> -12 140<283 389> 372 140<285 409> 480 20G<58 198 198 198>
VStem: 58 172<-176 -38 152 336> 368 176<208 297>
AnchorPoint: "Anchor-4" 135 -218 basechar 0
AnchorPoint: "Anchor-0" 314 522 basechar 0
LayerCount: 2
Back
Fore
SplineSet
58 -176 m 1xce
 58 500 l 1
 198 500 l 1xae
 210 454 l 1
 214 454 l 1
 251 488 300 512 350 512 c 0xd6
 468 512 544 412 544 258 c 0
 544 86 442 -12 336 -12 c 0
 294 -12 256 6 224 38 c 1
 230 -38 l 1
 230 -176 l 1
 58 -176 l 1xce
294 128 m 0
 334 128 368 160 368 256 c 0
 368 338 344 372 298 372 c 0
 272 372 252 362 230 336 c 1xd6
 230 152 l 1
 250 134 272 128 294 128 c 0
EndSplineSet
Validated: 1
Substitution2: "'sups' Superscript lookup 26 subtable" p.sups
Substitution2: "'smcp' Lowercase to Small Capitals lookup 20 subtable" P.sc
AlternateSubs2: "'aalt' Access All Alternates lookup 1 subtable" P.sc p.sups
EndChar

StartChar: q
Encoding: 113 113 44
Width: 580
GlyphClass: 2
Flags: MW
HStem: -176 21G<350 350 350 522> -12 140<178 299> 372 140<264 266.5 189 293> 480 20G<388 522 522 522> 492 20G<189 266.5>
VStem: 36 176<207 296 207 332> 350 172<-176 -33 -33 -33 164 348 348 348>
AnchorPoint: "Anchor-4" 432 -218 basechar 0
AnchorPoint: "Anchor-0" 298 522 basechar 0
LayerCount: 2
Back
Fore
SplineSet
350 -176 m 1xce
 350 -33 l 1
 356 38 l 1
 326 8 280 -12 240 -12 c 0
 116 -12 36 88 36 250 c 0
 36 414 138 512 240 512 c 0
 293 512 332 494 370 450 c 1
 374 450 l 1xce
 388 500 l 1
 522 500 l 1xd6
 522 -176 l 1
 350 -176 l 1xce
286 128 m 0
 312 128 332 136 350 164 c 1
 350 348 l 1
 330 366 304 372 282 372 c 0xe6
 246 372 212 340 212 252 c 0
 212 162 240 128 286 128 c 0
EndSplineSet
Validated: 1
Substitution2: "'sups' Superscript lookup 26 subtable" q.sups
Substitution2: "'smcp' Lowercase to Small Capitals lookup 20 subtable" Q.sc
AlternateSubs2: "'aalt' Access All Alternates lookup 1 subtable" Q.sc q.sups
EndChar

StartChar: r
Encoding: 114 114 45
Width: 418
GlyphClass: 2
Flags: MW
HStem: 0 21G<58 58 58 230> 362 150<331.5 345> 480 20G<58 198 198 198> 482 20G<418 418> 492 20G<331.5 371.5>
VStem: 58 172<0 278 0 500>
AnchorPoint: "Anchor-4" 144 -22 basechar 0
AnchorPoint: "Anchor-0" 258 522 basechar 0
LayerCount: 2
Back
Fore
SplineSet
58 0 m 1x8c
 58 500 l 1
 198 500 l 1xa4
 210 414 l 1
 214 414 l 1
 251 482 307 512 356 512 c 0x8c
 387 512 404 508 418 502 c 1x94
 390 354 l 1
 372 358 356 362 334 362 c 0
 298 362 254 340 230 278 c 1xc4
 230 0 l 1
 58 0 l 1x8c
EndSplineSet
Validated: 1
Substitution2: "'sups' Superscript lookup 26 subtable" r.sups
Substitution2: "'smcp' Lowercase to Small Capitals lookup 20 subtable" R.sc
AlternateSubs2: "'aalt' Access All Alternates lookup 1 subtable" R.sc r.sups
EndChar

StartChar: s
Encoding: 115 115 46
Width: 452
GlyphClass: 2
Flags: MW
HStem: -12 126<198.5 234 198.5 282> 386 126<233.5 263.5>
VStem: 44 160<345 368 345 399> 266 160<134 157>
AnchorPoint: "Anchor-4" 236 -22 basechar 0
AnchorPoint: "Anchor-3" 236 0 basechar 0
AnchorPoint: "Anchor-0" 242 522 basechar 0
LayerCount: 2
Back
Fore
SplineSet
212 -12 m 0
 148 -12 70 16 18 58 c 1
 94 164 l 1
 140 130 181 114 216 114 c 0
 252 114 266 124 266 144 c 0
 266 170 220 182 170 202 c 0
 112 225 44 268 44 350 c 0
 44 448 124 512 242 512 c 0
 324 512 382 479 426 446 c 1
 350 344 l 1
 314 370 279 386 248 386 c 0
 219 386 204 378 204 358 c 0
 204 332 248 322 298 304 c 0
 358 282 426 244 426 154 c 0
 426 60 352 -12 212 -12 c 0
EndSplineSet
Validated: 1
Substitution2: "'sups' Superscript lookup 26 subtable" s.sups
Substitution2: "'smcp' Lowercase to Small Capitals lookup 20 subtable" S.sc
AlternateSubs2: "'aalt' Access All Alternates lookup 1 subtable" S.sc s.sups
EndChar

StartChar: t
Encoding: 116 116 47
Width: 400
GlyphClass: 2
Flags: MW
HStem: -12 21G<199 291.5> -12 134<199 320> 366 134<14 90 14 90 252 366>
VStem: 80 172<192 195 195 366 167.5 366>
AnchorPoint: "Anchor-4" 244 -22 basechar 0
AnchorPoint: "Anchor-3" 244 0 basechar 0
AnchorPoint: "Anchor-0" 176 664 basechar 0
LayerCount: 2
Back
Fore
SplineSet
264 -12 m 0xb0
 134 -12 80 70 80 192 c 2
 80 366 l 1
 14 366 l 1
 14 494 l 1
 90 500 l 1
 110 630 l 1
 252 630 l 1
 252 500 l 1
 366 500 l 1
 366 366 l 1
 252 366 l 1
 252 195 l 2
 252 140 280 122 312 122 c 0
 328 122 344 126 356 130 c 1x70
 382 6 l 1
 356 -2 319 -12 264 -12 c 0xb0
EndSplineSet
Validated: 1
Substitution2: "'sups' Superscript lookup 26 subtable" t.sups
Substitution2: "'smcp' Lowercase to Small Capitals lookup 20 subtable" T.sc
AlternateSubs2: "'aalt' Access All Alternates lookup 1 subtable" T.sc t.sups
EndChar

StartChar: u
Encoding: 117 117 48
Width: 578
GlyphClass: 2
Flags: MW
HStem: -12 21G<155 244> -12 146<155 292> 0 21G<380 520 380 380> 480 20G<54 226 226 226 348 520 520 520>
VStem: 54 172<192 214 214 500> 348 172<178 500 0 500>
AnchorPoint: "Anchor-7" 466 0 basechar 0
AnchorPoint: "Anchor-6" 438 510 basechar 0
AnchorPoint: "Anchor-4" 308 -22 basechar 0
AnchorPoint: "Anchor-0" 290 522 basechar 0
LayerCount: 2
Back
Fore
SplineSet
210 -12 m 0x9c
 100 -12 54 68 54 192 c 2
 54 500 l 1
 226 500 l 1
 226 214 l 2
 226 150 242 134 276 134 c 0
 308 134 326 146 348 178 c 1x5c
 348 500 l 1
 520 500 l 1
 520 0 l 1
 380 0 l 1x3c
 368 66 l 1
 364 66 l 1
 324 18 278 -12 210 -12 c 0x9c
EndSplineSet
Validated: 1
Substitution2: "'sups' Superscript lookup 26 subtable" u.sups
Substitution2: "'smcp' Lowercase to Small Capitals lookup 20 subtable" U.sc
AlternateSubs2: "'aalt' Access All Alternates lookup 1 subtable" U.sc u.sups
EndChar

StartChar: v
Encoding: 118 118 49
Width: 544
GlyphClass: 2
Flags: MW
HStem: 0 126<176 278 274 278 274 374> 480 20G<12 184 184 184 368 532 532 532>
VStem: 12 520<500 500>
AnchorPoint: "Anchor-4" 274 -22 basechar 0
AnchorPoint: "Anchor-0" 274 522 basechar 0
LayerCount: 2
Back
Fore
SplineSet
176 0 m 1
 12 500 l 1
 184 500 l 1
 238 282 l 2
 250 232 262 180 274 126 c 1
 278 126 l 1
 290 180 302 232 314 282 c 2
 368 500 l 1
 532 500 l 1
 374 0 l 1
 176 0 l 1
EndSplineSet
Validated: 1
Substitution2: "'sups' Superscript lookup 26 subtable" v.sups
Substitution2: "'smcp' Lowercase to Small Capitals lookup 20 subtable" V.sc
AlternateSubs2: "'aalt' Access All Alternates lookup 1 subtable" V.sc v.sups
EndChar

StartChar: w
Encoding: 119 119 50
Width: 798
GlyphClass: 2
Flags: MW
HStem: 0 138<144 256 252 256 252 340 554 558> 321 179<396 400 396 396> 480 20G<24 194 194 194 330 476 476 476 616 774 774 774>
VStem: 24 750<500 500>
AnchorPoint: "Anchor-4" 400 -22 basechar 0
AnchorPoint: "Anchor-0" 400 522 basechar 0
LayerCount: 2
Back
Fore
SplineSet
144 0 m 1xb0
 24 500 l 1
 194 500 l 1
 232 290 l 2
 240 240 244 190 252 138 c 1
 256 138 l 1
 264 190 272 242 284 290 c 2
 330 500 l 1
 476 500 l 1
 524 290 l 2
 536 240 544 190 554 138 c 1
 558 138 l 1
 566 190 570 240 578 290 c 2
 616 500 l 1
 774 500 l 1
 660 0 l 1
 460 0 l 1
 424 174 l 2
 416 220 408 266 400 321 c 1
 396 321 l 1xd0
 388 266 382 220 374 174 c 2
 340 0 l 1
 144 0 l 1xb0
EndSplineSet
Validated: 1
Substitution2: "'sups' Superscript lookup 26 subtable" w.sups
Substitution2: "'smcp' Lowercase to Small Capitals lookup 20 subtable" W.sc
AlternateSubs2: "'aalt' Access All Alternates lookup 1 subtable" W.sc w.sups
EndChar

StartChar: x
Encoding: 120 120 51
Width: 540
GlyphClass: 2
Flags: MW
HStem: 0 21G<14 14 14 192 342 342 342 526> 480 20G<22 206 206 206 340 518 518 518>
VStem: 14 512<0 0>
AnchorPoint: "Anchor-4" 270 -22 basechar 0
AnchorPoint: "Anchor-0" 270 522 basechar 0
LayerCount: 2
Back
Fore
SplineSet
14 0 m 1
 164 260 l 1
 22 500 l 1
 206 500 l 1
 242 430 l 2
 255 402 269 372 282 344 c 1
 286 344 l 1
 295 372 307 402 316 430 c 2
 340 500 l 1
 518 500 l 1
 376 240 l 1
 526 0 l 1
 342 0 l 1
 302 70 l 2
 287 98 273 128 258 156 c 1
 254 156 l 1
 243 128 231 99 220 70 c 2
 192 0 l 1
 14 0 l 1
EndSplineSet
Validated: 1
Substitution2: "'sups' Superscript lookup 26 subtable" x.sups
Substitution2: "'smcp' Lowercase to Small Capitals lookup 20 subtable" X.sc
AlternateSubs2: "'aalt' Access All Alternates lookup 1 subtable" X.sc x.sups
EndChar

StartChar: y
Encoding: 121 121 52
Width: 542
GlyphClass: 2
Flags: MW
HStem: -188 134<115 141 113 194> -178 21G<56 56> 480 20G<12 184 184 184 366 530 530 530>
VStem: 12 518<500 500>
AnchorPoint: "Anchor-4" 238 -241 basechar 0
AnchorPoint: "Anchor-0" 276 522 basechar 0
LayerCount: 2
Back
Fore
SplineSet
132 -188 m 0xb0
 98 -188 78 -184 56 -178 c 1x70
 86 -48 l 1
 95 -50 108 -54 118 -54 c 0
 164 -54 186 -34 196 -4 c 2
 202 18 l 1
 12 500 l 1
 184 500 l 1
 244 308 l 2
 258 262 268 216 280 166 c 1
 284 166 l 1
 294 214 304 260 316 308 c 2
 366 500 l 1
 530 500 l 1
 362 8 l 1
 310 -127 256 -188 132 -188 c 0xb0
EndSplineSet
Validated: 1
Substitution2: "'sups' Superscript lookup 26 subtable" y.sups
Substitution2: "'smcp' Lowercase to Small Capitals lookup 20 subtable" Y.sc
AlternateSubs2: "'aalt' Access All Alternates lookup 1 subtable" Y.sc y.sups
EndChar

StartChar: z
Encoding: 122 122 53
Width: 474
GlyphClass: 2
Flags: MW
HStem: 0 134<254 450 254 450> 366 134<62 230 62 444>
VStem: 40 410<0 92 92 92>
AnchorPoint: "Anchor-4" 252 -22 basechar 0
AnchorPoint: "Anchor-0" 252 522 basechar 0
LayerCount: 2
Back
Fore
SplineSet
40 0 m 1
 40 92 l 1
 230 366 l 1
 62 366 l 1
 62 500 l 1
 444 500 l 1
 444 408 l 1
 254 134 l 1
 450 134 l 1
 450 0 l 1
 40 0 l 1
EndSplineSet
Validated: 1
Substitution2: "'sups' Superscript lookup 26 subtable" z.sups
Substitution2: "'smcp' Lowercase to Small Capitals lookup 20 subtable" Z.sc
AlternateSubs2: "'aalt' Access All Alternates lookup 1 subtable" Z.sc z.sups
EndChar

StartChar: Agrave
Encoding: 192 192 54
Width: 584
Flags: MW
HStem: 0 21G<-10 -10 -10 166 412 412 412 594> 138 133<229 349 229 380 198 349> 522 128<286 290 286 286>
VStem: -10 604<0 0>
LayerCount: 2
Back
Fore
SplineSet
240 316 m 2
 229 271 l 1
 349 271 l 1
 338 316 l 2
 322 378 306 457 290 522 c 1
 286 522 l 1
 272 456 256 378 240 316 c 2
-10 0 m 1
 188 650 l 1
 396 650 l 1
 594 0 l 1
 412 0 l 1
 380 138 l 1
 198 138 l 1
 166 0 l 1
 -10 0 l 1
296 674 m 1
 100 794 l 1
 190 904 l 1
 372 760 l 1
 296 674 l 1
EndSplineSet
Validated: 1
Substitution2: "'c2sc' Capitals to Small Capitals lookup 17 subtable" Agrave.sc
Substitution2: "'aalt' Access All Alternates lookup 0 subtable" Agrave.sc
EndChar

StartChar: Aacute
Encoding: 193 193 55
Width: 584
Flags: MW
HStem: 0 21G<-10 -10 -10 166 412 412 412 594> 138 133<229 349 229 380 198 349> 522 128<286 290 286 286>
VStem: -10 604<0 0>
LayerCount: 2
Back
Fore
SplineSet
240 316 m 2
 229 271 l 1
 349 271 l 1
 338 316 l 2
 322 378 306 457 290 522 c 1
 286 522 l 1
 272 456 256 378 240 316 c 2
-10 0 m 1
 188 650 l 1
 396 650 l 1
 594 0 l 1
 412 0 l 1
 380 138 l 1
 198 138 l 1
 166 0 l 1
 -10 0 l 1
280 674 m 1
 204 760 l 1
 386 904 l 1
 476 794 l 1
 280 674 l 1
EndSplineSet
Validated: 1
Substitution2: "'c2sc' Capitals to Small Capitals lookup 17 subtable" Aacute.sc
Substitution2: "'aalt' Access All Alternates lookup 0 subtable" Aacute.sc
EndChar

StartChar: Acircumflex
Encoding: 194 194 56
Width: 584
Flags: MW
HStem: 0 21G<-10 -10 -10 166 412 412 412 594> 138 133<229 349 229 380 198 349> 522 128<286 290 286 286> 760 74<286 290 286 286>
VStem: -10 604<0 0>
LayerCount: 2
Back
Fore
SplineSet
240 316 m 2
 229 271 l 1
 349 271 l 1
 338 316 l 2
 322 378 306 457 290 522 c 1
 286 522 l 1
 272 456 256 378 240 316 c 2
-10 0 m 1
 188 650 l 1
 396 650 l 1
 594 0 l 1
 412 0 l 1
 380 138 l 1
 198 138 l 1
 166 0 l 1
 -10 0 l 1
110 724 m 1
 194 834 l 1
 382 834 l 1
 466 724 l 1
 392 680 l 1
 290 760 l 1
 286 760 l 1
 184 680 l 1
 110 724 l 1
EndSplineSet
Validated: 1
Substitution2: "'c2sc' Capitals to Small Capitals lookup 17 subtable" Acircumflex.sc
Substitution2: "'aalt' Access All Alternates lookup 0 subtable" Acircumflex.sc
EndChar

StartChar: Atilde
Encoding: 195 195 57
Width: 584
Flags: MW
HStem: 0 21G<-10 -10 -10 166 412 412 412 594> 138 133<229 349 229 380 198 349> 522 128<286 290 286 286> 686 118<338 360 338 394.5> 738 118<216 238>
VStem: -10 604<0 0> 82 110<696 704> 384 110<838 846>
LayerCount: 2
Back
Fore
SplineSet
240 316 m 2xf4
 229 271 l 1
 349 271 l 1
 338 316 l 2
 322 378 306 457 290 522 c 1
 286 522 l 1
 272 456 256 378 240 316 c 2xf4
-10 0 m 1
 188 650 l 1
 396 650 l 1
 594 0 l 1
 412 0 l 1
 380 138 l 1
 198 138 l 1
 166 0 l 1
 -10 0 l 1
358 686 m 0
 288 686 252 738 224 738 c 0
 208 738 196 730 192 696 c 1
 82 704 l 1
 88 814 145 856 218 856 c 0xea
 288 856 324 804 352 804 c 0
 368 804 380 812 384 846 c 1
 494 838 l 1xf1
 488 728 431 686 358 686 c 0
EndSplineSet
Validated: 1
Substitution2: "'c2sc' Capitals to Small Capitals lookup 17 subtable" Atilde.sc
Substitution2: "'aalt' Access All Alternates lookup 0 subtable" Atilde.sc
EndChar

StartChar: Adieresis
Encoding: 196 196 58
Width: 584
Flags: MW
HStem: 0 21G<-10 -10 -10 166 412 412 412 594> 138 133<229 349 229 380 198 349> 522 128<286 290 286 286> 694 156<151 197 379 425>
VStem: 96 156<750 794> 324 156<750 794>
LayerCount: 2
Back
Fore
SplineSet
240 316 m 2
 229 271 l 1
 349 271 l 1
 338 316 l 2
 322 378 306 457 290 522 c 1
 286 522 l 1
 272 456 256 378 240 316 c 2
-10 0 m 1
 188 650 l 1
 396 650 l 1
 594 0 l 1
 412 0 l 1
 380 138 l 1
 198 138 l 1
 166 0 l 1
 -10 0 l 1
174 694 m 0
 128 694 96 728 96 772 c 0
 96 816 128 850 174 850 c 0
 220 850 252 816 252 772 c 0
 252 728 220 694 174 694 c 0
402 694 m 0
 356 694 324 728 324 772 c 0
 324 816 356 850 402 850 c 0
 448 850 480 816 480 772 c 0
 480 728 448 694 402 694 c 0
EndSplineSet
Validated: 1
Substitution2: "'c2sc' Capitals to Small Capitals lookup 17 subtable" Adieresis.sc
Substitution2: "'aalt' Access All Alternates lookup 0 subtable" Adieresis.sc
EndChar

StartChar: Amacron
Encoding: 256 256 59
Width: 584
Flags: MW
HStem: 0 21G<-10 -10 -10 166 412 412 412 594> 138 133<229 349 229 380 198 349> 522 128<286 290 286 286> 716 108<130 446 130 446>
VStem: -10 604<0 0> 130 316<716 824 716 824>
LayerCount: 2
Back
Fore
SplineSet
240 316 m 2xf8
 229 271 l 1
 349 271 l 1
 338 316 l 2
 322 378 306 457 290 522 c 1
 286 522 l 1
 272 456 256 378 240 316 c 2xf8
-10 0 m 1
 188 650 l 1
 396 650 l 1
 594 0 l 1
 412 0 l 1
 380 138 l 1
 198 138 l 1
 166 0 l 1
 -10 0 l 1
130 716 m 1xf4
 130 824 l 1
 446 824 l 1
 446 716 l 1
 130 716 l 1xf4
EndSplineSet
Validated: 1
Substitution2: "'c2sc' Capitals to Small Capitals lookup 17 subtable" Amacron.sc
Substitution2: "'aalt' Access All Alternates lookup 0 subtable" Amacron.sc
EndChar

StartChar: Abreve
Encoding: 258 258 60
Width: 584
Flags: MW
HStem: 0 21G<-10 -10 -10 166 412 412 412 594> 138 133<229 349 229 380 198 349> 522 128<286 290 286 286> 694 98<268 308 268 339>
VStem: -10 604<0 0>
LayerCount: 2
Back
Fore
SplineSet
240 316 m 2
 229 271 l 1
 349 271 l 1
 338 316 l 2
 322 378 306 457 290 522 c 1
 286 522 l 1
 272 456 256 378 240 316 c 2
-10 0 m 1
 188 650 l 1
 396 650 l 1
 594 0 l 1
 412 0 l 1
 380 138 l 1
 198 138 l 1
 166 0 l 1
 -10 0 l 1
288 694 m 0
 186 694 128 738 118 834 c 1
 210 850 l 1
 219 811 248 792 288 792 c 0
 328 792 357 811 366 850 c 1
 458 834 l 1
 448 738 390 694 288 694 c 0
EndSplineSet
Validated: 1
Substitution2: "'c2sc' Capitals to Small Capitals lookup 17 subtable" Abreve.sc
Substitution2: "'aalt' Access All Alternates lookup 0 subtable" Abreve.sc
EndChar

StartChar: Aring
Encoding: 197 197 61
Width: 584
Flags: MW
HStem: 0 21G<-10 -10 -10 166 412 412 412 594> 138 133<229 349 229 380 198 349> 522 128<286 290 286 286> 696 62<277.5 298.5 277.5 324> 838 62<277.5 298.5>
VStem: 168 82<786 810 786 829> 326 82<786 810>
LayerCount: 2
Back
Fore
SplineSet
240 316 m 2
 229 271 l 1
 349 271 l 1
 338 316 l 2
 322 378 306 457 290 522 c 1
 286 522 l 1
 272 456 256 378 240 316 c 2
-10 0 m 1
 188 650 l 1
 396 650 l 1
 594 0 l 1
 412 0 l 1
 380 138 l 1
 198 138 l 1
 166 0 l 1
 -10 0 l 1
288 696 m 0
 216 696 168 736 168 798 c 0
 168 860 216 900 288 900 c 0
 360 900 408 860 408 798 c 0
 408 736 360 696 288 696 c 0
288 758 m 0
 309 758 326 774 326 798 c 0
 326 822 309 838 288 838 c 0
 267 838 250 822 250 798 c 0
 250 774 267 758 288 758 c 0
EndSplineSet
Validated: 1
Substitution2: "'c2sc' Capitals to Small Capitals lookup 17 subtable" Aring.sc
Substitution2: "'aalt' Access All Alternates lookup 0 subtable" Aring.sc
EndChar

StartChar: uni01CD
Encoding: 461 461 62
Width: 584
Flags: MW
HStem: 0 21G<-10 -10 -10 166 412 412 412 594> 138 133<229 349 229 380 198 349> 522 128<286 290 286 286> 700 74<286 290 286 382>
VStem: -10 604<0 0>
LayerCount: 2
Back
Fore
SplineSet
240 316 m 2
 229 271 l 1
 349 271 l 1
 338 316 l 2
 322 378 306 457 290 522 c 1
 286 522 l 1
 272 456 256 378 240 316 c 2
-10 0 m 1
 188 650 l 1
 396 650 l 1
 594 0 l 1
 412 0 l 1
 380 138 l 1
 198 138 l 1
 166 0 l 1
 -10 0 l 1
194 700 m 1
 110 810 l 1
 184 854 l 1
 286 774 l 1
 290 774 l 1
 392 854 l 1
 466 810 l 1
 382 700 l 1
 194 700 l 1
EndSplineSet
Validated: 1
Substitution2: "'c2sc' Capitals to Small Capitals lookup 17 subtable" uni01CD.sc
Substitution2: "'aalt' Access All Alternates lookup 0 subtable" uni01CD.sc
EndChar

StartChar: uni1EA0
Encoding: 7840 7840 63
Width: 584
Flags: MW
HStem: -234 172<261 315> 0 21G<-10 -10 -10 166 412 412 412 594> 138 133<229 349 229 380 198 349> 522 128<286 290 286 286>
VStem: 196 184<-173 -123>
LayerCount: 2
Back
Fore
SplineSet
240 316 m 2
 229 271 l 1
 349 271 l 1
 338 316 l 2
 322 378 306 457 290 522 c 1
 286 522 l 1
 272 456 256 378 240 316 c 2
-10 0 m 1
 188 650 l 1
 396 650 l 1
 594 0 l 1
 412 0 l 1
 380 138 l 1
 198 138 l 1
 166 0 l 1
 -10 0 l 1
288 -234 m 0
 234 -234 196 -198 196 -148 c 0
 196 -98 234 -62 288 -62 c 0
 342 -62 380 -98 380 -148 c 0
 380 -198 342 -234 288 -234 c 0
EndSplineSet
Validated: 1
Substitution2: "'c2sc' Capitals to Small Capitals lookup 17 subtable" uni1EA0.sc
Substitution2: "'aalt' Access All Alternates lookup 0 subtable" uni1EA0.sc
EndChar

StartChar: uni1EA2
Encoding: 7842 7842 64
Width: 584
Flags: MW
HStem: 138 133<229 349 229 380 198 349> 522 128<286 290 286 286> 808 84<190 210>
VStem: 268 122<770 786>
LayerCount: 2
Back
Fore
SplineSet
240 316 m 2
 229 271 l 1
 349 271 l 1
 338 316 l 2
 322 378 306 457 290 522 c 1
 286 522 l 1
 272 456 256 378 240 316 c 2
-10 0 m 1
 188 650 l 1
 396 650 l 1
 594 0 l 1
 412 0 l 1
 380 138 l 1
 198 138 l 1
 166 0 l 1
 -10 0 l 1
240 688 m 1
 228 754 l 1
 250 757 268 762 268 778 c 0
 268 794 248 804 190 808 c 1
 210 892 l 1
 348 888 390 850 390 796 c 0
 390 724 322 692 240 688 c 1
EndSplineSet
Validated: 1
Substitution2: "'c2sc' Capitals to Small Capitals lookup 17 subtable" uni1EA2.sc
Substitution2: "'aalt' Access All Alternates lookup 0 subtable" uni1EA2.sc
EndChar

StartChar: uni1EA4
Encoding: 7844 7844 65
Width: 584
Flags: MW
HStem: 0 21G<-10 -10 -10 166 412 412 412 594> 138 133<229 349 229 380 198 349> 522 128<286 290 286 286> 752 76<286 290 286 286>
VStem: -10 604<0 0>
LayerCount: 2
Back
Fore
SplineSet
240 316 m 2
 229 271 l 1
 349 271 l 1
 338 316 l 2
 322 378 306 457 290 522 c 1
 286 522 l 1
 272 456 256 378 240 316 c 2
-10 0 m 1
 188 650 l 1
 396 650 l 1
 594 0 l 1
 412 0 l 1
 380 138 l 1
 198 138 l 1
 166 0 l 1
 -10 0 l 1
194 680 m 1
 126 724 l 1
 214 828 l 1
 362 828 l 1
 450 724 l 1
 382 680 l 1
 290 752 l 1
 286 752 l 1
 194 680 l 1
452 758 m 1
 402 814 l 1
 504 898 l 1
 558 830 l 1
 452 758 l 1
EndSplineSet
Validated: 1
Substitution2: "'c2sc' Capitals to Small Capitals lookup 17 subtable" uni1EA4.sc
Substitution2: "'aalt' Access All Alternates lookup 0 subtable" uni1EA4.sc
EndChar

StartChar: uni1EA6
Encoding: 7846 7846 66
Width: 584
Flags: MW
HStem: 0 21G<-10 -10 -10 166 412 412 412 594> 138 133<229 349 229 380 198 349> 522 128<286 290 286 286> 752 76<286 290 286 286>
VStem: -10 604<0 0>
LayerCount: 2
Back
Fore
SplineSet
240 316 m 2
 229 271 l 1
 349 271 l 1
 338 316 l 2
 322 378 306 457 290 522 c 1
 286 522 l 1
 272 456 256 378 240 316 c 2
-10 0 m 1
 188 650 l 1
 396 650 l 1
 594 0 l 1
 412 0 l 1
 380 138 l 1
 198 138 l 1
 166 0 l 1
 -10 0 l 1
194 680 m 1
 126 724 l 1
 214 828 l 1
 362 828 l 1
 450 724 l 1
 382 680 l 1
 290 752 l 1
 286 752 l 1
 194 680 l 1
174 814 m 1
 124 758 l 1
 18 830 l 1
 72 898 l 1
 174 814 l 1
EndSplineSet
Validated: 1
Substitution2: "'c2sc' Capitals to Small Capitals lookup 17 subtable" uni1EA6.sc
Substitution2: "'aalt' Access All Alternates lookup 0 subtable" uni1EA6.sc
EndChar

StartChar: uni1EA8
Encoding: 7848 7848 67
Width: 584
Flags: MW
HStem: 138 133<229 349 229 380 198 349> 522 128<286 290 286 286> 752 76<286 290 286 286> 854 68<386 402>
VStem: 450 108<724 860 816 832>
LayerCount: 2
Back
Fore
SplineSet
240 316 m 2
 229 271 l 1
 349 271 l 1
 338 316 l 2
 322 378 306 457 290 522 c 1
 286 522 l 1
 272 456 256 378 240 316 c 2
-10 0 m 1
 188 650 l 1
 396 650 l 1
 594 0 l 1
 412 0 l 1
 380 138 l 1
 198 138 l 1
 166 0 l 1
 -10 0 l 1
194 680 m 1
 126 724 l 1
 214 828 l 1
 362 828 l 1
 450 724 l 1
 382 680 l 1
 290 752 l 1
 286 752 l 1
 194 680 l 1
434 748 m 1
 422 800 l 1xe8
 438 803 450 808 450 824 c 0
 450 840 437 850 386 854 c 1
 402 922 l 1xf8
 524 918 558 882 558 838 c 0
 558 776 505 752 434 748 c 1
EndSplineSet
Validated: 1
Substitution2: "'c2sc' Capitals to Small Capitals lookup 17 subtable" uni1EA8.sc
Substitution2: "'aalt' Access All Alternates lookup 0 subtable" uni1EA8.sc
EndChar

StartChar: uni1EAA
Encoding: 7850 7850 68
Width: 584
Flags: MW
HStem: 0 21G<-10 -10 -10 166 412 412 412 594> 138 133<229 349 229 380 198 349> 522 128<286 290 286 286> 742 76<286 290 286 286> 838 92<323 342 323 374> 880 92<234 253>
VStem: -10 604<0 0> 132 80<844 854> 364 80<956 966>
LayerCount: 2
Back
Fore
SplineSet
240 316 m 2xf2
 229 271 l 1
 349 271 l 1
 338 316 l 2
 322 378 306 457 290 522 c 1
 286 522 l 1
 272 456 256 378 240 316 c 2xf2
-10 0 m 1
 188 650 l 1
 396 650 l 1
 594 0 l 1
 412 0 l 1
 380 138 l 1
 198 138 l 1
 166 0 l 1
 -10 0 l 1
194 680 m 1
 126 724 l 1
 214 818 l 1
 362 818 l 1
 450 724 l 1
 382 680 l 1
 290 742 l 1
 286 742 l 1
 194 680 l 1
132 854 m 1xf5
 136 939 174 972 230 972 c 0xf5
 282 972 312 930 334 930 c 0
 350 930 360 940 364 966 c 1
 444 956 l 1
 440 871 402 838 346 838 c 0xf880
 294 838 264 880 242 880 c 0
 226 880 216 870 212 844 c 1
 132 854 l 1xf5
EndSplineSet
Validated: 1
Substitution2: "'c2sc' Capitals to Small Capitals lookup 17 subtable" uni1EAA.sc
Substitution2: "'aalt' Access All Alternates lookup 0 subtable" uni1EAA.sc
EndChar

StartChar: uni1EAC
Encoding: 7852 7852 69
Width: 584
Flags: MW
HStem: -234 172<261 315> 0 21G<-10 -10 -10 166 412 412 412 594> 138 133<229 349 229 380 198 349> 522 128<286 290 286 286> 760 74<286 290 286 286>
VStem: 196 184<-173 -123>
LayerCount: 2
Back
Fore
SplineSet
240 316 m 2
 229 271 l 1
 349 271 l 1
 338 316 l 2
 322 378 306 457 290 522 c 1
 286 522 l 1
 272 456 256 378 240 316 c 2
-10 0 m 1
 188 650 l 1
 396 650 l 1
 594 0 l 1
 412 0 l 1
 380 138 l 1
 198 138 l 1
 166 0 l 1
 -10 0 l 1
110 724 m 1
 194 834 l 1
 382 834 l 1
 466 724 l 1
 392 680 l 1
 290 760 l 1
 286 760 l 1
 184 680 l 1
 110 724 l 1
288 -234 m 0
 234 -234 196 -198 196 -148 c 0
 196 -98 234 -62 288 -62 c 0
 342 -62 380 -98 380 -148 c 0
 380 -198 342 -234 288 -234 c 0
EndSplineSet
Validated: 1
Substitution2: "'c2sc' Capitals to Small Capitals lookup 17 subtable" uni1EAC.sc
Substitution2: "'aalt' Access All Alternates lookup 0 subtable" uni1EAC.sc
EndChar

StartChar: uni1EAE
Encoding: 7854 7854 70
Width: 584
Flags: MW
HStem: 0 21G<-10 -10 -10 166 412 412 412 594> 138 133<229 349 229 380 198 349> 522 128<286 290 286 286> 694 88<265.5 310.5 265.5 339>
VStem: -10 604<0 0>
LayerCount: 2
Back
Fore
SplineSet
240 316 m 2
 229 271 l 1
 349 271 l 1
 338 316 l 2
 322 378 306 457 290 522 c 1
 286 522 l 1
 272 456 256 378 240 316 c 2
-10 0 m 1
 188 650 l 1
 396 650 l 1
 594 0 l 1
 412 0 l 1
 380 138 l 1
 198 138 l 1
 166 0 l 1
 -10 0 l 1
226 860 m 1
 322 1004 l 1
 428 940 l 1
 310 806 l 1
 226 860 l 1
288 694 m 0
 186 694 128 738 118 834 c 1
 200 850 l 1
 211 804 243 782 288 782 c 0
 333 782 365 804 376 850 c 1
 458 834 l 1
 448 738 390 694 288 694 c 0
EndSplineSet
Validated: 1
Substitution2: "'c2sc' Capitals to Small Capitals lookup 17 subtable" uni1EAE.sc
Substitution2: "'aalt' Access All Alternates lookup 0 subtable" uni1EAE.sc
EndChar

StartChar: uni1EB0
Encoding: 7856 7856 71
Width: 584
Flags: MW
HStem: 0 21G<-10 -10 -10 166 412 412 412 594> 138 133<229 349 229 380 198 349> 522 128<286 290 286 286> 694 88<265.5 310.5 265.5 339>
VStem: -10 604<0 0>
LayerCount: 2
Back
Fore
SplineSet
240 316 m 2
 229 271 l 1
 349 271 l 1
 338 316 l 2
 322 378 306 457 290 522 c 1
 286 522 l 1
 272 456 256 378 240 316 c 2
-10 0 m 1
 188 650 l 1
 396 650 l 1
 594 0 l 1
 412 0 l 1
 380 138 l 1
 198 138 l 1
 166 0 l 1
 -10 0 l 1
350 860 m 1
 266 806 l 1
 148 940 l 1
 254 1004 l 1
 350 860 l 1
288 694 m 0
 186 694 128 738 118 834 c 1
 200 850 l 1
 211 804 243 782 288 782 c 0
 333 782 365 804 376 850 c 1
 458 834 l 1
 448 738 390 694 288 694 c 0
EndSplineSet
Validated: 1
Substitution2: "'c2sc' Capitals to Small Capitals lookup 17 subtable" uni1EB0.sc
Substitution2: "'aalt' Access All Alternates lookup 0 subtable" uni1EB0.sc
EndChar

StartChar: uni1EB2
Encoding: 7858 7858 72
Width: 584
Flags: MW
HStem: 138 133<229 349 229 380 198 349> 522 128<286 290 286 286> 694 88<265.5 310.5 265.5 339> 914 68<204 220>
VStem: 268 108<876 892>
LayerCount: 2
Back
Fore
SplineSet
240 316 m 2
 229 271 l 1
 349 271 l 1
 338 316 l 2
 322 378 306 457 290 522 c 1
 286 522 l 1
 272 456 256 378 240 316 c 2
-10 0 m 1
 188 650 l 1
 396 650 l 1
 594 0 l 1
 412 0 l 1
 380 138 l 1
 198 138 l 1
 166 0 l 1
 -10 0 l 1
252 808 m 1
 240 860 l 1
 256 863 268 868 268 884 c 0
 268 900 255 910 204 914 c 1
 220 982 l 1
 342 978 376 942 376 898 c 0
 376 836 323 812 252 808 c 1
288 694 m 0
 186 694 128 738 118 834 c 1
 200 850 l 1
 211 804 243 782 288 782 c 0
 333 782 365 804 376 850 c 1
 458 834 l 1
 448 738 390 694 288 694 c 0
EndSplineSet
Validated: 1
Substitution2: "'c2sc' Capitals to Small Capitals lookup 17 subtable" uni1EB2.sc
Substitution2: "'aalt' Access All Alternates lookup 0 subtable" uni1EB2.sc
EndChar

StartChar: uni1EB4
Encoding: 7860 7860 73
Width: 584
Flags: MW
HStem: 0 21G<-10 -10 -10 166 412 412 412 594> 138 133<229 349 229 380 198 349> 522 128<286 290 286 286> 700 80<262 314 262 339> 848 92<323 342 323 374> 890 92<234 253>
VStem: -10 604<0 0> 132 80<854 864> 364 80<966 976>
LayerCount: 2
Back
Fore
SplineSet
240 316 m 2xf6
 229 271 l 1
 349 271 l 1
 338 316 l 2
 322 378 306 457 290 522 c 1
 286 522 l 1
 272 456 256 378 240 316 c 2xf6
-10 0 m 1
 188 650 l 1
 396 650 l 1
 594 0 l 1
 412 0 l 1
 380 138 l 1
 198 138 l 1
 166 0 l 1
 -10 0 l 1
288 700 m 0
 186 700 134 742 126 814 c 1
 206 828 l 1
 215 802 236 780 288 780 c 0
 340 780 361 802 370 828 c 1
 450 814 l 1
 442 742 390 700 288 700 c 0
132 864 m 1xf5
 136 949 174 982 230 982 c 0xf5
 282 982 312 940 334 940 c 0
 350 940 360 950 364 976 c 1
 444 966 l 1
 440 881 402 848 346 848 c 0xf880
 294 848 264 890 242 890 c 0
 226 890 216 880 212 854 c 1
 132 864 l 1xf5
EndSplineSet
Validated: 1
Substitution2: "'c2sc' Capitals to Small Capitals lookup 17 subtable" uni1EB4.sc
Substitution2: "'aalt' Access All Alternates lookup 0 subtable" uni1EB4.sc
EndChar

StartChar: uni1EB6
Encoding: 7862 7862 74
Width: 584
Flags: MW
HStem: -234 172<261 315> 0 21G<-10 -10 -10 166 412 412 412 594> 138 133<229 349 229 380 198 349> 522 128<286 290 286 286> 694 98<268 308 268 339>
VStem: 196 184<-173 -123>
LayerCount: 2
Back
Fore
SplineSet
240 316 m 2
 229 271 l 1
 349 271 l 1
 338 316 l 2
 322 378 306 457 290 522 c 1
 286 522 l 1
 272 456 256 378 240 316 c 2
-10 0 m 1
 188 650 l 1
 396 650 l 1
 594 0 l 1
 412 0 l 1
 380 138 l 1
 198 138 l 1
 166 0 l 1
 -10 0 l 1
288 694 m 0
 186 694 128 738 118 834 c 1
 210 850 l 1
 219 811 248 792 288 792 c 0
 328 792 357 811 366 850 c 1
 458 834 l 1
 448 738 390 694 288 694 c 0
288 -234 m 0
 234 -234 196 -198 196 -148 c 0
 196 -98 234 -62 288 -62 c 0
 342 -62 380 -98 380 -148 c 0
 380 -198 342 -234 288 -234 c 0
EndSplineSet
Validated: 1
Substitution2: "'c2sc' Capitals to Small Capitals lookup 17 subtable" uni1EB6.sc
Substitution2: "'aalt' Access All Alternates lookup 0 subtable" uni1EB6.sc
EndChar

StartChar: Aogonek
Encoding: 260 260 75
Width: 584
GlyphClass: 2
Flags: MW
HStem: -228 110<464 543.5> 0 21G<-10 166 -10 -10 412 460 412 412 565 594> 138 133<229 349 229 380 198 349> 522 128<286 290 286 286>
VStem: 376 124<-161 -64>
AnchorPoint: "Anchor-1" 292 672 basechar 0
LayerCount: 2
Back
Fore
SplineSet
498 -228 m 0
 430 -228 376 -192 376 -130 c 0
 376 -65 428 -17 460 0 c 1
 412 0 l 1
 380 138 l 1
 198 138 l 1
 166 0 l 1
 -10 0 l 1
 188 650 l 1
 396 650 l 1
 594 0 l 1
 536 0 500 -44 500 -84 c 0
 500 -106 516 -118 536 -118 c 0
 551 -118 565 -111 574 -104 c 1
 612 -190 l 1
 584 -212 536 -228 498 -228 c 0
240 316 m 2
 229 271 l 1
 349 271 l 1
 338 316 l 2
 322 378 306 457 290 522 c 1
 286 522 l 1
 272 456 256 378 240 316 c 2
EndSplineSet
Validated: 1
Substitution2: "'c2sc' Capitals to Small Capitals lookup 17 subtable" Aogonek.sc
Ligature2: "'ccmp' Glyph Composition/Decomposition lookup 11 subtable" A uni0328
Substitution2: "'aalt' Access All Alternates lookup 0 subtable" Aogonek.sc
EndChar

StartChar: AE
Encoding: 198 198 76
Width: 854
GlyphClass: 2
Flags: MW
HStem: 0 144<552 800 552 800> 132 133<272 380 272 380 215 380> 260 144<552 754 552 754> 506 144<552 790 552 552> 522 128<376 380 376 376>
VStem: 380 172<0 260 132 260 404 506>
AnchorPoint: "Anchor-1" 526 694 basechar 0
LayerCount: 2
Back
Fore
SplineSet
308 348 m 2xb4
 272 265 l 1
 380 265 l 1x54
 380 522 l 1
 376 522 l 1xac
 352 460 330 400 308 348 c 2xb4
-22 0 m 1xb4
 274 650 l 1
 790 650 l 1
 790 506 l 1
 552 506 l 1
 552 404 l 1
 754 404 l 1
 754 260 l 1
 552 260 l 1
 552 144 l 1
 800 144 l 1
 800 0 l 1
 380 0 l 1xb4
 380 132 l 1
 215 132 l 1x54
 158 0 l 1
 -22 0 l 1xb4
EndSplineSet
Validated: 1
Substitution2: "'c2sc' Capitals to Small Capitals lookup 17 subtable" AE.sc
Substitution2: "'aalt' Access All Alternates lookup 0 subtable" AE.sc
EndChar

StartChar: uni01FC
Encoding: 508 508 77
Width: 854
Flags: MW
HStem: 0 144<552 800 552 800> 132 133<272 380 272 380 215 380> 260 144<552 754 552 754> 506 144<552 790 552 552> 522 128<376 380 376 376>
VStem: 380 172<0 260 132 260 404 506>
LayerCount: 2
Back
Fore
SplineSet
308 348 m 2xb4
 272 265 l 1
 380 265 l 1x54
 380 522 l 1
 376 522 l 1xac
 352 460 330 400 308 348 c 2xb4
-22 0 m 1xb4
 274 650 l 1
 790 650 l 1
 790 506 l 1
 552 506 l 1
 552 404 l 1
 754 404 l 1
 754 260 l 1
 552 260 l 1
 552 144 l 1
 800 144 l 1
 800 0 l 1
 380 0 l 1xb4
 380 132 l 1
 215 132 l 1x54
 158 0 l 1
 -22 0 l 1xb4
518 696 m 1
 442 782 l 1
 624 926 l 1
 714 816 l 1
 518 696 l 1
EndSplineSet
Validated: 1
Substitution2: "'c2sc' Capitals to Small Capitals lookup 17 subtable" uni01FC.sc
Substitution2: "'aalt' Access All Alternates lookup 0 subtable" uni01FC.sc
EndChar

StartChar: uni01E2
Encoding: 482 482 78
Width: 854
Flags: MW
HStem: 0 144<552 800 552 800> 132 133<272 380 272 380 215 380> 260 144<552 754 552 754> 506 144<552 790 552 552> 522 128<376 380 376 376> 738 108<368 684 368 684>
VStem: 368 316<738 846 738 846> 380 172<0 260 132 260 404 506>
LayerCount: 2
Back
Fore
SplineSet
308 348 m 2xb5
 272 265 l 1
 380 265 l 1x55
 380 522 l 1
 376 522 l 1xad
 352 460 330 400 308 348 c 2xb5
-22 0 m 1xb5
 274 650 l 1
 790 650 l 1
 790 506 l 1
 552 506 l 1
 552 404 l 1
 754 404 l 1
 754 260 l 1
 552 260 l 1
 552 144 l 1
 800 144 l 1
 800 0 l 1
 380 0 l 1xb5
 380 132 l 1
 215 132 l 1x55
 158 0 l 1
 -22 0 l 1xb5
368 738 m 1xb6
 368 846 l 1
 684 846 l 1
 684 738 l 1
 368 738 l 1xb6
EndSplineSet
Validated: 1
Substitution2: "'c2sc' Capitals to Small Capitals lookup 17 subtable" uni01E2.sc
Substitution2: "'aalt' Access All Alternates lookup 0 subtable" uni01E2.sc
EndChar

StartChar: uni0243
Encoding: 579 579 79
Width: 638
Flags: MW
HStem: 0 122<270 340 340 352> 174 77 174 80<24 98 24 98 270 386> 304 100<270 328 328 340 270 328> 528 122<270 328 270 270>
VStem: 98 172<122 122 122 174 122 174 254 304 404 528> 414 164<468 492> 444 164<186 247>
LayerCount: 2
Back
Fore
SplineSet
98 0 m 1xbd
 98 174 l 1
 24 174 l 1
 24 248 l 1
 98 254 l 1
 98 650 l 1
 332 650 l 2
 468 650 578 614 578 494 c 0xde
 578 442 546 387 470 368 c 1
 470 364 l 1
 562 345 608 294 608 202 c 0
 608 61 492 0 352 0 c 2
 98 0 l 1xbd
270 404 m 1
 328 404 l 2
 384 404 414 432 414 472 c 0
 414 512 384 528 328 528 c 2
 270 528 l 1
 270 404 l 1
270 122 m 1
 340 122 l 2
 408 122 444 156 444 216 c 0
 444 278 408 304 340 304 c 2
 270 304 l 1
 270 254 l 1
 386 254 l 1
 386 174 l 1
 270 174 l 1xbd
 270 122 l 1
EndSplineSet
Validated: 1
Substitution2: "'c2sc' Capitals to Small Capitals lookup 17 subtable" uni0243.sc
Substitution2: "'aalt' Access All Alternates lookup 0 subtable" uni0243.sc
EndChar

StartChar: uni1E06
Encoding: 7686 7686 80
Width: 612
Flags: MW
HStem: -196 108<166 474 166 474> 0 132<244 314 314 326> 270 126<244 302 302 314 244 302> 518 132<244 302 244 244>
VStem: 72 172<132 132 132 270 396 518> 166 308<-196 -88 -196 -88> 384 168<460 482> 414 168<180 228>
LayerCount: 2
Back
Fore
SplineSet
72 0 m 1xf9
 72 650 l 1
 306 650 l 2
 442 650 552 616 552 488 c 0xfa
 552 432 520 368 470 348 c 1
 470 344 l 1
 532 326 582 278 582 192 c 0
 582 58 466 0 326 0 c 2
 72 0 l 1xf9
244 396 m 1
 302 396 l 2
 358 396 384 422 384 462 c 0
 384 502 358 518 302 518 c 2
 244 518 l 1
 244 396 l 1
244 132 m 1
 314 132 l 2
 382 132 414 156 414 204 c 0
 414 252 382 270 314 270 c 2xf9
 244 270 l 1
 244 132 l 1
166 -196 m 1xf4
 166 -88 l 1
 474 -88 l 1
 474 -196 l 1
 166 -196 l 1xf4
EndSplineSet
Validated: 1
Substitution2: "'c2sc' Capitals to Small Capitals lookup 17 subtable" uni1E06.sc
Substitution2: "'aalt' Access All Alternates lookup 0 subtable" uni1E06.sc
EndChar

StartChar: Ccedilla
Encoding: 199 199 81
Width: 586
Flags: MW
HStem: -244 66<232 244> -8 21G<300 300> 514 148<324 384>
VStem: 44 176<265 385 265 429> 332 122<-150 -127>
LayerCount: 2
Back
Fore
SplineSet
244 -244 m 1
 232 -178 l 1
 308 -174 332 -164 332 -136 c 0
 332 -118 318 -104 256 -96 c 1
 300 -8 l 1
 158 14 44 122 44 320 c 0
 44 538 194 662 358 662 c 0
 444 662 514 622 560 576 c 1
 470 466 l 1
 438 494 406 514 362 514 c 0
 286 514 220 444 220 326 c 0
 220 204 276 136 360 136 c 0
 410 136 450 162 478 192 c 1
 568 84 l 1
 523 32 464 1 398 -9 c 1
 376 -60 l 1
 428 -72 454 -94 454 -136 c 0
 454 -208 376 -240 244 -244 c 1
EndSplineSet
Validated: 1
Substitution2: "'c2sc' Capitals to Small Capitals lookup 17 subtable" Ccedilla.sc
Substitution2: "'aalt' Access All Alternates lookup 0 subtable" Ccedilla.sc
EndChar

StartChar: Cacute
Encoding: 262 262 82
Width: 586
Flags: MW
HStem: -12 148<318 385 318 396> 514 148<324 384>
VStem: 44 176<265 385 265 429>
LayerCount: 2
Back
Fore
SplineSet
354 -12 m 0
 188 -12 44 98 44 320 c 0
 44 538 194 662 358 662 c 0
 444 662 514 622 560 576 c 1
 470 466 l 1
 438 494 406 514 362 514 c 0
 286 514 220 444 220 326 c 0
 220 204 276 136 360 136 c 0
 410 136 450 162 478 192 c 1
 568 84 l 1
 513 20 438 -12 354 -12 c 0
340 674 m 1
 264 760 l 1
 446 904 l 1
 536 794 l 1
 340 674 l 1
EndSplineSet
Validated: 1
Substitution2: "'c2sc' Capitals to Small Capitals lookup 17 subtable" Cacute.sc
Substitution2: "'aalt' Access All Alternates lookup 0 subtable" Cacute.sc
EndChar

StartChar: Ccircumflex
Encoding: 264 264 83
Width: 586
Flags: MW
HStem: -12 148<318 385 318 396> 514 148<324 384> 760 74<346 350 346 346>
VStem: 44 176<265 385 265 429>
LayerCount: 2
Back
Fore
SplineSet
354 -12 m 0
 188 -12 44 98 44 320 c 0
 44 538 194 662 358 662 c 0
 444 662 514 622 560 576 c 1
 470 466 l 1
 438 494 406 514 362 514 c 0
 286 514 220 444 220 326 c 0
 220 204 276 136 360 136 c 0
 410 136 450 162 478 192 c 1
 568 84 l 1
 513 20 438 -12 354 -12 c 0
170 724 m 1
 254 834 l 1
 442 834 l 1
 526 724 l 1
 452 680 l 1
 350 760 l 1
 346 760 l 1
 244 680 l 1
 170 724 l 1
EndSplineSet
Validated: 1
Substitution2: "'c2sc' Capitals to Small Capitals lookup 17 subtable" Ccircumflex.sc
Substitution2: "'aalt' Access All Alternates lookup 0 subtable" Ccircumflex.sc
EndChar

StartChar: Ccaron
Encoding: 268 268 84
Width: 586
Flags: MW
HStem: -12 148<318 385 318 396> 514 148<324 384> 700 74<346 350 346 442>
VStem: 44 176<265 385 265 429>
LayerCount: 2
Back
Fore
SplineSet
354 -12 m 0
 188 -12 44 98 44 320 c 0
 44 538 194 662 358 662 c 0
 444 662 514 622 560 576 c 1
 470 466 l 1
 438 494 406 514 362 514 c 0
 286 514 220 444 220 326 c 0
 220 204 276 136 360 136 c 0
 410 136 450 162 478 192 c 1
 568 84 l 1
 513 20 438 -12 354 -12 c 0
254 700 m 1
 170 810 l 1
 244 854 l 1
 346 774 l 1
 350 774 l 1
 452 854 l 1
 526 810 l 1
 442 700 l 1
 254 700 l 1
EndSplineSet
Validated: 1
Substitution2: "'c2sc' Capitals to Small Capitals lookup 17 subtable" Ccaron.sc
Substitution2: "'aalt' Access All Alternates lookup 0 subtable" Ccaron.sc
EndChar

StartChar: Cdotaccent
Encoding: 266 266 85
Width: 586
Flags: MW
HStem: -12 148<318 385 318 396> 514 148<324 384> 696 172<320 376>
VStem: 44 176<265 385 265 429> 252 192<757 807>
LayerCount: 2
Back
Fore
SplineSet
354 -12 m 0
 188 -12 44 98 44 320 c 0
 44 538 194 662 358 662 c 0
 444 662 514 622 560 576 c 1
 470 466 l 1
 438 494 406 514 362 514 c 0
 286 514 220 444 220 326 c 0
 220 204 276 136 360 136 c 0
 410 136 450 162 478 192 c 1
 568 84 l 1
 513 20 438 -12 354 -12 c 0
348 696 m 0
 292 696 252 732 252 782 c 0
 252 832 292 868 348 868 c 0
 404 868 444 832 444 782 c 0
 444 732 404 696 348 696 c 0
EndSplineSet
Validated: 1
Substitution2: "'c2sc' Capitals to Small Capitals lookup 17 subtable" Cdotaccent.sc
Substitution2: "'aalt' Access All Alternates lookup 0 subtable" Cdotaccent.sc
EndChar

StartChar: Dcaron
Encoding: 270 270 86
Width: 642
Flags: MW
HStem: 0 138<244 254 254 274> 512 138<244 254 244 244> 700 74<320 324 320 416>
VStem: 72 172<138 138 138 512> 422 176<252 404>
LayerCount: 2
Back
Fore
SplineSet
72 0 m 1
 72 650 l 1
 264 650 l 2
 462 650 598 558 598 328 c 0
 598 98 462 0 274 0 c 2
 72 0 l 1
244 138 m 1
 254 138 l 2
 348 138 422 176 422 328 c 0
 422 480 348 512 254 512 c 2
 244 512 l 1
 244 138 l 1
228 700 m 1
 144 810 l 1
 218 854 l 1
 320 774 l 1
 324 774 l 1
 426 854 l 1
 500 810 l 1
 416 700 l 1
 228 700 l 1
EndSplineSet
Validated: 1
Substitution2: "'c2sc' Capitals to Small Capitals lookup 17 subtable" Dcaron.sc
Substitution2: "'aalt' Access All Alternates lookup 0 subtable" Dcaron.sc
EndChar

StartChar: uni1E0C
Encoding: 7692 7692 87
Width: 642
Flags: MW
HStem: -234 172<289 343> 0 138<244 254 254 274> 512 138<244 254 244 244>
VStem: 72 172<138 138 138 512> 224 184<-173 -123> 422 176<252 404>
LayerCount: 2
Back
Fore
SplineSet
72 0 m 1x74
 72 650 l 1
 264 650 l 2
 462 650 598 558 598 328 c 0
 598 98 462 0 274 0 c 2
 72 0 l 1x74
244 138 m 1
 254 138 l 2
 348 138 422 176 422 328 c 0
 422 480 348 512 254 512 c 2
 244 512 l 1
 244 138 l 1
316 -234 m 0xec
 262 -234 224 -198 224 -148 c 0
 224 -98 262 -62 316 -62 c 0
 370 -62 408 -98 408 -148 c 0
 408 -198 370 -234 316 -234 c 0xec
EndSplineSet
Validated: 1
Substitution2: "'c2sc' Capitals to Small Capitals lookup 17 subtable" uni1E0C.sc
Substitution2: "'aalt' Access All Alternates lookup 0 subtable" uni1E0C.sc
EndChar

StartChar: uni1E0E
Encoding: 7694 7694 88
Width: 642
Flags: MW
HStem: -196 108<162 470 162 470> 0 138<244 254 254 274> 512 138<244 254 244 244>
VStem: 72 172<138 138 138 512> 162 308<-196 -88 -196 -88> 422 176<252 404>
LayerCount: 2
Back
Fore
SplineSet
72 0 m 1xf4
 72 650 l 1
 264 650 l 2
 462 650 598 558 598 328 c 0
 598 98 462 0 274 0 c 2
 72 0 l 1xf4
244 138 m 1
 254 138 l 2
 348 138 422 176 422 328 c 0
 422 480 348 512 254 512 c 2
 244 512 l 1
 244 138 l 1
162 -196 m 1xe8
 162 -88 l 1
 470 -88 l 1
 470 -196 l 1
 162 -196 l 1xe8
EndSplineSet
Validated: 1
Substitution2: "'c2sc' Capitals to Small Capitals lookup 17 subtable" uni1E0E.sc
Substitution2: "'aalt' Access All Alternates lookup 0 subtable" uni1E0E.sc
EndChar

StartChar: Dcroat
Encoding: 272 272 89
Width: 668
Flags: MW
HStem: 0 138<270 280 280 300> 294 77 294 80<24 98 24 98 270 386> 512 138<270 280 270 270>
VStem: 98 172<138 138 138 294 138 294 374 512> 448 176<252 404>
LayerCount: 2
Back
Fore
SplineSet
24 294 m 1xdc
 24 368 l 1
 98 374 l 1
 98 650 l 1
 290 650 l 2
 488 650 624 558 624 328 c 0
 624 98 488 0 300 0 c 2
 98 0 l 1
 98 294 l 1
 24 294 l 1xdc
270 138 m 1
 280 138 l 2
 374 138 448 176 448 328 c 0
 448 480 374 512 280 512 c 2
 270 512 l 1
 270 374 l 1
 386 374 l 1
 386 294 l 1
 270 294 l 1xbc
 270 138 l 1
EndSplineSet
Validated: 1
Substitution2: "'c2sc' Capitals to Small Capitals lookup 17 subtable" Dcroat.sc
Substitution2: "'aalt' Access All Alternates lookup 0 subtable" Dcroat.sc
EndChar

StartChar: Egrave
Encoding: 200 200 90
Width: 556
Flags: MW
HStem: 0 144<244 502 244 502> 260 144<244 456 244 456> 506 144<244 492 244 244>
VStem: 72 172<144 260 404 506>
LayerCount: 2
Back
Fore
SplineSet
72 0 m 1
 72 650 l 1
 492 650 l 1
 492 506 l 1
 244 506 l 1
 244 404 l 1
 456 404 l 1
 456 260 l 1
 244 260 l 1
 244 144 l 1
 502 144 l 1
 502 0 l 1
 72 0 l 1
298 674 m 1
 102 794 l 1
 192 904 l 1
 374 760 l 1
 298 674 l 1
EndSplineSet
Validated: 1
Substitution2: "'c2sc' Capitals to Small Capitals lookup 17 subtable" Egrave.sc
Substitution2: "'aalt' Access All Alternates lookup 0 subtable" Egrave.sc
EndChar

StartChar: Eacute
Encoding: 201 201 91
Width: 556
Flags: MW
HStem: 0 144<244 502 244 502> 260 144<244 456 244 456> 506 144<244 492 244 244>
VStem: 72 172<144 260 404 506>
LayerCount: 2
Back
Fore
SplineSet
72 0 m 1
 72 650 l 1
 492 650 l 1
 492 506 l 1
 244 506 l 1
 244 404 l 1
 456 404 l 1
 456 260 l 1
 244 260 l 1
 244 144 l 1
 502 144 l 1
 502 0 l 1
 72 0 l 1
282 674 m 1
 206 760 l 1
 388 904 l 1
 478 794 l 1
 282 674 l 1
EndSplineSet
Validated: 1
Substitution2: "'c2sc' Capitals to Small Capitals lookup 17 subtable" Eacute.sc
Substitution2: "'aalt' Access All Alternates lookup 0 subtable" Eacute.sc
EndChar

StartChar: Ecircumflex
Encoding: 202 202 92
Width: 556
Flags: MW
HStem: 0 144<244 502 244 502> 260 144<244 456 244 456> 506 144<244 492 244 244> 760 74<288 292 288 288>
VStem: 72 172<144 260 404 506>
LayerCount: 2
Back
Fore
SplineSet
72 0 m 1
 72 650 l 1
 492 650 l 1
 492 506 l 1
 244 506 l 1
 244 404 l 1
 456 404 l 1
 456 260 l 1
 244 260 l 1
 244 144 l 1
 502 144 l 1
 502 0 l 1
 72 0 l 1
112 724 m 1
 196 834 l 1
 384 834 l 1
 468 724 l 1
 394 680 l 1
 292 760 l 1
 288 760 l 1
 186 680 l 1
 112 724 l 1
EndSplineSet
Validated: 1
Substitution2: "'c2sc' Capitals to Small Capitals lookup 17 subtable" Ecircumflex.sc
MultipleSubs2: "Multiple Substitution lookup 7 subtable" E uni0302
Substitution2: "'aalt' Access All Alternates lookup 0 subtable" Ecircumflex.sc
EndChar

StartChar: Ecaron
Encoding: 282 282 93
Width: 556
Flags: MW
HStem: 0 144<244 502 244 502> 260 144<244 456 244 456> 506 144<244 492 244 244> 700 74<288 292 288 384>
VStem: 72 172<144 260 404 506>
LayerCount: 2
Back
Fore
SplineSet
72 0 m 1
 72 650 l 1
 492 650 l 1
 492 506 l 1
 244 506 l 1
 244 404 l 1
 456 404 l 1
 456 260 l 1
 244 260 l 1
 244 144 l 1
 502 144 l 1
 502 0 l 1
 72 0 l 1
196 700 m 1
 112 810 l 1
 186 854 l 1
 288 774 l 1
 292 774 l 1
 394 854 l 1
 468 810 l 1
 384 700 l 1
 196 700 l 1
EndSplineSet
Validated: 1
Substitution2: "'c2sc' Capitals to Small Capitals lookup 17 subtable" Ecaron.sc
Substitution2: "'aalt' Access All Alternates lookup 0 subtable" Ecaron.sc
EndChar

StartChar: Edieresis
Encoding: 203 203 94
Width: 556
Flags: MW
HStem: 0 144<244 502 244 502> 260 144<244 456 244 456> 506 144<244 492 244 244> 694 156<153 199 381 427>
VStem: 72 172<144 260 404 506> 98 156<750 794> 326 156<750 794>
LayerCount: 2
Back
Fore
SplineSet
72 0 m 1xe8
 72 650 l 1
 492 650 l 1
 492 506 l 1
 244 506 l 1
 244 404 l 1
 456 404 l 1
 456 260 l 1
 244 260 l 1
 244 144 l 1
 502 144 l 1
 502 0 l 1
 72 0 l 1xe8
176 694 m 0xf6
 130 694 98 728 98 772 c 0
 98 816 130 850 176 850 c 0
 222 850 254 816 254 772 c 0
 254 728 222 694 176 694 c 0xf6
404 694 m 0
 358 694 326 728 326 772 c 0
 326 816 358 850 404 850 c 0
 450 850 482 816 482 772 c 0
 482 728 450 694 404 694 c 0
EndSplineSet
Validated: 1
Substitution2: "'c2sc' Capitals to Small Capitals lookup 17 subtable" Edieresis.sc
Substitution2: "'aalt' Access All Alternates lookup 0 subtable" Edieresis.sc
EndChar

StartChar: Emacron
Encoding: 274 274 95
Width: 556
Flags: MW
HStem: 0 144<244 502 244 502> 260 144<244 456 244 456> 506 144<244 492 244 244> 716 108<132 448 132 448>
VStem: 72 172<144 260 404 506> 132 316<716 824 716 824>
LayerCount: 2
Back
Fore
SplineSet
72 0 m 1xf8
 72 650 l 1
 492 650 l 1
 492 506 l 1
 244 506 l 1
 244 404 l 1
 456 404 l 1
 456 260 l 1
 244 260 l 1
 244 144 l 1
 502 144 l 1
 502 0 l 1
 72 0 l 1xf8
132 716 m 1xf4
 132 824 l 1
 448 824 l 1
 448 716 l 1
 132 716 l 1xf4
EndSplineSet
Validated: 1
Substitution2: "'c2sc' Capitals to Small Capitals lookup 17 subtable" Emacron.sc
MultipleSubs2: "Multiple Substitution lookup 7 subtable" E uni0304
Substitution2: "'aalt' Access All Alternates lookup 0 subtable" Emacron.sc
EndChar

StartChar: Ebreve
Encoding: 276 276 96
Width: 556
Flags: MW
HStem: 0 144<244 502 244 502> 260 144<244 456 244 456> 506 144<244 492 244 244> 694 98<270 310 270 341>
VStem: 72 172<144 260 404 506>
LayerCount: 2
Back
Fore
SplineSet
72 0 m 1
 72 650 l 1
 492 650 l 1
 492 506 l 1
 244 506 l 1
 244 404 l 1
 456 404 l 1
 456 260 l 1
 244 260 l 1
 244 144 l 1
 502 144 l 1
 502 0 l 1
 72 0 l 1
290 694 m 0
 188 694 130 738 120 834 c 1
 212 850 l 1
 221 811 250 792 290 792 c 0
 330 792 359 811 368 850 c 1
 460 834 l 1
 450 738 392 694 290 694 c 0
EndSplineSet
Validated: 1
Substitution2: "'c2sc' Capitals to Small Capitals lookup 17 subtable" Ebreve.sc
Substitution2: "'aalt' Access All Alternates lookup 0 subtable" Ebreve.sc
EndChar

StartChar: Edotaccent
Encoding: 278 278 97
Width: 556
Flags: MW
HStem: 0 144<244 502 244 502> 260 144<244 456 244 456> 506 144<244 492 244 244> 696 172<262 318>
VStem: 72 172<144 260 404 506> 194 192<757 807>
LayerCount: 2
Back
Fore
SplineSet
72 0 m 1xe8
 72 650 l 1
 492 650 l 1
 492 506 l 1
 244 506 l 1
 244 404 l 1
 456 404 l 1
 456 260 l 1
 244 260 l 1
 244 144 l 1
 502 144 l 1
 502 0 l 1
 72 0 l 1xe8
290 696 m 0xf4
 234 696 194 732 194 782 c 0
 194 832 234 868 290 868 c 0
 346 868 386 832 386 782 c 0
 386 732 346 696 290 696 c 0xf4
EndSplineSet
Validated: 1
Substitution2: "'c2sc' Capitals to Small Capitals lookup 17 subtable" Edotaccent.sc
Substitution2: "'aalt' Access All Alternates lookup 0 subtable" Edotaccent.sc
EndChar

StartChar: uni1EB8
Encoding: 7864 7864 98
Width: 556
Flags: MW
HStem: -234 172<267 321> 0 144<244 502 244 502> 260 144<244 456 244 456> 506 144<244 492 244 244>
VStem: 72 172<144 260 404 506> 202 184<-173 -123>
LayerCount: 2
Back
Fore
SplineSet
72 0 m 1x78
 72 650 l 1
 492 650 l 1
 492 506 l 1
 244 506 l 1
 244 404 l 1
 456 404 l 1
 456 260 l 1
 244 260 l 1
 244 144 l 1
 502 144 l 1
 502 0 l 1
 72 0 l 1x78
294 -234 m 0xf4
 240 -234 202 -198 202 -148 c 0
 202 -98 240 -62 294 -62 c 0
 348 -62 386 -98 386 -148 c 0
 386 -198 348 -234 294 -234 c 0xf4
EndSplineSet
Validated: 1
Substitution2: "'c2sc' Capitals to Small Capitals lookup 17 subtable" uni1EB8.sc
Substitution2: "'aalt' Access All Alternates lookup 0 subtable" uni1EB8.sc
EndChar

StartChar: uni1EBA
Encoding: 7866 7866 99
Width: 556
Flags: MW
HStem: 0 144<244 502 244 502> 260 144<244 456 244 456> 506 144<244 492 244 244> 808 84<192 212>
VStem: 72 172<144 260 404 506> 270 122<770 786>
LayerCount: 2
Back
Fore
SplineSet
72 0 m 1
 72 650 l 1
 492 650 l 1
 492 506 l 1
 244 506 l 1
 244 404 l 1
 456 404 l 1
 456 260 l 1
 244 260 l 1
 244 144 l 1
 502 144 l 1
 502 0 l 1
 72 0 l 1
242 688 m 1
 230 754 l 1
 252 757 270 762 270 778 c 0
 270 794 250 804 192 808 c 1
 212 892 l 1
 350 888 392 850 392 796 c 0xfc
 392 724 324 692 242 688 c 1
EndSplineSet
Validated: 1
Substitution2: "'c2sc' Capitals to Small Capitals lookup 17 subtable" uni1EBA.sc
Substitution2: "'aalt' Access All Alternates lookup 0 subtable" uni1EBA.sc
EndChar

StartChar: uni1EBC
Encoding: 7868 7868 100
Width: 556
Flags: MW
HStem: 0 144<244 502 244 502> 260 144<244 456 244 456> 506 144<244 492 244 244> 686 118<340 362 340 396.5> 738 118<218 240>
VStem: 72 172<144 260 404 506> 84 110<696 704> 386 110<838 846>
LayerCount: 2
Back
Fore
SplineSet
72 0 m 1xf5
 72 650 l 1
 492 650 l 1
 492 506 l 1
 244 506 l 1
 244 404 l 1
 456 404 l 1
 456 260 l 1
 244 260 l 1
 244 144 l 1
 502 144 l 1
 502 0 l 1
 72 0 l 1xf5
360 686 m 0
 290 686 254 738 226 738 c 0
 210 738 198 730 194 696 c 1xed
 84 704 l 1
 90 814 147 856 220 856 c 0xeb
 290 856 326 804 354 804 c 0
 370 804 382 812 386 846 c 1
 496 838 l 1
 490 728 433 686 360 686 c 0
EndSplineSet
Validated: 1
Substitution2: "'c2sc' Capitals to Small Capitals lookup 17 subtable" uni1EBC.sc
Substitution2: "'aalt' Access All Alternates lookup 0 subtable" uni1EBC.sc
EndChar

StartChar: uni1EBE
Encoding: 7870 7870 101
Width: 556
Flags: MW
HStem: 0 144<244 502 244 502> 260 144<244 456 244 456> 506 144<244 492 244 244> 752 76<288 292 288 288>
VStem: 72 172<144 260 404 506>
LayerCount: 2
Back
Fore
SplineSet
72 0 m 1
 72 650 l 1
 492 650 l 1
 492 506 l 1
 244 506 l 1
 244 404 l 1
 456 404 l 1
 456 260 l 1
 244 260 l 1
 244 144 l 1
 502 144 l 1
 502 0 l 1
 72 0 l 1
196 680 m 1
 128 724 l 1
 216 828 l 1
 364 828 l 1
 452 724 l 1
 384 680 l 1
 292 752 l 1
 288 752 l 1
 196 680 l 1
454 758 m 1
 404 814 l 1
 506 898 l 1
 560 830 l 1
 454 758 l 1
EndSplineSet
Validated: 1
Substitution2: "'c2sc' Capitals to Small Capitals lookup 17 subtable" uni1EBE.sc
Substitution2: "'aalt' Access All Alternates lookup 0 subtable" uni1EBE.sc
EndChar

StartChar: uni1EC0
Encoding: 7872 7872 102
Width: 556
Flags: MW
HStem: 0 144<244 502 244 502> 260 144<244 456 244 456> 506 144<244 492 244 244> 752 76<288 292 288 288>
VStem: 72 172<144 260 404 506>
LayerCount: 2
Back
Fore
SplineSet
72 0 m 1
 72 650 l 1
 492 650 l 1
 492 506 l 1
 244 506 l 1
 244 404 l 1
 456 404 l 1
 456 260 l 1
 244 260 l 1
 244 144 l 1
 502 144 l 1
 502 0 l 1
 72 0 l 1
196 680 m 1
 128 724 l 1
 216 828 l 1
 364 828 l 1
 452 724 l 1
 384 680 l 1
 292 752 l 1
 288 752 l 1
 196 680 l 1
176 814 m 1
 126 758 l 1
 20 830 l 1
 74 898 l 1
 176 814 l 1
EndSplineSet
Validated: 1
Substitution2: "'c2sc' Capitals to Small Capitals lookup 17 subtable" uni1EC0.sc
Substitution2: "'aalt' Access All Alternates lookup 0 subtable" uni1EC0.sc
EndChar

StartChar: uni1EC2
Encoding: 7874 7874 103
Width: 556
Flags: MW
HStem: 0 144<244 502 244 502> 260 144<244 456 244 456> 506 144<244 492 244 244> 752 76<288 292 288 288> 854 68<388 404>
VStem: 72 172<144 260 404 506> 452 108<724 860 816 832>
LayerCount: 2
Back
Fore
SplineSet
72 0 m 1
 72 650 l 1
 492 650 l 1
 492 506 l 1
 244 506 l 1
 244 404 l 1
 456 404 l 1
 456 260 l 1
 244 260 l 1
 244 144 l 1
 502 144 l 1
 502 0 l 1
 72 0 l 1
196 680 m 1
 128 724 l 1
 216 828 l 1
 364 828 l 1
 452 724 l 1
 384 680 l 1
 292 752 l 1
 288 752 l 1
 196 680 l 1
436 748 m 1
 424 800 l 1xf6
 440 803 452 808 452 824 c 0
 452 840 439 850 388 854 c 1
 404 922 l 1xfe
 526 918 560 882 560 838 c 0
 560 776 507 752 436 748 c 1
EndSplineSet
Validated: 1
Substitution2: "'c2sc' Capitals to Small Capitals lookup 17 subtable" uni1EC2.sc
Substitution2: "'aalt' Access All Alternates lookup 0 subtable" uni1EC2.sc
EndChar

StartChar: uni1EC4
Encoding: 7876 7876 104
Width: 556
Flags: MW
HStem: 0 144<244 502 244 502> 260 144<244 456 244 456> 506 144<244 492 244 244> 742 76<288 292 288 288> 838 92<325 344 325 376> 880 92<236 255>
VStem: 72 172<144 260 404 506> 134 80<844 854> 366 80<956 966>
LayerCount: 2
Back
Fore
SplineSet
72 0 m 1xf2
 72 650 l 1
 492 650 l 1
 492 506 l 1
 244 506 l 1
 244 404 l 1
 456 404 l 1
 456 260 l 1
 244 260 l 1
 244 144 l 1
 502 144 l 1
 502 0 l 1
 72 0 l 1xf2
196 680 m 1
 128 724 l 1
 216 818 l 1
 364 818 l 1
 452 724 l 1
 384 680 l 1
 292 742 l 1
 288 742 l 1
 196 680 l 1
134 854 m 1xf5
 138 939 176 972 232 972 c 0xf5
 284 972 314 930 336 930 c 0
 352 930 362 940 366 966 c 1
 446 956 l 1
 442 871 404 838 348 838 c 0xfa80
 296 838 266 880 244 880 c 0
 228 880 218 870 214 844 c 1
 134 854 l 1xf5
EndSplineSet
Validated: 1
Substitution2: "'c2sc' Capitals to Small Capitals lookup 17 subtable" uni1EC4.sc
Substitution2: "'aalt' Access All Alternates lookup 0 subtable" uni1EC4.sc
EndChar

StartChar: uni1EC6
Encoding: 7878 7878 105
Width: 556
Flags: MW
HStem: -234 172<267 321> 0 144<244 502 244 502> 260 144<244 456 244 456> 506 144<244 492 244 244> 760 74<288 292 288 288>
VStem: 72 172<144 260 404 506> 202 184<-173 -123>
LayerCount: 2
Back
Fore
SplineSet
72 0 m 1x7c
 72 650 l 1
 492 650 l 1
 492 506 l 1
 244 506 l 1
 244 404 l 1
 456 404 l 1
 456 260 l 1
 244 260 l 1
 244 144 l 1
 502 144 l 1
 502 0 l 1
 72 0 l 1x7c
112 724 m 1
 196 834 l 1
 384 834 l 1
 468 724 l 1
 394 680 l 1
 292 760 l 1
 288 760 l 1
 186 680 l 1
 112 724 l 1
294 -234 m 0xfa
 240 -234 202 -198 202 -148 c 0
 202 -98 240 -62 294 -62 c 0
 348 -62 386 -98 386 -148 c 0
 386 -198 348 -234 294 -234 c 0xfa
EndSplineSet
Validated: 1
Substitution2: "'c2sc' Capitals to Small Capitals lookup 17 subtable" uni1EC6.sc
Substitution2: "'aalt' Access All Alternates lookup 0 subtable" uni1EC6.sc
EndChar

StartChar: Eogonek
Encoding: 280 280 106
Width: 556
GlyphClass: 2
Flags: MW
HStem: -228 110<376 458> 0 144<244 368 473 496 496 502> 260 144<244 456 244 456> 506 144<244 492 244 244>
VStem: 72 172<144 260 404 506> 288 124<-161 -63.5>
AnchorPoint: "Anchor-1" 290 672 basechar 0
LayerCount: 2
Back
Fore
SplineSet
410 -228 m 0
 342 -228 288 -192 288 -130 c 0
 288 -67 335 -20 368 0 c 1
 72 0 l 1
 72 650 l 1
 492 650 l 1
 492 506 l 1
 244 506 l 1
 244 404 l 1
 456 404 l 1
 456 260 l 1
 244 260 l 1
 244 144 l 1
 502 144 l 1
 502 0 l 1
 496 0 l 2
 450 0 412 -43 412 -84 c 0
 412 -108 432 -118 452 -118 c 0
 464 -118 477 -110 486 -104 c 1
 524 -190 l 1
 496 -212 448 -228 410 -228 c 0
EndSplineSet
Validated: 1
Substitution2: "'c2sc' Capitals to Small Capitals lookup 17 subtable" Eogonek.sc
Ligature2: "'ccmp' Glyph Composition/Decomposition lookup 11 subtable" E uni0328
Substitution2: "'aalt' Access All Alternates lookup 0 subtable" Eogonek.sc
EndChar

StartChar: uni1E16
Encoding: 7702 7702 107
Width: 556
Flags: MW
HStem: 0 144<244 502 244 502> 260 144<244 456 244 456> 506 144<244 492 244 244> 716 108<132 448 132 448>
VStem: 72 172<144 260 404 506> 132 316<716 824 716 824>
LayerCount: 2
Back
Fore
SplineSet
72 0 m 1xf8
 72 650 l 1
 492 650 l 1
 492 506 l 1
 244 506 l 1
 244 404 l 1
 456 404 l 1
 456 260 l 1
 244 260 l 1
 244 144 l 1
 502 144 l 1
 502 0 l 1
 72 0 l 1xf8
254 836 m 1
 198 914 l 1
 366 1022 l 1
 434 928 l 1
 254 836 l 1
132 716 m 1xf4
 132 824 l 1
 448 824 l 1
 448 716 l 1
 132 716 l 1xf4
EndSplineSet
Validated: 1
Substitution2: "'c2sc' Capitals to Small Capitals lookup 17 subtable" uni1E16.sc
Substitution2: "'aalt' Access All Alternates lookup 0 subtable" uni1E16.sc
EndChar

StartChar: uni01F4
Encoding: 500 500 108
Width: 646
Flags: MW
HStem: -12 148<332 399 332 418> 238 140<344 440 344 592> 514 148<330 400>
VStem: 44 176<265 385 265 429> 440 152<148 238 238 238>
LayerCount: 2
Back
Fore
SplineSet
372 -12 m 0
 190 -12 44 98 44 320 c 0
 44 538 194 662 368 662 c 0
 464 662 534 622 580 576 c 1
 490 466 l 1
 458 494 426 514 374 514 c 0
 286 514 220 444 220 326 c 0
 220 204 274 136 390 136 c 0
 408 136 428 140 440 148 c 1
 440 238 l 1
 344 238 l 1
 344 378 l 1
 592 378 l 1
 592 68 l 1
 546 24 464 -12 372 -12 c 0
364 674 m 1
 288 760 l 1
 470 904 l 1
 560 794 l 1
 364 674 l 1
EndSplineSet
Validated: 1
Substitution2: "'c2sc' Capitals to Small Capitals lookup 17 subtable" uni01F4.sc
Substitution2: "'aalt' Access All Alternates lookup 0 subtable" uni01F4.sc
EndChar

StartChar: Gcircumflex
Encoding: 284 284 109
Width: 646
Flags: MW
HStem: -12 148<332 399 332 418> 238 140<344 440 344 592> 514 148<330 400> 760 74<370 374 370 370>
VStem: 44 176<265 385 265 429> 440 152<148 238 238 238>
LayerCount: 2
Back
Fore
SplineSet
372 -12 m 0
 190 -12 44 98 44 320 c 0
 44 538 194 662 368 662 c 0
 464 662 534 622 580 576 c 1
 490 466 l 1
 458 494 426 514 374 514 c 0
 286 514 220 444 220 326 c 0
 220 204 274 136 390 136 c 0
 408 136 428 140 440 148 c 1
 440 238 l 1
 344 238 l 1
 344 378 l 1
 592 378 l 1
 592 68 l 1
 546 24 464 -12 372 -12 c 0
194 724 m 1
 278 834 l 1
 466 834 l 1
 550 724 l 1
 476 680 l 1
 374 760 l 1
 370 760 l 1
 268 680 l 1
 194 724 l 1
EndSplineSet
Validated: 1
Substitution2: "'c2sc' Capitals to Small Capitals lookup 17 subtable" Gcircumflex.sc
Substitution2: "'aalt' Access All Alternates lookup 0 subtable" Gcircumflex.sc
EndChar

StartChar: Gbreve
Encoding: 286 286 110
Width: 646
Flags: MW
HStem: -12 148<332 399 332 418> 238 140<344 440 344 592> 514 148<330 400> 694 98<352 392 352 423>
VStem: 44 176<265 385 265 429> 440 152<148 238 238 238>
LayerCount: 2
Back
Fore
SplineSet
372 -12 m 0
 190 -12 44 98 44 320 c 0
 44 538 194 662 368 662 c 0
 464 662 534 622 580 576 c 1
 490 466 l 1
 458 494 426 514 374 514 c 0
 286 514 220 444 220 326 c 0
 220 204 274 136 390 136 c 0
 408 136 428 140 440 148 c 1
 440 238 l 1
 344 238 l 1
 344 378 l 1
 592 378 l 1
 592 68 l 1
 546 24 464 -12 372 -12 c 0
372 694 m 0
 270 694 212 738 202 834 c 1
 294 850 l 1
 303 811 332 792 372 792 c 0
 412 792 441 811 450 850 c 1
 542 834 l 1
 532 738 474 694 372 694 c 0
EndSplineSet
Validated: 1
Substitution2: "'c2sc' Capitals to Small Capitals lookup 17 subtable" Gbreve.sc
Substitution2: "'aalt' Access All Alternates lookup 0 subtable" Gbreve.sc
EndChar

StartChar: Gdotaccent
Encoding: 288 288 111
Width: 646
Flags: MW
HStem: -12 148<332 399 332 418> 238 140<344 440 344 592> 514 148<330 400> 696 172<344 400>
VStem: 44 176<265 385 265 429> 276 192<757 807> 440 152<148 238 238 238>
LayerCount: 2
Back
Fore
SplineSet
372 -12 m 0xea
 190 -12 44 98 44 320 c 0
 44 538 194 662 368 662 c 0
 464 662 534 622 580 576 c 1
 490 466 l 1
 458 494 426 514 374 514 c 0
 286 514 220 444 220 326 c 0
 220 204 274 136 390 136 c 0
 408 136 428 140 440 148 c 1
 440 238 l 1
 344 238 l 1
 344 378 l 1
 592 378 l 1
 592 68 l 1
 546 24 464 -12 372 -12 c 0xea
372 696 m 0xfc
 316 696 276 732 276 782 c 0
 276 832 316 868 372 868 c 0
 428 868 468 832 468 782 c 0
 468 732 428 696 372 696 c 0xfc
EndSplineSet
Validated: 1
Substitution2: "'c2sc' Capitals to Small Capitals lookup 17 subtable" Gdotaccent.sc
Substitution2: "'aalt' Access All Alternates lookup 0 subtable" Gdotaccent.sc
EndChar

StartChar: uni0122
Encoding: 290 290 112
Width: 646
Flags: MW
HStem: -244 66<248 260> -110 60<288 320> -12 148<332 399 332 418> 238 140<344 440 344 592> 514 148<330 400>
VStem: 44 176<265 385 265 429> 348 122<-153 -134> 440 152<148 238 238 238>
LayerCount: 2
Back
Fore
SplineSet
372 -12 m 0xfd
 190 -12 44 98 44 320 c 0
 44 538 194 662 368 662 c 0
 464 662 534 622 580 576 c 1
 490 466 l 1
 458 494 426 514 374 514 c 0
 286 514 220 444 220 326 c 0
 220 204 274 136 390 136 c 0
 408 136 428 140 440 148 c 1
 440 238 l 1
 344 238 l 1
 344 378 l 1
 592 378 l 1
 592 68 l 1
 546 24 464 -12 372 -12 c 0xfd
260 -244 m 1
 248 -178 l 1
 324 -174 348 -164 348 -142 c 0
 348 -126 332 -114 288 -110 c 1
 320 -50 l 1
 434 -58 470 -86 470 -136 c 0xfe
 470 -208 392 -240 260 -244 c 1
EndSplineSet
Validated: 1
Substitution2: "'c2sc' Capitals to Small Capitals lookup 17 subtable" uni0122.sc
Substitution2: "'aalt' Access All Alternates lookup 0 subtable" uni0122.sc
EndChar

StartChar: Gcaron
Encoding: 486 486 113
Width: 646
Flags: MW
HStem: -12 148<332 399 332 418> 238 140<344 440 344 592> 514 148<330 400> 700 74<370 374 370 466>
VStem: 44 176<265 385 265 429> 440 152<148 238 238 238>
LayerCount: 2
Back
Fore
SplineSet
372 -12 m 0
 190 -12 44 98 44 320 c 0
 44 538 194 662 368 662 c 0
 464 662 534 622 580 576 c 1
 490 466 l 1
 458 494 426 514 374 514 c 0
 286 514 220 444 220 326 c 0
 220 204 274 136 390 136 c 0
 408 136 428 140 440 148 c 1
 440 238 l 1
 344 238 l 1
 344 378 l 1
 592 378 l 1
 592 68 l 1
 546 24 464 -12 372 -12 c 0
278 700 m 1
 194 810 l 1
 268 854 l 1
 370 774 l 1
 374 774 l 1
 476 854 l 1
 550 810 l 1
 466 700 l 1
 278 700 l 1
EndSplineSet
Validated: 1
Substitution2: "'c2sc' Capitals to Small Capitals lookup 17 subtable" Gcaron.sc
Substitution2: "'aalt' Access All Alternates lookup 0 subtable" Gcaron.sc
EndChar

StartChar: uni1E20
Encoding: 7712 7712 114
Width: 646
Flags: MW
HStem: -12 148<332 399 332 418> 238 140<344 440 344 592> 514 148<330 400> 716 108<214 530 214 530>
VStem: 44 176<265 385 265 429> 214 316<716 824 716 824> 440 152<148 238 238 238>
LayerCount: 2
Back
Fore
SplineSet
372 -12 m 0xfa
 190 -12 44 98 44 320 c 0
 44 538 194 662 368 662 c 0
 464 662 534 622 580 576 c 1
 490 466 l 1
 458 494 426 514 374 514 c 0
 286 514 220 444 220 326 c 0
 220 204 274 136 390 136 c 0
 408 136 428 140 440 148 c 1
 440 238 l 1
 344 238 l 1
 344 378 l 1
 592 378 l 1
 592 68 l 1
 546 24 464 -12 372 -12 c 0xfa
214 716 m 1xf4
 214 824 l 1
 530 824 l 1
 530 716 l 1
 214 716 l 1xf4
EndSplineSet
Validated: 1
Substitution2: "'c2sc' Capitals to Small Capitals lookup 17 subtable" uni1E20.sc
Substitution2: "'aalt' Access All Alternates lookup 0 subtable" uni1E20.sc
EndChar

StartChar: uni00470303
Encoding: 1114113 -1 115
Width: 646
GlyphClass: 3
Flags: MW
HStem: -12 148<332 399 332 418> 238 140<344 440 344 592> 514 148<330 400> 686 118<422 444 422 478.5> 738 118<300 322>
VStem: 44 176<265 385 265 429> 166 110<696 704> 440 152<148 238 238 238> 468 110<838 846>
LayerCount: 2
Back
Fore
SplineSet
372 -12 m 0xe5
 190 -12 44 98 44 320 c 0
 44 538 194 662 368 662 c 0
 464 662 534 622 580 576 c 1
 490 466 l 1
 458 494 426 514 374 514 c 0
 286 514 220 444 220 326 c 0
 220 204 274 136 390 136 c 0
 408 136 428 140 440 148 c 1
 440 238 l 1
 344 238 l 1
 344 378 l 1
 592 378 l 1
 592 68 l 1
 546 24 464 -12 372 -12 c 0xe5
442 686 m 0xf480
 372 686 336 738 308 738 c 0
 292 738 280 730 276 696 c 1
 166 704 l 1
 172 814 229 856 302 856 c 0xeb
 372 856 408 804 436 804 c 0
 452 804 464 812 468 846 c 1
 578 838 l 1
 572 728 515 686 442 686 c 0xf480
EndSplineSet
Validated: 1
Substitution2: "'c2sc' Capitals to Small Capitals lookup 17 subtable" uni00470303.sc
Ligature2: "'ccmp' Glyph Composition/Decomposition lookup 11 subtable" G uni0303
Substitution2: "'aalt' Access All Alternates lookup 0 subtable" uni00470303.sc
EndChar

StartChar: uni0193
Encoding: 403 403 116
Width: 646
Flags: MW
HStem: -12 148<332 399 332 418> 238 140<344 440 344 592> 514 148<330 374.5 281 400> 690 134<512 605>
VStem: 44 176<265 385 265 429> 406 144<632 711> 440 152<148 238 238 238>
LayerCount: 2
Back
Fore
SplineSet
372 -12 m 0xea
 190 -12 44 98 44 320 c 0
 44 538 194 662 368 662 c 0xec
 381 662 394 661 407 660 c 1
 406 663 406 667 406 670 c 0
 406 752 462 824 562 824 c 0
 608 824 634 817 656 810 c 1
 626 684 l 1
 616 688 610 690 600 690 c 0
 572 690 550 676 550 644 c 0xfc
 550 620 566 602 580 586 c 1
 490 476 l 1xec
 458 498 426 514 374 514 c 0
 286 514 220 444 220 326 c 0
 220 204 274 136 390 136 c 0
 408 136 428 140 440 148 c 1
 440 238 l 1
 344 238 l 1
 344 378 l 1
 592 378 l 1
 592 68 l 1
 546 24 464 -12 372 -12 c 0xea
EndSplineSet
Validated: 1
Substitution2: "'c2sc' Capitals to Small Capitals lookup 17 subtable" uni0193.sc
Substitution2: "'aalt' Access All Alternates lookup 0 subtable" uni0193.sc
EndChar

StartChar: Hcircumflex
Encoding: 292 292 117
Width: 682
Flags: MW
HStem: 0 21G<72 72 72 244 438 438 438 610> 258 150<244 438 244 438> 630 20G<72 244 244 244 438 610 610 610> 760 74<338 342 338 338>
VStem: 72 172<0 258 408 650> 438 172<0 258 258 258 408 650 0 650>
LayerCount: 2
Back
Fore
SplineSet
72 0 m 1
 72 650 l 1
 244 650 l 1
 244 408 l 1
 438 408 l 1
 438 650 l 1
 610 650 l 1
 610 0 l 1
 438 0 l 1
 438 258 l 1
 244 258 l 1
 244 0 l 1
 72 0 l 1
162 724 m 1
 246 834 l 1
 434 834 l 1
 518 724 l 1
 444 680 l 1
 342 760 l 1
 338 760 l 1
 236 680 l 1
 162 724 l 1
EndSplineSet
Validated: 1
Substitution2: "'c2sc' Capitals to Small Capitals lookup 17 subtable" Hcircumflex.sc
Substitution2: "'aalt' Access All Alternates lookup 0 subtable" Hcircumflex.sc
EndChar

StartChar: uni1E24
Encoding: 7716 7716 118
Width: 682
Flags: MW
HStem: -234 172<313 367> 0 21G<72 72 72 244 438 438 438 610> 258 150<244 438 244 438> 630 20G<72 244 244 244 438 610 610 610>
VStem: 72 172<0 258 408 650> 248 184<-173 -123> 438 172<0 258 258 258 408 650 0 650>
LayerCount: 2
Back
Fore
SplineSet
72 0 m 1
 72 650 l 1
 244 650 l 1
 244 408 l 1
 438 408 l 1
 438 650 l 1
 610 650 l 1
 610 0 l 1
 438 0 l 1
 438 258 l 1
 244 258 l 1
 244 0 l 1
 72 0 l 1
340 -234 m 0xf4
 286 -234 248 -198 248 -148 c 0
 248 -98 286 -62 340 -62 c 0
 394 -62 432 -98 432 -148 c 0
 432 -198 394 -234 340 -234 c 0xf4
EndSplineSet
Validated: 1
Substitution2: "'c2sc' Capitals to Small Capitals lookup 17 subtable" uni1E24.sc
Substitution2: "'aalt' Access All Alternates lookup 0 subtable" uni1E24.sc
EndChar

StartChar: uni1E2A
Encoding: 7722 7722 119
Width: 682
Flags: MW
HStem: -234 106<316 364 316 399> 0 21G<72 72 72 244 438 438 438 610> 258 150<244 438 244 438> 630 20G<72 244 244 244 438 610 610 610>
VStem: 72 172<0 258 408 650> 418 96<-74 -58> 438 172<0 258 258 258 408 650 0 650>
LayerCount: 2
Back
Fore
SplineSet
72 0 m 1xfa
 72 650 l 1
 244 650 l 1
 244 408 l 1
 438 408 l 1
 438 650 l 1
 610 650 l 1
 610 0 l 1
 438 0 l 1
 438 258 l 1
 244 258 l 1
 244 0 l 1
 72 0 l 1xfa
340 -234 m 0
 223 -234 168 -168 166 -74 c 1
 262 -58 l 1
 268 -98 292 -128 340 -128 c 0
 388 -128 412 -98 418 -58 c 1xfc
 514 -74 l 1
 512 -168 458 -234 340 -234 c 0
EndSplineSet
Validated: 1
Substitution2: "'c2sc' Capitals to Small Capitals lookup 17 subtable" uni1E2A.sc
Substitution2: "'aalt' Access All Alternates lookup 0 subtable" uni1E2A.sc
EndChar

StartChar: Hbar
Encoding: 294 294 120
Width: 722
Flags: MW
HStem: 0 21G<92 264 92 92 458 630 458 458> 258 150<264 458 264 458> 484 77 484 80<22 92 22 92 264 458 630 700> 484 166<22 264 22 264 92 264 92 458>
VStem: 92 172<0 258 408 484 564 650> 458 172<0 258 258 258 408 484 0 484 564 650 0 650>
LayerCount: 2
Back
Fore
SplineSet
22 484 m 1xce
 22 558 l 1
 92 564 l 1xe6
 92 650 l 1
 264 650 l 1xce
 264 564 l 1
 458 564 l 1xd6
 458 650 l 1
 630 650 l 1xce
 630 564 l 1
 700 564 l 1xd6
 700 484 l 1
 630 484 l 1
 630 0 l 1
 458 0 l 1
 458 258 l 1
 264 258 l 1
 264 0 l 1
 92 0 l 1
 92 484 l 1
 22 484 l 1xce
264 408 m 1
 458 408 l 1
 458 484 l 1
 264 484 l 1xce
 264 408 l 1
EndSplineSet
Validated: 1
Substitution2: "'c2sc' Capitals to Small Capitals lookup 17 subtable" Hbar.sc
Substitution2: "'aalt' Access All Alternates lookup 0 subtable" Hbar.sc
EndChar

StartChar: Igrave
Encoding: 204 204 121
Width: 316
Flags: MW
HStem: 0 21G<72 72 72 244> 630 20G<72 244 244 244>
VStem: 72 172<0 650 0 650>
LayerCount: 2
Back
Fore
SplineSet
72 0 m 1
 72 650 l 1
 244 650 l 1
 244 0 l 1
 72 0 l 1
166 674 m 1
 -30 794 l 1
 60 904 l 1
 242 760 l 1
 166 674 l 1
EndSplineSet
Validated: 1
Substitution2: "'ss04' Style Set 4 lookup 43 subtable" Igrave.a
Substitution2: "'c2sc' Capitals to Small Capitals lookup 17 subtable" Igrave.sc
AlternateSubs2: "'aalt' Access All Alternates lookup 1 subtable" Igrave.sc Igrave.a
EndChar

StartChar: Iacute
Encoding: 205 205 122
Width: 316
Flags: MW
HStem: 0 21G<72 72 72 244> 630 20G<72 244 244 244>
VStem: 72 172<0 650 0 650>
LayerCount: 2
Back
Fore
SplineSet
72 0 m 1
 72 650 l 1
 244 650 l 1
 244 0 l 1
 72 0 l 1
150 674 m 1
 74 760 l 1
 256 904 l 1
 346 794 l 1
 150 674 l 1
EndSplineSet
Validated: 1
Substitution2: "'ss04' Style Set 4 lookup 43 subtable" Iacute.a
Substitution2: "'c2sc' Capitals to Small Capitals lookup 17 subtable" Iacute.sc
AlternateSubs2: "'aalt' Access All Alternates lookup 1 subtable" Iacute.sc Iacute.a
EndChar

StartChar: Icircumflex
Encoding: 206 206 123
Width: 316
Flags: MW
HStem: 0 21G<72 72 72 244> 630 20G<72 244 244 244> 760 74<156 160 156 156>
VStem: 72 172<0 650 0 650>
LayerCount: 2
Back
Fore
SplineSet
72 0 m 1
 72 650 l 1
 244 650 l 1
 244 0 l 1
 72 0 l 1
-20 724 m 1
 64 834 l 1
 252 834 l 1
 336 724 l 1
 262 680 l 1
 160 760 l 1
 156 760 l 1
 54 680 l 1
 -20 724 l 1
EndSplineSet
Validated: 1
Substitution2: "'ss04' Style Set 4 lookup 43 subtable" Icircumflex.a
Substitution2: "'c2sc' Capitals to Small Capitals lookup 17 subtable" Icircumflex.sc
AlternateSubs2: "'aalt' Access All Alternates lookup 1 subtable" Icircumflex.sc Icircumflex.a
EndChar

StartChar: Itilde
Encoding: 296 296 124
Width: 316
Flags: MW
HStem: 0 21G<72 72 72 244> 630 20G<72 244 244 244> 686 118<208 230 208 264.5> 738 118<86 108>
VStem: -48 110<696 704> 72 172<0 650 0 650> 254 110<838 846>
LayerCount: 2
Back
Fore
SplineSet
72 0 m 1xd4
 72 650 l 1
 244 650 l 1
 244 0 l 1
 72 0 l 1xd4
228 686 m 0xe6
 158 686 122 738 94 738 c 0
 78 738 66 730 62 696 c 1
 -48 704 l 1
 -42 814 15 856 88 856 c 0xdc
 158 856 194 804 222 804 c 0
 238 804 250 812 254 846 c 1
 364 838 l 1
 358 728 301 686 228 686 c 0xe6
EndSplineSet
Validated: 1
Substitution2: "'ss04' Style Set 4 lookup 43 subtable" Itilde.a
Substitution2: "'c2sc' Capitals to Small Capitals lookup 17 subtable" Itilde.sc
AlternateSubs2: "'aalt' Access All Alternates lookup 1 subtable" Itilde.sc Itilde.a
EndChar

StartChar: Idieresis
Encoding: 207 207 125
Width: 316
Flags: MW
HStem: 0 21G<72 72 72 244> 630 20G<72 244 244 244> 694 156<21 67 249 295>
VStem: -34 156<750 794> 72 172<0 650 0 650> 194 156<750 794>
LayerCount: 2
Back
Fore
SplineSet
72 0 m 1xe8
 72 650 l 1
 244 650 l 1
 244 0 l 1
 72 0 l 1xe8
44 694 m 0xf4
 -2 694 -34 728 -34 772 c 0
 -34 816 -2 850 44 850 c 0
 90 850 122 816 122 772 c 0
 122 728 90 694 44 694 c 0xf4
272 694 m 0
 226 694 194 728 194 772 c 0
 194 816 226 850 272 850 c 0
 318 850 350 816 350 772 c 0
 350 728 318 694 272 694 c 0
EndSplineSet
Validated: 1
Substitution2: "'ss04' Style Set 4 lookup 43 subtable" Idieresis.a
Substitution2: "'c2sc' Capitals to Small Capitals lookup 17 subtable" Idieresis.sc
AlternateSubs2: "'aalt' Access All Alternates lookup 1 subtable" Idieresis.sc Idieresis.a
EndChar

StartChar: Imacron
Encoding: 298 298 126
Width: 316
Flags: MW
HStem: 0 21G<72 72 72 244> 630 20G<72 244 244 244> 716 108<0 316 0 316>
VStem: 72 172<0 650 0 650>
LayerCount: 2
Back
Fore
SplineSet
72 0 m 1
 72 650 l 1
 244 650 l 1
 244 0 l 1
 72 0 l 1
0 716 m 1
 0 824 l 1
 316 824 l 1
 316 716 l 1
 0 716 l 1
EndSplineSet
Validated: 1
Substitution2: "'ss04' Style Set 4 lookup 43 subtable" Imacron.a
Substitution2: "'c2sc' Capitals to Small Capitals lookup 17 subtable" Imacron.sc
AlternateSubs2: "'aalt' Access All Alternates lookup 1 subtable" Imacron.sc Imacron.a
EndChar

StartChar: Idotaccent
Encoding: 304 304 127
Width: 316
Flags: MW
HStem: 0 21G<72 72 72 244> 630 20G<72 244 244 244> 696 172<130 186>
VStem: 72 172<0 650 0 650>
LayerCount: 2
Back
Fore
SplineSet
72 0 m 1
 72 650 l 1
 244 650 l 1
 244 0 l 1
 72 0 l 1
158 696 m 0
 102 696 62 732 62 782 c 0
 62 832 102 868 158 868 c 0
 214 868 254 832 254 782 c 0
 254 732 214 696 158 696 c 0
EndSplineSet
Validated: 1
Substitution2: "'ss04' Style Set 4 lookup 43 subtable" Idotaccent.a
Substitution2: "'c2sc' Capitals to Small Capitals lookup 17 subtable" Idotaccent.sc
AlternateSubs2: "'aalt' Access All Alternates lookup 1 subtable" Idotaccent.sc Idotaccent.a
EndChar

StartChar: uni01CF
Encoding: 463 463 128
Width: 316
Flags: MW
HStem: 0 21G<72 72 72 244> 630 20G<72 244 244 244> 700 74<156 160 156 252>
VStem: 72 172<0 650 0 650>
LayerCount: 2
Back
Fore
SplineSet
72 0 m 1
 72 650 l 1
 244 650 l 1
 244 0 l 1
 72 0 l 1
64 700 m 1
 -20 810 l 1
 54 854 l 1
 156 774 l 1
 160 774 l 1
 262 854 l 1
 336 810 l 1
 252 700 l 1
 64 700 l 1
EndSplineSet
Validated: 1
Substitution2: "'ss04' Style Set 4 lookup 43 subtable" uni01CF.a
Substitution2: "'c2sc' Capitals to Small Capitals lookup 17 subtable" uni01CF.sc
AlternateSubs2: "'aalt' Access All Alternates lookup 1 subtable" uni01CF.sc uni01CF.a
EndChar

StartChar: uni1EC8
Encoding: 7880 7880 129
Width: 316
Flags: MW
HStem: 808 84<60 80>
VStem: 72 172<0 650 0 650> 138 122<770 786>
LayerCount: 2
Back
Fore
SplineSet
72 0 m 1xc0
 72 650 l 1
 244 650 l 1
 244 0 l 1
 72 0 l 1xc0
110 688 m 1
 98 754 l 1
 120 757 138 762 138 778 c 0
 138 794 118 804 60 808 c 1
 80 892 l 1
 218 888 260 850 260 796 c 0xa0
 260 724 192 692 110 688 c 1
EndSplineSet
Validated: 1
Substitution2: "'ss04' Style Set 4 lookup 43 subtable" uni1EC8.a
Substitution2: "'c2sc' Capitals to Small Capitals lookup 17 subtable" uni1EC8.sc
AlternateSubs2: "'aalt' Access All Alternates lookup 1 subtable" uni1EC8.sc uni1EC8.a
EndChar

StartChar: uni1ECA
Encoding: 7882 7882 130
Width: 316
Flags: MW
HStem: -234 172<131 185> 0 21G<72 72 72 244> 630 20G<72 244 244 244>
VStem: 66 184<-173 -123> 72 172<0 650 0 650>
LayerCount: 2
Back
Fore
SplineSet
72 0 m 1xe8
 72 650 l 1
 244 650 l 1
 244 0 l 1
 72 0 l 1xe8
158 -234 m 0xf0
 104 -234 66 -198 66 -148 c 0
 66 -98 104 -62 158 -62 c 0
 212 -62 250 -98 250 -148 c 0
 250 -198 212 -234 158 -234 c 0xf0
EndSplineSet
Validated: 1
Substitution2: "'ss04' Style Set 4 lookup 43 subtable" uni1ECA.a
Substitution2: "'c2sc' Capitals to Small Capitals lookup 17 subtable" uni1ECA.sc
AlternateSubs2: "'aalt' Access All Alternates lookup 1 subtable" uni1ECA.sc uni1ECA.a
EndChar

StartChar: Iogonek
Encoding: 302 302 131
Width: 316
GlyphClass: 2
Flags: MW
HStem: -228 110<130 211.5> 0 21G<72 119 72 72 244 244> 630 20G<72 244 244 244>
VStem: 42 124<-161 -68> 72 172<0 650 0 650>
AnchorPoint: "Anchor-1" 158 672 basechar 0
LayerCount: 2
Back
Fore
SplineSet
164 -228 m 0xf0
 96 -228 42 -192 42 -130 c 0
 42 -64 91 -18 119 0 c 1xf0
 72 0 l 1
 72 650 l 1
 244 650 l 1
 244 0 l 1
 186 -18 166 -52 166 -84 c 0
 166 -108 186 -118 205 -118 c 0
 218 -118 232 -110 240 -104 c 1xe8
 278 -190 l 1
 250 -212 202 -228 164 -228 c 0xf0
EndSplineSet
Validated: 1
Substitution2: "'ss04' Style Set 4 lookup 43 subtable" Iogonek.a
Substitution2: "'c2sc' Capitals to Small Capitals lookup 17 subtable" Iogonek.sc
Ligature2: "'ccmp' Glyph Composition/Decomposition lookup 11 subtable" I uni0328
AlternateSubs2: "'aalt' Access All Alternates lookup 1 subtable" Iogonek.sc Iogonek.a
EndChar

StartChar: uni012C
Encoding: 300 300 132
Width: 316
Flags: MW
HStem: 0 21G<72 72 72 244> 630 20G<72 244 244 244> 694 98<138 178 138 209>
VStem: 72 172<0 650 0 650>
LayerCount: 2
Back
Fore
SplineSet
72 0 m 1
 72 650 l 1
 244 650 l 1
 244 0 l 1
 72 0 l 1
158 694 m 0
 56 694 -2 738 -12 834 c 1
 80 850 l 1
 89 811 118 792 158 792 c 0
 198 792 227 811 236 850 c 1
 328 834 l 1
 318 738 260 694 158 694 c 0
EndSplineSet
Validated: 1
Substitution2: "'ss04' Style Set 4 lookup 43 subtable" uni012C.a
Substitution2: "'c2sc' Capitals to Small Capitals lookup 17 subtable" uni012C.sc
AlternateSubs2: "'aalt' Access All Alternates lookup 1 subtable" uni012C.sc uni012C.a
EndChar

StartChar: Jcircumflex
Encoding: 308 308 133
Width: 520
Flags: MW
HStem: -12 148<194 231 194 307> 630 20G<280 452 452 452> 760 74<362 366 362 362>
VStem: 280 172<240 650>
LayerCount: 2
Back
Fore
SplineSet
232 -12 m 0
 126 -12 58 28 10 111 c 1
 126 198 l 1
 148 156 180 136 208 136 c 0
 254 136 280 158 280 240 c 2
 280 650 l 1
 452 650 l 1
 452 226 l 2
 452 96 382 -12 232 -12 c 0
186 724 m 1
 270 834 l 1
 458 834 l 1
 542 724 l 1
 468 680 l 1
 366 760 l 1
 362 760 l 1
 260 680 l 1
 186 724 l 1
EndSplineSet
Validated: 1
Substitution2: "'c2sc' Capitals to Small Capitals lookup 17 subtable" Jcircumflex.sc
Substitution2: "'aalt' Access All Alternates lookup 0 subtable" Jcircumflex.sc
EndChar

StartChar: uni0136
Encoding: 310 310 134
Width: 628
Flags: MW
HStem: -244 66<214 226> -110 60<254 286> 0 21G<72 72 72 244 450 450 450 638> 630 20G<72 244 244 244 412 600 600 600>
VStem: 72 172<0 162 408 650> 314 122<-153 -134>
LayerCount: 2
Back
Fore
SplineSet
72 0 m 1
 72 650 l 1
 244 650 l 1
 244 408 l 1
 248 408 l 1
 412 650 l 1
 600 650 l 1
 406 386 l 1
 638 0 l 1
 450 0 l 1
 306 250 l 1
 244 162 l 1
 244 0 l 1
 72 0 l 1
226 -244 m 1
 214 -178 l 1
 290 -174 314 -164 314 -142 c 0
 314 -126 298 -114 254 -110 c 1
 286 -50 l 1
 400 -58 436 -86 436 -136 c 0
 436 -208 358 -240 226 -244 c 1
EndSplineSet
Validated: 1
Substitution2: "'c2sc' Capitals to Small Capitals lookup 17 subtable" uni0136.sc
Substitution2: "'aalt' Access All Alternates lookup 0 subtable" uni0136.sc
EndChar

StartChar: uni1E32
Encoding: 7730 7730 135
Width: 628
Flags: MW
HStem: -234 172<307 361> 0 21G<72 72 72 244 450 450 450 638> 630 20G<72 244 244 244 412 600 600 600>
VStem: 72 172<0 162 408 650> 242 184<-173 -123>
LayerCount: 2
Back
Fore
SplineSet
72 0 m 1xf0
 72 650 l 1
 244 650 l 1
 244 408 l 1
 248 408 l 1
 412 650 l 1
 600 650 l 1
 406 386 l 1
 638 0 l 1
 450 0 l 1
 306 250 l 1
 244 162 l 1
 244 0 l 1
 72 0 l 1xf0
334 -234 m 0xe8
 280 -234 242 -198 242 -148 c 0
 242 -98 280 -62 334 -62 c 0
 388 -62 426 -98 426 -148 c 0
 426 -198 388 -234 334 -234 c 0xe8
EndSplineSet
Validated: 1
Substitution2: "'c2sc' Capitals to Small Capitals lookup 17 subtable" uni1E32.sc
Substitution2: "'aalt' Access All Alternates lookup 0 subtable" uni1E32.sc
EndChar

StartChar: uni1E34
Encoding: 7732 7732 136
Width: 628
Flags: MW
HStem: -196 108<180 488 180 488> 0 21G<72 72 72 244 450 450 450 638> 630 20G<72 244 244 244 412 600 600 600>
VStem: 72 172<0 162 408 650>
LayerCount: 2
Back
Fore
SplineSet
72 0 m 1
 72 650 l 1
 244 650 l 1
 244 408 l 1
 248 408 l 1
 412 650 l 1
 600 650 l 1
 406 386 l 1
 638 0 l 1
 450 0 l 1
 306 250 l 1
 244 162 l 1
 244 0 l 1
 72 0 l 1
180 -196 m 1
 180 -88 l 1
 488 -88 l 1
 488 -196 l 1
 180 -196 l 1
EndSplineSet
Validated: 1
Substitution2: "'c2sc' Capitals to Small Capitals lookup 17 subtable" uni1E34.sc
Substitution2: "'aalt' Access All Alternates lookup 0 subtable" uni1E34.sc
EndChar

StartChar: Lacute
Encoding: 313 313 137
Width: 530
Flags: MW
HStem: 0 144<244 490 244 490> 630 20G<72 244 244 244>
VStem: 72 172<144 650 144 650 144 650>
LayerCount: 2
Back
Fore
SplineSet
72 0 m 1
 72 650 l 1
 244 650 l 1
 244 144 l 1
 490 144 l 1
 490 0 l 1
 72 0 l 1
154 674 m 1
 78 760 l 1
 260 904 l 1
 350 794 l 1
 154 674 l 1
EndSplineSet
Validated: 1
Substitution2: "'c2sc' Capitals to Small Capitals lookup 17 subtable" Lacute.sc
Substitution2: "'aalt' Access All Alternates lookup 0 subtable" Lacute.sc
EndChar

StartChar: Lcaron
Encoding: 317 317 138
Width: 530
Flags: MW
HStem: 0 144<244 490 244 490> 508 142<72 360 72 432> 508 226<360 360 360 432>
VStem: 72 172<144 650 144 650 144 650> 357 104
LayerCount: 2
Back
Fore
SplineSet
72 0 m 1xd8
 72 650 l 1
 244 650 l 1
 244 144 l 1
 490 144 l 1
 490 0 l 1
 72 0 l 1xd8
360 508 m 1
 354 734 l 1
 462 734 l 1
 460 660 l 1xb8
 432 508 l 1
 360 508 l 1
EndSplineSet
Validated: 1
Substitution2: "'c2sc' Capitals to Small Capitals lookup 17 subtable" Lcaron.sc
Substitution2: "'aalt' Access All Alternates lookup 0 subtable" Lcaron.sc
EndChar

StartChar: uni013B
Encoding: 315 315 139
Width: 530
Flags: MW
HStem: -244 66<171 183> -110 60<211 243> 0 144<244 490 244 490> 630 20G<72 244 244 244>
VStem: 72 172<144 650 144 650 144 650> 271 122<-153 -134>
LayerCount: 2
Back
Fore
SplineSet
72 0 m 1
 72 650 l 1
 244 650 l 1
 244 144 l 1
 490 144 l 1
 490 0 l 1
 72 0 l 1
183 -244 m 1
 171 -178 l 1
 247 -174 271 -164 271 -142 c 0
 271 -126 255 -114 211 -110 c 1
 243 -50 l 1
 357 -58 393 -86 393 -136 c 0xfc
 393 -208 315 -240 183 -244 c 1
EndSplineSet
Validated: 1
Substitution2: "'c2sc' Capitals to Small Capitals lookup 17 subtable" uni013B.sc
Substitution2: "'aalt' Access All Alternates lookup 0 subtable" uni013B.sc
EndChar

StartChar: Ldot
Encoding: 319 319 140
Width: 530
Flags: MW
HStem: 0 144<244 490 244 490> 226 208<394 452> 630 20G<72 244 244 244>
VStem: 72 172<144 650 144 650 144 650> 323 200<301 359>
LayerCount: 2
Back
Fore
SplineSet
72 0 m 1
 72 650 l 1
 244 650 l 1
 244 144 l 1
 490 144 l 1
 490 0 l 1
 72 0 l 1
423 226 m 0
 365 226 323 272 323 330 c 0
 323 388 365 434 423 434 c 0
 481 434 523 388 523 330 c 0
 523 272 481 226 423 226 c 0
EndSplineSet
Validated: 1
Substitution2: "'c2sc' Capitals to Small Capitals lookup 17 subtable" Ldot.sc
Substitution2: "'aalt' Access All Alternates lookup 0 subtable" Ldot.sc
EndChar

StartChar: uni1E36
Encoding: 7734 7734 141
Width: 530
Flags: MW
HStem: -234 172<264 318> 0 144<244 490 244 490> 630 20G<72 244 244 244>
VStem: 72 172<144 650 144 650 144 650> 199 184<-173 -123>
LayerCount: 2
Back
Fore
SplineSet
72 0 m 1xf0
 72 650 l 1
 244 650 l 1
 244 144 l 1
 490 144 l 1
 490 0 l 1
 72 0 l 1xf0
291 -234 m 0xe8
 237 -234 199 -198 199 -148 c 0
 199 -98 237 -62 291 -62 c 0
 345 -62 383 -98 383 -148 c 0
 383 -198 345 -234 291 -234 c 0xe8
EndSplineSet
Validated: 1
Substitution2: "'c2sc' Capitals to Small Capitals lookup 17 subtable" uni1E36.sc
Substitution2: "'aalt' Access All Alternates lookup 0 subtable" uni1E36.sc
EndChar

StartChar: uni1E38
Encoding: 7736 7736 142
Width: 530
Flags: MW
HStem: -234 172<264 318> 0 144<244 490 244 490> 630 20G<72 244 244 244> 716 108<4 320 4 320>
VStem: 72 172<144 650 144 650 144 650> 199 184<-173 -123>
LayerCount: 2
Back
Fore
SplineSet
72 0 m 1xf8
 72 650 l 1
 244 650 l 1
 244 144 l 1
 490 144 l 1
 490 0 l 1
 72 0 l 1xf8
4 716 m 1
 4 824 l 1
 320 824 l 1
 320 716 l 1
 4 716 l 1
291 -234 m 0xf4
 237 -234 199 -198 199 -148 c 0
 199 -98 237 -62 291 -62 c 0
 345 -62 383 -98 383 -148 c 0
 383 -198 345 -234 291 -234 c 0xf4
EndSplineSet
Validated: 1
Substitution2: "'c2sc' Capitals to Small Capitals lookup 17 subtable" uni1E38.sc
Substitution2: "'aalt' Access All Alternates lookup 0 subtable" uni1E38.sc
EndChar

StartChar: uni1E3A
Encoding: 7738 7738 143
Width: 530
Flags: MW
HStem: -196 108<137 445 137 445> 0 144<244 490 244 490> 630 20G<72 244 244 244>
VStem: 72 172<144 650 144 650 144 650> 137 308<-196 -88 -196 -88>
LayerCount: 2
Back
Fore
SplineSet
72 0 m 1xf0
 72 650 l 1
 244 650 l 1
 244 144 l 1
 490 144 l 1
 490 0 l 1
 72 0 l 1xf0
137 -196 m 1xe8
 137 -88 l 1
 445 -88 l 1
 445 -196 l 1
 137 -196 l 1xe8
EndSplineSet
Validated: 1
Substitution2: "'c2sc' Capitals to Small Capitals lookup 17 subtable" uni1E3A.sc
Substitution2: "'aalt' Access All Alternates lookup 0 subtable" uni1E3A.sc
EndChar

StartChar: Lslash
Encoding: 321 321 144
Width: 538
Flags: MW
HStem: 0 144<252 498 252 498> 630 20G<80 252 252 252>
VStem: 80 172<144 198 198 198 410 650>
LayerCount: 2
Back
Fore
SplineSet
28 166 m 1
 -30 268 l 1
 80 331 l 1
 80 650 l 1
 252 650 l 1
 252 410 l 1
 402 494 l 1
 460 392 l 1
 252 277 l 1
 252 144 l 1
 498 144 l 1
 498 0 l 1
 80 0 l 1
 80 198 l 1
 28 166 l 1
EndSplineSet
Validated: 1
Substitution2: "'c2sc' Capitals to Small Capitals lookup 17 subtable" Lslash.sc
Substitution2: "'aalt' Access All Alternates lookup 0 subtable" Lslash.sc
EndChar

StartChar: uni1E3E
Encoding: 7742 7742 145
Width: 776
Flags: MW
HStem: 0 21G<72 72 72 226 548 548 548 704> 424 226<204 208 204 204 566 570 566 566> 630 20G<72 256 256 256 520 704 704 704>
VStem: 72 154<0 192 0 650> 548 156<0 192 192 225>
LayerCount: 2
Back
Fore
SplineSet
72 0 m 1xb8
 72 650 l 1
 256 650 l 1
 354 384 l 2
 366 348 376 308 388 270 c 1
 392 270 l 1
 404 308 414 348 426 384 c 2
 520 650 l 1
 704 650 l 1
 704 0 l 1
 548 0 l 1
 548 192 l 2
 548 258 562 359 570 424 c 1
 566 424 l 1
 512 268 l 1
 432 53 l 1
 340 53 l 1
 260 268 l 1
 208 424 l 1
 204 424 l 1xd8
 212 359 226 258 226 192 c 2
 226 0 l 1
 72 0 l 1xb8
380 674 m 1
 304 760 l 1
 486 904 l 1
 576 794 l 1
 380 674 l 1
EndSplineSet
Validated: 1
Substitution2: "'c2sc' Capitals to Small Capitals lookup 17 subtable" uni1E3E.sc
Substitution2: "'aalt' Access All Alternates lookup 0 subtable" uni1E3E.sc
EndChar

StartChar: uni1E40
Encoding: 7744 7744 146
Width: 776
Flags: MW
HStem: 0 21G<72 72 72 226 548 548 548 704> 424 226<204 208 204 204 566 570 566 566> 630 20G<72 256 256 256 520 704 704 704> 696 172<360 416>
VStem: 72 154<0 192 0 650> 292 192<757 807> 548 156<0 192 192 225>
LayerCount: 2
Back
Fore
SplineSet
72 0 m 1xba
 72 650 l 1
 256 650 l 1
 354 384 l 2
 366 348 376 308 388 270 c 1
 392 270 l 1
 404 308 414 348 426 384 c 2
 520 650 l 1
 704 650 l 1
 704 0 l 1
 548 0 l 1
 548 192 l 2
 548 258 562 359 570 424 c 1
 566 424 l 1
 512 268 l 1
 432 53 l 1
 340 53 l 1
 260 268 l 1
 208 424 l 1
 204 424 l 1xde
 212 359 226 258 226 192 c 2
 226 0 l 1
 72 0 l 1xba
388 696 m 0
 332 696 292 732 292 782 c 0
 292 832 332 868 388 868 c 0
 444 868 484 832 484 782 c 0
 484 732 444 696 388 696 c 0
EndSplineSet
Validated: 1
Substitution2: "'c2sc' Capitals to Small Capitals lookup 17 subtable" uni1E40.sc
Substitution2: "'aalt' Access All Alternates lookup 0 subtable" uni1E40.sc
EndChar

StartChar: uni1E42
Encoding: 7746 7746 147
Width: 776
Flags: MW
HStem: -234 172<363 417> 0 21G<72 72 72 226 548 548 548 704> 424 226<204 208 204 204 566 570 566 566> 630 20G<72 256 256 256 520 704 704 704>
VStem: 72 154<0 192 0 650> 298 184<-173 -123> 548 156<0 192 192 225>
LayerCount: 2
Back
Fore
SplineSet
72 0 m 1xda
 72 650 l 1
 256 650 l 1
 354 384 l 2
 366 348 376 308 388 270 c 1
 392 270 l 1
 404 308 414 348 426 384 c 2
 520 650 l 1
 704 650 l 1
 704 0 l 1
 548 0 l 1
 548 192 l 2
 548 258 562 359 570 424 c 1
 566 424 l 1
 512 268 l 1
 432 53 l 1
 340 53 l 1
 260 268 l 1
 208 424 l 1
 204 424 l 1xee
 212 359 226 258 226 192 c 2
 226 0 l 1
 72 0 l 1xda
390 -234 m 0
 336 -234 298 -198 298 -148 c 0
 298 -98 336 -62 390 -62 c 0
 444 -62 482 -98 482 -148 c 0
 482 -198 444 -234 390 -234 c 0
EndSplineSet
Validated: 1
Substitution2: "'c2sc' Capitals to Small Capitals lookup 17 subtable" uni1E42.sc
Substitution2: "'aalt' Access All Alternates lookup 0 subtable" uni1E42.sc
EndChar

StartChar: Nacute
Encoding: 323 323 148
Width: 672
Flags: MW
HStem: 0 21G<72 72 72 236 424 424 424 600> 630 20G<72 248 248 248 436 600 600 600>
VStem: 72 164<0 188 0 650> 436 164<462 650 0 650>
LayerCount: 2
Back
Fore
SplineSet
72 0 m 1
 72 650 l 1
 248 650 l 1
 392 360 l 1
 454 214 l 1
 458 214 l 1
 450 284 436 382 436 462 c 2
 436 650 l 1
 600 650 l 1
 600 0 l 1
 424 0 l 1
 280 291 l 1
 218 436 l 1
 214 436 l 1
 222 362 236 268 236 188 c 2
 236 0 l 1
 72 0 l 1
328 674 m 1
 252 760 l 1
 434 904 l 1
 524 794 l 1
 328 674 l 1
EndSplineSet
Validated: 1
Substitution2: "'c2sc' Capitals to Small Capitals lookup 17 subtable" Nacute.sc
Substitution2: "'aalt' Access All Alternates lookup 0 subtable" Nacute.sc
EndChar

StartChar: uni01F8
Encoding: 504 504 149
Width: 672
Flags: MW
HStem: 0 21G<72 72 72 236 424 424 424 600> 630 20G<72 248 248 248 436 600 600 600>
VStem: 72 164<0 188 0 650> 436 164<462 650 0 650>
LayerCount: 2
Back
Fore
SplineSet
72 0 m 1
 72 650 l 1
 248 650 l 1
 392 360 l 1
 454 214 l 1
 458 214 l 1
 450 284 436 382 436 462 c 2
 436 650 l 1
 600 650 l 1
 600 0 l 1
 424 0 l 1
 280 291 l 1
 218 436 l 1
 214 436 l 1
 222 362 236 268 236 188 c 2
 236 0 l 1
 72 0 l 1
344 674 m 1
 148 794 l 1
 238 904 l 1
 420 760 l 1
 344 674 l 1
EndSplineSet
Validated: 1
Substitution2: "'c2sc' Capitals to Small Capitals lookup 17 subtable" uni01F8.sc
Substitution2: "'aalt' Access All Alternates lookup 0 subtable" uni01F8.sc
EndChar

StartChar: Ncaron
Encoding: 327 327 150
Width: 672
Flags: MW
HStem: 0 21G<72 72 72 236 424 424 424 600> 630 20G<72 248 248 248 436 600 600 600> 700 74<334 338 334 430>
VStem: 72 164<0 188 0 650> 436 164<462 650 0 650>
LayerCount: 2
Back
Fore
SplineSet
72 0 m 1
 72 650 l 1
 248 650 l 1
 392 360 l 1
 454 214 l 1
 458 214 l 1
 450 284 436 382 436 462 c 2
 436 650 l 1
 600 650 l 1
 600 0 l 1
 424 0 l 1
 280 291 l 1
 218 436 l 1
 214 436 l 1
 222 362 236 268 236 188 c 2
 236 0 l 1
 72 0 l 1
242 700 m 1
 158 810 l 1
 232 854 l 1
 334 774 l 1
 338 774 l 1
 440 854 l 1
 514 810 l 1
 430 700 l 1
 242 700 l 1
EndSplineSet
Validated: 1
Substitution2: "'c2sc' Capitals to Small Capitals lookup 17 subtable" Ncaron.sc
Substitution2: "'aalt' Access All Alternates lookup 0 subtable" Ncaron.sc
EndChar

StartChar: Ntilde
Encoding: 209 209 151
Width: 672
Flags: MW
HStem: 0 21G<72 72 72 236 424 424 424 600> 630 20G<72 248 248 248 436 600 600 600> 686 118<386 408 386 442.5> 738 118<264 286>
VStem: 72 164<0 188 0 650> 130 110<696 704> 432 110<838 846> 436 164<462 650 0 650>
LayerCount: 2
Back
Fore
SplineSet
72 0 m 1xd9
 72 650 l 1
 248 650 l 1
 392 360 l 1
 454 214 l 1
 458 214 l 1
 450 284 436 382 436 462 c 2
 436 650 l 1
 600 650 l 1
 600 0 l 1
 424 0 l 1
 280 291 l 1
 218 436 l 1
 214 436 l 1
 222 362 236 268 236 188 c 2
 236 0 l 1
 72 0 l 1xd9
406 686 m 0xea
 336 686 300 738 272 738 c 0
 256 738 244 730 240 696 c 1
 130 704 l 1
 136 814 193 856 266 856 c 0xd5
 336 856 372 804 400 804 c 0
 416 804 428 812 432 846 c 1
 542 838 l 1
 536 728 479 686 406 686 c 0xea
EndSplineSet
Validated: 1
Substitution2: "'c2sc' Capitals to Small Capitals lookup 17 subtable" Ntilde.sc
Substitution2: "'aalt' Access All Alternates lookup 0 subtable" Ntilde.sc
EndChar

StartChar: uni0145
Encoding: 325 325 152
Width: 672
Flags: MW
HStem: -244 66<230 242> -110 60<270 302> 0 21G<72 72 72 236 424 424 424 600> 630 20G<72 248 248 248 436 600 600 600>
VStem: 72 164<0 188 0 650> 330 122<-153 -134> 436 164<462 650 0 650>
LayerCount: 2
Back
Fore
SplineSet
72 0 m 1xfa
 72 650 l 1
 248 650 l 1
 392 360 l 1
 454 214 l 1
 458 214 l 1
 450 284 436 382 436 462 c 2
 436 650 l 1
 600 650 l 1
 600 0 l 1
 424 0 l 1
 280 291 l 1
 218 436 l 1
 214 436 l 1
 222 362 236 268 236 188 c 2
 236 0 l 1
 72 0 l 1xfa
242 -244 m 1
 230 -178 l 1
 306 -174 330 -164 330 -142 c 0
 330 -126 314 -114 270 -110 c 1
 302 -50 l 1
 416 -58 452 -86 452 -136 c 0xfc
 452 -208 374 -240 242 -244 c 1
EndSplineSet
Validated: 1
Substitution2: "'c2sc' Capitals to Small Capitals lookup 17 subtable" uni0145.sc
Substitution2: "'aalt' Access All Alternates lookup 0 subtable" uni0145.sc
EndChar

StartChar: uni1E44
Encoding: 7748 7748 153
Width: 672
Flags: MW
HStem: 0 21G<72 72 72 236 424 424 424 600> 630 20G<72 248 248 248 436 600 600 600> 696 172<308 364>
VStem: 72 164<0 188 0 650> 240 192<757 807> 436 164<462 650 0 650>
LayerCount: 2
Back
Fore
SplineSet
72 0 m 1
 72 650 l 1
 248 650 l 1
 392 360 l 1
 454 214 l 1
 458 214 l 1
 450 284 436 382 436 462 c 2
 436 650 l 1
 600 650 l 1
 600 0 l 1
 424 0 l 1
 280 291 l 1
 218 436 l 1
 214 436 l 1
 222 362 236 268 236 188 c 2
 236 0 l 1
 72 0 l 1
336 696 m 0xe8
 280 696 240 732 240 782 c 0
 240 832 280 868 336 868 c 0
 392 868 432 832 432 782 c 0
 432 732 392 696 336 696 c 0xe8
EndSplineSet
Validated: 1
Substitution2: "'c2sc' Capitals to Small Capitals lookup 17 subtable" uni1E44.sc
Substitution2: "'aalt' Access All Alternates lookup 0 subtable" uni1E44.sc
EndChar

StartChar: uni1E46
Encoding: 7750 7750 154
Width: 672
Flags: MW
HStem: -234 172<323 377> 0 21G<72 72 72 236 424 424 424 600> 630 20G<72 248 248 248 436 600 600 600>
VStem: 72 164<0 188 0 650> 258 184<-173 -123> 436 164<462 650 0 650>
LayerCount: 2
Back
Fore
SplineSet
72 0 m 1xf4
 72 650 l 1
 248 650 l 1
 392 360 l 1
 454 214 l 1
 458 214 l 1
 450 284 436 382 436 462 c 2
 436 650 l 1
 600 650 l 1
 600 0 l 1
 424 0 l 1
 280 291 l 1
 218 436 l 1
 214 436 l 1
 222 362 236 268 236 188 c 2
 236 0 l 1
 72 0 l 1xf4
350 -234 m 0xf8
 296 -234 258 -198 258 -148 c 0
 258 -98 296 -62 350 -62 c 0
 404 -62 442 -98 442 -148 c 0
 442 -198 404 -234 350 -234 c 0xf8
EndSplineSet
Validated: 1
Substitution2: "'c2sc' Capitals to Small Capitals lookup 17 subtable" uni1E46.sc
Substitution2: "'aalt' Access All Alternates lookup 0 subtable" uni1E46.sc
EndChar

StartChar: uni1E48
Encoding: 7752 7752 155
Width: 672
Flags: MW
HStem: -196 108<196 504 196 504> 0 21G<72 72 72 236 424 424 424 600> 630 20G<72 248 248 248 436 600 600 600>
VStem: 72 164<0 188 0 650> 196 308<-196 -88 -196 -88> 436 164<462 650 0 650>
LayerCount: 2
Back
Fore
SplineSet
72 0 m 1xf4
 72 650 l 1
 248 650 l 1
 392 360 l 1
 454 214 l 1
 458 214 l 1
 450 284 436 382 436 462 c 2
 436 650 l 1
 600 650 l 1
 600 0 l 1
 424 0 l 1
 280 291 l 1
 218 436 l 1
 214 436 l 1
 222 362 236 268 236 188 c 2
 236 0 l 1
 72 0 l 1xf4
196 -196 m 1
 196 -88 l 1xf4
 504 -88 l 1
 504 -196 l 1xe8
 196 -196 l 1
EndSplineSet
Validated: 1
Substitution2: "'c2sc' Capitals to Small Capitals lookup 17 subtable" uni1E48.sc
Substitution2: "'aalt' Access All Alternates lookup 0 subtable" uni1E48.sc
EndChar

StartChar: Ograve
Encoding: 210 210 156
Width: 692
Flags: MW
HStem: -12 148<307 385 307 436> 514 148<307 385>
VStem: 44 176<269 387 269 435> 472 176<269 387>
LayerCount: 2
Back
Fore
SplineSet
346 -12 m 0
 166 -12 44 114 44 328 c 0
 44 542 166 662 346 662 c 0
 526 662 648 541 648 328 c 0
 648 114 526 -12 346 -12 c 0
346 136 m 0
 424 136 472 210 472 328 c 0
 472 446 424 514 346 514 c 0
 268 514 220 446 220 328 c 0
 220 210 268 136 346 136 c 0
354 674 m 1
 158 794 l 1
 248 904 l 1
 430 760 l 1
 354 674 l 1
EndSplineSet
Validated: 1
Substitution2: "'c2sc' Capitals to Small Capitals lookup 17 subtable" Ograve.sc
Substitution2: "'aalt' Access All Alternates lookup 0 subtable" Ograve.sc
EndChar

StartChar: Oacute
Encoding: 211 211 157
Width: 692
Flags: MW
HStem: -12 148<307 385 307 436> 514 148<307 385>
VStem: 44 176<269 387 269 435> 472 176<269 387>
LayerCount: 2
Back
Fore
SplineSet
346 -12 m 0
 166 -12 44 114 44 328 c 0
 44 542 166 662 346 662 c 0
 526 662 648 541 648 328 c 0
 648 114 526 -12 346 -12 c 0
346 136 m 0
 424 136 472 210 472 328 c 0
 472 446 424 514 346 514 c 0
 268 514 220 446 220 328 c 0
 220 210 268 136 346 136 c 0
338 674 m 1
 262 760 l 1
 444 904 l 1
 534 794 l 1
 338 674 l 1
EndSplineSet
Validated: 1
Substitution2: "'c2sc' Capitals to Small Capitals lookup 17 subtable" Oacute.sc
Substitution2: "'aalt' Access All Alternates lookup 0 subtable" Oacute.sc
EndChar

StartChar: Ocircumflex
Encoding: 212 212 158
Width: 692
Flags: MW
HStem: -12 148<307 385 307 436> 514 148<307 385> 760 74<344 348 344 344>
VStem: 44 176<269 387 269 435> 472 176<269 387>
LayerCount: 2
Back
Fore
SplineSet
346 -12 m 0
 166 -12 44 114 44 328 c 0
 44 542 166 662 346 662 c 0
 526 662 648 541 648 328 c 0
 648 114 526 -12 346 -12 c 0
346 136 m 0
 424 136 472 210 472 328 c 0
 472 446 424 514 346 514 c 0
 268 514 220 446 220 328 c 0
 220 210 268 136 346 136 c 0
168 724 m 1
 252 834 l 1
 440 834 l 1
 524 724 l 1
 450 680 l 1
 348 760 l 1
 344 760 l 1
 242 680 l 1
 168 724 l 1
EndSplineSet
Validated: 1
Substitution2: "'c2sc' Capitals to Small Capitals lookup 17 subtable" Ocircumflex.sc
MultipleSubs2: "Multiple Substitution lookup 7 subtable" O uni0302
Substitution2: "'aalt' Access All Alternates lookup 0 subtable" Ocircumflex.sc
EndChar

StartChar: Otilde
Encoding: 213 213 159
Width: 692
Flags: MW
HStem: -12 148<307 385 307 436> 514 148<307 385> 686 118<396 418 396 452.5> 738 118<274 296>
VStem: 44 176<269 387 269 435> 140 110<696 704> 442 110<838 846> 472 176<269 387>
LayerCount: 2
Back
Fore
SplineSet
346 -12 m 0xd9
 166 -12 44 114 44 328 c 0
 44 542 166 662 346 662 c 0
 526 662 648 541 648 328 c 0
 648 114 526 -12 346 -12 c 0xd9
346 136 m 0
 424 136 472 210 472 328 c 0
 472 446 424 514 346 514 c 0
 268 514 220 446 220 328 c 0
 220 210 268 136 346 136 c 0
416 686 m 0xea
 346 686 310 738 282 738 c 0
 266 738 254 730 250 696 c 1
 140 704 l 1
 146 814 203 856 276 856 c 0xd5
 346 856 382 804 410 804 c 0
 426 804 438 812 442 846 c 1
 552 838 l 1
 546 728 489 686 416 686 c 0xea
EndSplineSet
Validated: 1
Substitution2: "'c2sc' Capitals to Small Capitals lookup 17 subtable" Otilde.sc
Substitution2: "'aalt' Access All Alternates lookup 0 subtable" Otilde.sc
EndChar

StartChar: Odieresis
Encoding: 214 214 160
Width: 692
Flags: MW
HStem: -12 148<307 385 307 436> 514 148<307 385> 694 156<209 255 437 483>
VStem: 44 176<269 387 269 435> 154 156<750 794> 382 156<750 794> 472 176<269 387>
LayerCount: 2
Back
Fore
SplineSet
346 -12 m 0xf2
 166 -12 44 114 44 328 c 0
 44 542 166 662 346 662 c 0
 526 662 648 541 648 328 c 0
 648 114 526 -12 346 -12 c 0xf2
346 136 m 0
 424 136 472 210 472 328 c 0
 472 446 424 514 346 514 c 0
 268 514 220 446 220 328 c 0
 220 210 268 136 346 136 c 0
232 694 m 0xec
 186 694 154 728 154 772 c 0
 154 816 186 850 232 850 c 0
 278 850 310 816 310 772 c 0
 310 728 278 694 232 694 c 0xec
460 694 m 0
 414 694 382 728 382 772 c 0
 382 816 414 850 460 850 c 0
 506 850 538 816 538 772 c 0
 538 728 506 694 460 694 c 0
EndSplineSet
Validated: 1
Substitution2: "'c2sc' Capitals to Small Capitals lookup 17 subtable" Odieresis.sc
Substitution2: "'aalt' Access All Alternates lookup 0 subtable" Odieresis.sc
EndChar

StartChar: Omacron
Encoding: 332 332 161
Width: 692
Flags: MW
HStem: -12 148<307 385 307 436> 514 148<307 385> 716 108<188 504 188 504>
VStem: 44 176<269 387 269 435> 188 316<716 824 716 824> 472 176<269 387>
LayerCount: 2
Back
Fore
SplineSet
346 -12 m 0xf4
 166 -12 44 114 44 328 c 0
 44 542 166 662 346 662 c 0
 526 662 648 541 648 328 c 0
 648 114 526 -12 346 -12 c 0xf4
346 136 m 0
 424 136 472 210 472 328 c 0
 472 446 424 514 346 514 c 0
 268 514 220 446 220 328 c 0
 220 210 268 136 346 136 c 0
188 716 m 1xe8
 188 824 l 1
 504 824 l 1
 504 716 l 1
 188 716 l 1xe8
EndSplineSet
Validated: 1
Substitution2: "'c2sc' Capitals to Small Capitals lookup 17 subtable" Omacron.sc
MultipleSubs2: "Multiple Substitution lookup 7 subtable" O uni0304
Substitution2: "'aalt' Access All Alternates lookup 0 subtable" Omacron.sc
EndChar

StartChar: Ohungarumlaut
Encoding: 336 336 162
Width: 692
Flags: MW
HStem: -12 148<307 385 307 436> 514 148<307 385>
VStem: 44 176<269 387 269 435> 472 176<269 387>
LayerCount: 2
Back
Fore
SplineSet
346 -12 m 0
 166 -12 44 114 44 328 c 0
 44 542 166 662 346 662 c 0
 526 662 648 541 648 328 c 0
 648 114 526 -12 346 -12 c 0
346 136 m 0
 424 136 472 210 472 328 c 0
 472 446 424 514 346 514 c 0
 268 514 220 446 220 328 c 0
 220 210 268 136 346 136 c 0
198 730 m 1
 302 894 l 1
 410 834 l 1
 282 690 l 1
 198 730 l 1
396 730 m 1
 500 894 l 1
 608 834 l 1
 480 690 l 1
 396 730 l 1
EndSplineSet
Validated: 1
Substitution2: "'c2sc' Capitals to Small Capitals lookup 17 subtable" Ohungarumlaut.sc
Substitution2: "'aalt' Access All Alternates lookup 0 subtable" Ohungarumlaut.sc
EndChar

StartChar: uni01D1
Encoding: 465 465 163
Width: 692
Flags: MW
HStem: -12 148<307 385 307 436> 514 148<307 385> 700 74<344 348 344 440>
VStem: 44 176<269 387 269 435> 472 176<269 387>
LayerCount: 2
Back
Fore
SplineSet
346 -12 m 0
 166 -12 44 114 44 328 c 0
 44 542 166 662 346 662 c 0
 526 662 648 541 648 328 c 0
 648 114 526 -12 346 -12 c 0
346 136 m 0
 424 136 472 210 472 328 c 0
 472 446 424 514 346 514 c 0
 268 514 220 446 220 328 c 0
 220 210 268 136 346 136 c 0
252 700 m 1
 168 810 l 1
 242 854 l 1
 344 774 l 1
 348 774 l 1
 450 854 l 1
 524 810 l 1
 440 700 l 1
 252 700 l 1
EndSplineSet
Validated: 1
Substitution2: "'c2sc' Capitals to Small Capitals lookup 17 subtable" uni01D1.sc
Substitution2: "'aalt' Access All Alternates lookup 0 subtable" uni01D1.sc
EndChar

StartChar: uni1ECC
Encoding: 7884 7884 164
Width: 692
Flags: MW
HStem: -234 172<319 373> -12 148<307 385 307 436> 514 148<307 385>
VStem: 44 176<269 387 269 435> 254 184<-173 -123> 472 176<269 387>
LayerCount: 2
Back
Fore
SplineSet
346 -12 m 0
 166 -12 44 114 44 328 c 0
 44 542 166 662 346 662 c 0
 526 662 648 541 648 328 c 0
 648 114 526 -12 346 -12 c 0
346 136 m 0
 424 136 472 210 472 328 c 0
 472 446 424 514 346 514 c 0
 268 514 220 446 220 328 c 0
 220 210 268 136 346 136 c 0
346 -234 m 0
 292 -234 254 -198 254 -148 c 0
 254 -98 292 -62 346 -62 c 0
 400 -62 438 -98 438 -148 c 0
 438 -198 400 -234 346 -234 c 0
EndSplineSet
Validated: 1
Substitution2: "'c2sc' Capitals to Small Capitals lookup 17 subtable" uni1ECC.sc
Substitution2: "'aalt' Access All Alternates lookup 0 subtable" uni1ECC.sc
EndChar

StartChar: uni1ECE
Encoding: 7886 7886 165
Width: 692
Flags: MW
HStem: -12 148<307 385 307 436> 514 148<307 385> 808 84<248 268>
VStem: 44 176<269 387 269 435> 326 122<770 786> 472 176<269 387>
LayerCount: 2
Back
Fore
SplineSet
346 -12 m 0
 166 -12 44 114 44 328 c 0
 44 542 166 662 346 662 c 0
 526 662 648 541 648 328 c 0
 648 114 526 -12 346 -12 c 0
346 136 m 0
 424 136 472 210 472 328 c 0
 472 446 424 514 346 514 c 0
 268 514 220 446 220 328 c 0
 220 210 268 136 346 136 c 0
298 688 m 1
 286 754 l 1
 308 757 326 762 326 778 c 0
 326 794 306 804 248 808 c 1
 268 892 l 1
 406 888 448 850 448 796 c 0xfc
 448 724 380 692 298 688 c 1
EndSplineSet
Validated: 1
Substitution2: "'c2sc' Capitals to Small Capitals lookup 17 subtable" uni1ECE.sc
Substitution2: "'aalt' Access All Alternates lookup 0 subtable" uni1ECE.sc
EndChar

StartChar: uni1ED0
Encoding: 7888 7888 166
Width: 692
Flags: MW
HStem: -12 148<307 385 307 436> 514 148<307 385> 752 76<344 348 344 344>
VStem: 44 176<269 387 269 435> 472 176<269 387>
LayerCount: 2
Back
Fore
SplineSet
346 -12 m 0
 166 -12 44 114 44 328 c 0
 44 542 166 662 346 662 c 0
 526 662 648 541 648 328 c 0
 648 114 526 -12 346 -12 c 0
346 136 m 0
 424 136 472 210 472 328 c 0
 472 446 424 514 346 514 c 0
 268 514 220 446 220 328 c 0
 220 210 268 136 346 136 c 0
252 680 m 1
 184 724 l 1
 272 828 l 1
 420 828 l 1
 508 724 l 1
 440 680 l 1
 348 752 l 1
 344 752 l 1
 252 680 l 1
510 758 m 1
 460 814 l 1
 562 898 l 1
 616 830 l 1
 510 758 l 1
EndSplineSet
Validated: 1
Substitution2: "'c2sc' Capitals to Small Capitals lookup 17 subtable" uni1ED0.sc
Substitution2: "'aalt' Access All Alternates lookup 0 subtable" uni1ED0.sc
EndChar

StartChar: uni1ED2
Encoding: 7890 7890 167
Width: 692
Flags: MW
HStem: -12 148<307 385 307 436> 514 148<307 385> 752 76<344 348 344 344>
VStem: 44 176<269 387 269 435> 472 176<269 387>
LayerCount: 2
Back
Fore
SplineSet
346 -12 m 0
 166 -12 44 114 44 328 c 0
 44 542 166 662 346 662 c 0
 526 662 648 541 648 328 c 0
 648 114 526 -12 346 -12 c 0
346 136 m 0
 424 136 472 210 472 328 c 0
 472 446 424 514 346 514 c 0
 268 514 220 446 220 328 c 0
 220 210 268 136 346 136 c 0
252 680 m 1
 184 724 l 1
 272 828 l 1
 420 828 l 1
 508 724 l 1
 440 680 l 1
 348 752 l 1
 344 752 l 1
 252 680 l 1
232 814 m 1
 182 758 l 1
 76 830 l 1
 130 898 l 1
 232 814 l 1
EndSplineSet
Validated: 1
Substitution2: "'c2sc' Capitals to Small Capitals lookup 17 subtable" uni1ED2.sc
Substitution2: "'aalt' Access All Alternates lookup 0 subtable" uni1ED2.sc
EndChar

StartChar: uni1ED4
Encoding: 7892 7892 168
Width: 692
Flags: MW
HStem: -12 148<307 385 307 436> 514 148<307 385> 752 76<344 348 344 344> 854 68<444 460>
VStem: 44 176<269 387 269 435> 472 176<269 387> 508 108<724 860 816 832>
LayerCount: 2
Back
Fore
SplineSet
346 -12 m 0xec
 166 -12 44 114 44 328 c 0
 44 542 166 662 346 662 c 0
 526 662 648 541 648 328 c 0
 648 114 526 -12 346 -12 c 0xec
346 136 m 0
 424 136 472 210 472 328 c 0
 472 446 424 514 346 514 c 0
 268 514 220 446 220 328 c 0
 220 210 268 136 346 136 c 0
252 680 m 1
 184 724 l 1
 272 828 l 1
 420 828 l 1
 508 724 l 1
 440 680 l 1
 348 752 l 1
 344 752 l 1
 252 680 l 1
492 748 m 1
 480 800 l 1xea
 496 803 508 808 508 824 c 0
 508 840 495 850 444 854 c 1
 460 922 l 1xfa
 582 918 616 882 616 838 c 0xea
 616 776 563 752 492 748 c 1
EndSplineSet
Validated: 1
Substitution2: "'c2sc' Capitals to Small Capitals lookup 17 subtable" uni1ED4.sc
Substitution2: "'aalt' Access All Alternates lookup 0 subtable" uni1ED4.sc
EndChar

StartChar: uni1ED6
Encoding: 7894 7894 169
Width: 692
Flags: MW
HStem: -12 148<307 385 307 436> 514 148<307 385> 742 76<344 348 344 344> 838 92<381 400 381 432> 880 92<292 311>
VStem: 44 176<269 387 269 435> 190 80<844 854> 422 80<956 966> 472 176<269 387>
LayerCount: 2
Back
Fore
SplineSet
346 -12 m 0xec80
 166 -12 44 114 44 328 c 0
 44 542 166 662 346 662 c 0
 526 662 648 541 648 328 c 0
 648 114 526 -12 346 -12 c 0xec80
346 136 m 0
 424 136 472 210 472 328 c 0
 472 446 424 514 346 514 c 0
 268 514 220 446 220 328 c 0
 220 210 268 136 346 136 c 0
252 680 m 1
 184 724 l 1
 272 818 l 1
 420 818 l 1
 508 724 l 1
 440 680 l 1
 348 742 l 1
 344 742 l 1
 252 680 l 1
190 854 m 1xea80
 194 939 232 972 288 972 c 0xea80
 340 972 370 930 392 930 c 0
 408 930 418 940 422 966 c 1
 502 956 l 1
 498 871 460 838 404 838 c 0xf5
 352 838 322 880 300 880 c 0
 284 880 274 870 270 844 c 1
 190 854 l 1xea80
EndSplineSet
Validated: 1
Substitution2: "'c2sc' Capitals to Small Capitals lookup 17 subtable" uni1ED6.sc
Substitution2: "'aalt' Access All Alternates lookup 0 subtable" uni1ED6.sc
EndChar

StartChar: uni1ED8
Encoding: 7896 7896 170
Width: 692
Flags: MW
HStem: -234 172<319 373> -12 148<307 385 307 436> 514 148<307 385> 760 74<344 348 344 344>
VStem: 44 176<269 387 269 435> 254 184<-173 -123> 472 176<269 387>
LayerCount: 2
Back
Fore
SplineSet
346 -12 m 0
 166 -12 44 114 44 328 c 0
 44 542 166 662 346 662 c 0
 526 662 648 541 648 328 c 0
 648 114 526 -12 346 -12 c 0
346 136 m 0
 424 136 472 210 472 328 c 0
 472 446 424 514 346 514 c 0
 268 514 220 446 220 328 c 0
 220 210 268 136 346 136 c 0
168 724 m 1
 252 834 l 1
 440 834 l 1
 524 724 l 1
 450 680 l 1
 348 760 l 1
 344 760 l 1
 242 680 l 1
 168 724 l 1
346 -234 m 0
 292 -234 254 -198 254 -148 c 0
 254 -98 292 -62 346 -62 c 0
 400 -62 438 -98 438 -148 c 0
 438 -198 400 -234 346 -234 c 0
EndSplineSet
Validated: 1
Substitution2: "'c2sc' Capitals to Small Capitals lookup 17 subtable" uni1ED8.sc
Substitution2: "'aalt' Access All Alternates lookup 0 subtable" uni1ED8.sc
EndChar

StartChar: uni014E
Encoding: 334 334 171
Width: 692
Flags: MW
HStem: -12 148<307 385 307 436> 514 148<307 385> 694 98<326 366 326 397>
VStem: 44 176<269 387 269 435> 472 176<269 387>
LayerCount: 2
Back
Fore
SplineSet
346 -12 m 0
 166 -12 44 114 44 328 c 0
 44 542 166 662 346 662 c 0
 526 662 648 541 648 328 c 0
 648 114 526 -12 346 -12 c 0
346 136 m 0
 424 136 472 210 472 328 c 0
 472 446 424 514 346 514 c 0
 268 514 220 446 220 328 c 0
 220 210 268 136 346 136 c 0
346 694 m 0
 244 694 186 738 176 834 c 1
 268 850 l 1
 277 811 306 792 346 792 c 0
 386 792 415 811 424 850 c 1
 516 834 l 1
 506 738 448 694 346 694 c 0
EndSplineSet
Validated: 1
Substitution2: "'c2sc' Capitals to Small Capitals lookup 17 subtable" uni014E.sc
Substitution2: "'aalt' Access All Alternates lookup 0 subtable" uni014E.sc
EndChar

StartChar: uni1E52
Encoding: 7762 7762 172
Width: 692
Flags: MW
HStem: -12 148<307 385 307 436> 514 148<307 385> 716 108<188 504 188 504>
VStem: 44 176<269 387 269 435> 188 316<716 824 716 824> 472 176<269 387>
LayerCount: 2
Back
Fore
SplineSet
346 -12 m 0xf4
 166 -12 44 114 44 328 c 0
 44 542 166 662 346 662 c 0
 526 662 648 541 648 328 c 0
 648 114 526 -12 346 -12 c 0xf4
346 136 m 0
 424 136 472 210 472 328 c 0
 472 446 424 514 346 514 c 0
 268 514 220 446 220 328 c 0
 220 210 268 136 346 136 c 0
310 836 m 1
 254 914 l 1
 422 1022 l 1
 490 928 l 1
 310 836 l 1
188 716 m 1xe8
 188 824 l 1
 504 824 l 1
 504 716 l 1
 188 716 l 1xe8
EndSplineSet
Validated: 1
Substitution2: "'c2sc' Capitals to Small Capitals lookup 17 subtable" uni1E52.sc
Substitution2: "'aalt' Access All Alternates lookup 0 subtable" uni1E52.sc
EndChar

StartChar: Oslash
Encoding: 216 216 173
Width: 692
GlyphClass: 2
Flags: MW
HStem: -12 148<335 385 335 436> 514 148<307 360>
VStem: 44 176<314.5 387 314.5 435> 472 176<269 336.5>
AnchorPoint: "Anchor-1" 356 672 basechar 0
LayerCount: 2
Back
Fore
SplineSet
346 -12 m 0
 285 -12 231 2 186 30 c 1
 124 -46 l 1
 36 22 l 1
 105 106 l 1
 66 162 44 237 44 328 c 0
 44 542 166 662 346 662 c 0
 413 662 472 645 520 613 c 1
 588 696 l 1
 676 628 l 1
 597 532 l 1
 630 479 648 410 648 328 c 0
 648 114 526 -12 346 -12 c 0
220 328 m 0
 220 301 222 277 227 255 c 1
 418 488 l 1
 398 505 374 514 346 514 c 0
 268 514 220 446 220 328 c 0
346 136 m 0
 424 136 472 210 472 328 c 0
 472 345 471 361 469 375 c 1
 287 153 l 1
 304 142 324 136 346 136 c 0
EndSplineSet
Validated: 1
Substitution2: "'c2sc' Capitals to Small Capitals lookup 17 subtable" Oslash.sc
Substitution2: "'aalt' Access All Alternates lookup 0 subtable" Oslash.sc
EndChar

StartChar: OE
Encoding: 338 338 174
Width: 880
GlyphClass: 2
Flags: MW
HStem: 0 138<284 408 394 408 394 826> 0 144<580 826 580 826> 260 144<580 780 580 780> 506 144<580 816 580 580> 512 138<384 394 394 408>
VStem: 44 176<251 405 251 443> 408 172<144 260 404 506>
AnchorPoint: "Anchor-1" 528 672 basechar 0
LayerCount: 2
Back
Fore
SplineSet
374 0 m 2x76
 194 0 44 98 44 328 c 0
 44 558 194 650 384 650 c 2
 816 650 l 1
 816 506 l 1
 580 506 l 1
 580 404 l 1
 780 404 l 1
 780 260 l 1
 580 260 l 1
 580 144 l 1
 826 144 l 1
 826 0 l 1
 374 0 l 2x76
394 138 m 2xae
 408 138 l 1
 408 512 l 1
 394 512 l 2
 297 512 220 482 220 328 c 0
 220 174 297 138 394 138 c 2xae
EndSplineSet
Validated: 1
Substitution2: "'c2sc' Capitals to Small Capitals lookup 17 subtable" OE.sc
Substitution2: "'aalt' Access All Alternates lookup 0 subtable" OE.sc
EndChar

StartChar: Ohorn
Encoding: 416 416 175
Width: 692
GlyphClass: 2
Flags: MW
HStem: -12 148<307 385 307 436> 514 148<307 372.5 256 385>
VStem: 44 176<269 387 269 435> 472 176<269 381.5 221 387> 540 142<678.5 714>
AnchorPoint: "Anchor-4" 346 -22 basechar 0
AnchorPoint: "Anchor-1" 346 672 basechar 0
LayerCount: 2
Back
Fore
SplineSet
346 -12 m 0xf0
 166 -12 44 114 44 328 c 0
 44 542 166 662 346 662 c 0
 399 662 447 651 489 631 c 1
 521 643 540 657 540 700 c 0
 540 728 531 753 524 768 c 1
 650 818 l 1
 666 796 682 756 682 712 c 0xe8
 682 638 644 598 563 576 c 1
 617 519 648 435 648 328 c 0
 648 114 526 -12 346 -12 c 0xf0
346 136 m 0
 424 136 472 210 472 328 c 0
 472 446 424 514 346 514 c 0
 268 514 220 446 220 328 c 0
 220 210 268 136 346 136 c 0
EndSplineSet
Validated: 1
Substitution2: "'c2sc' Capitals to Small Capitals lookup 17 subtable" Ohorn.sc
Substitution2: "'aalt' Access All Alternates lookup 0 subtable" Ohorn.sc
EndChar

StartChar: uni1EDA
Encoding: 7898 7898 176
Width: 692
Flags: MW
HStem: -12 148<307 385 307 436> 514 148<307 372.5 256 385>
VStem: 44 176<269 387 269 435> 472 176<269 381.5 221 387> 540 142<678.5 714>
LayerCount: 2
Back
Fore
SplineSet
346 -12 m 0xf0
 166 -12 44 114 44 328 c 0
 44 542 166 662 346 662 c 0
 399 662 447 651 489 631 c 1
 521 643 540 657 540 700 c 0
 540 728 531 753 524 768 c 1
 650 818 l 1
 666 796 682 756 682 712 c 0xe8
 682 638 644 598 563 576 c 1
 617 519 648 435 648 328 c 0
 648 114 526 -12 346 -12 c 0xf0
346 136 m 0
 424 136 472 210 472 328 c 0
 472 446 424 514 346 514 c 0
 268 514 220 446 220 328 c 0
 220 210 268 136 346 136 c 0
338 674 m 1
 262 760 l 1
 444 904 l 1
 534 794 l 1
 338 674 l 1
EndSplineSet
Validated: 1
Substitution2: "'c2sc' Capitals to Small Capitals lookup 17 subtable" uni1EDA.sc
Substitution2: "'aalt' Access All Alternates lookup 0 subtable" uni1EDA.sc
EndChar

StartChar: uni1EDC
Encoding: 7900 7900 177
Width: 692
Flags: MW
HStem: -12 148<307 385 307 436> 514 148<307 372.5 256 385>
VStem: 44 176<269 387 269 435> 472 176<269 381.5 221 387> 540 142<678.5 714>
LayerCount: 2
Back
Fore
SplineSet
346 -12 m 0xf0
 166 -12 44 114 44 328 c 0
 44 542 166 662 346 662 c 0
 399 662 447 651 489 631 c 1
 521 643 540 657 540 700 c 0
 540 728 531 753 524 768 c 1
 650 818 l 1
 666 796 682 756 682 712 c 0xe8
 682 638 644 598 563 576 c 1
 617 519 648 435 648 328 c 0
 648 114 526 -12 346 -12 c 0xf0
346 136 m 0
 424 136 472 210 472 328 c 0
 472 446 424 514 346 514 c 0
 268 514 220 446 220 328 c 0
 220 210 268 136 346 136 c 0
354 674 m 1
 158 794 l 1
 248 904 l 1
 430 760 l 1
 354 674 l 1
EndSplineSet
Validated: 1
Substitution2: "'c2sc' Capitals to Small Capitals lookup 17 subtable" uni1EDC.sc
Substitution2: "'aalt' Access All Alternates lookup 0 subtable" uni1EDC.sc
EndChar

StartChar: uni1EDE
Encoding: 7902 7902 178
Width: 692
Flags: MW
HStem: -12 148<307 385 307 436> 514 148<307 372.5 256 385> 808 84<248 268>
VStem: 44 176<269 387 269 435> 326 122<770 786> 472 176<269 381.5 221 387> 540 142<678.5 714>
LayerCount: 2
Back
Fore
SplineSet
346 -12 m 0xf4
 166 -12 44 114 44 328 c 0
 44 542 166 662 346 662 c 0
 399 662 447 651 489 631 c 1
 521 643 540 657 540 700 c 0
 540 728 531 753 524 768 c 1
 650 818 l 1
 666 796 682 756 682 712 c 0xf2
 682 638 644 598 563 576 c 1
 617 519 648 435 648 328 c 0
 648 114 526 -12 346 -12 c 0xf4
346 136 m 0
 424 136 472 210 472 328 c 0
 472 446 424 514 346 514 c 0
 268 514 220 446 220 328 c 0
 220 210 268 136 346 136 c 0
298 688 m 1
 286 754 l 1
 308 757 326 762 326 778 c 0
 326 794 306 804 248 808 c 1
 268 892 l 1
 406 888 448 850 448 796 c 0xfc
 448 724 380 692 298 688 c 1
EndSplineSet
Validated: 1
Substitution2: "'c2sc' Capitals to Small Capitals lookup 17 subtable" uni1EDE.sc
Substitution2: "'aalt' Access All Alternates lookup 0 subtable" uni1EDE.sc
EndChar

StartChar: uni1EE0
Encoding: 7904 7904 179
Width: 692
Flags: MW
HStem: -12 148<307 385 307 436> 514 148<307 372.5 256 385> 686 118<376 398 376 432.5> 738 118<254 276>
VStem: 44 176<269 387 269 435> 120 110<696 704> 422 110<838 846> 472 176<269 381.5 221 387> 540 142<678.5 714>
LayerCount: 2
Back
Fore
SplineSet
346 -12 m 0xd9
 166 -12 44 114 44 328 c 0
 44 542 166 662 346 662 c 0
 399 662 447 651 489 631 c 1
 521 643 540 657 540 700 c 0
 540 728 531 753 524 768 c 1
 650 818 l 1
 666 796 682 756 682 712 c 0xd880
 682 638 644 598 563 576 c 1
 617 519 648 435 648 328 c 0
 648 114 526 -12 346 -12 c 0xd9
346 136 m 0
 424 136 472 210 472 328 c 0
 472 446 424 514 346 514 c 0
 268 514 220 446 220 328 c 0
 220 210 268 136 346 136 c 0
396 686 m 0xea
 326 686 290 738 262 738 c 0
 246 738 234 730 230 696 c 1
 120 704 l 1
 126 814 183 856 256 856 c 0xd5
 326 856 362 804 390 804 c 0
 406 804 418 812 422 846 c 1
 532 838 l 1
 526 728 469 686 396 686 c 0xea
EndSplineSet
Validated: 1
Substitution2: "'c2sc' Capitals to Small Capitals lookup 17 subtable" uni1EE0.sc
Substitution2: "'aalt' Access All Alternates lookup 0 subtable" uni1EE0.sc
EndChar

StartChar: uni1EE2
Encoding: 7906 7906 180
Width: 692
Flags: MW
HStem: -234 172<319 373> -12 148<307 385 307 436> 514 148<307 372.5 256 385>
VStem: 44 176<269 387 269 435> 254 184<-173 -123> 472 176<269 381.5 221 387> 540 142<678.5 714>
LayerCount: 2
Back
Fore
SplineSet
346 -12 m 0xfc
 166 -12 44 114 44 328 c 0
 44 542 166 662 346 662 c 0
 399 662 447 651 489 631 c 1
 521 643 540 657 540 700 c 0
 540 728 531 753 524 768 c 1
 650 818 l 1
 666 796 682 756 682 712 c 0xfa
 682 638 644 598 563 576 c 1
 617 519 648 435 648 328 c 0
 648 114 526 -12 346 -12 c 0xfc
346 136 m 0
 424 136 472 210 472 328 c 0
 472 446 424 514 346 514 c 0
 268 514 220 446 220 328 c 0
 220 210 268 136 346 136 c 0
346 -234 m 0
 292 -234 254 -198 254 -148 c 0
 254 -98 292 -62 346 -62 c 0
 400 -62 438 -98 438 -148 c 0
 438 -198 400 -234 346 -234 c 0
EndSplineSet
Validated: 1
Substitution2: "'c2sc' Capitals to Small Capitals lookup 17 subtable" uni1EE2.sc
Substitution2: "'aalt' Access All Alternates lookup 0 subtable" uni1EE2.sc
EndChar

StartChar: uni01EA
Encoding: 490 490 181
Width: 692
GlyphClass: 2
Flags: MW
HStem: -228 110<336 418> -10 21G 514 148<307 385>
VStem: 44 176<269 387 269 435> 248 124<-161 -71> 472 176<269 387>
AnchorPoint: "Anchor-1" 346 672 basechar 0
LayerCount: 2
Back
Fore
SplineSet
370 -228 m 0
 302 -228 248 -192 248 -130 c 0xfc
 248 -76 284 -34 312 -10 c 1
 148 6 44 129 44 328 c 0xf4
 44 542 166 662 346 662 c 0
 526 662 648 541 648 328 c 0
 648 142 568 54 440 -4 c 0
 392 -26 372 -58 372 -84 c 0
 372 -108 392 -118 412 -118 c 0
 424 -118 437 -110 446 -104 c 1
 484 -190 l 1
 456 -212 408 -228 370 -228 c 0
346 136 m 0
 424 136 472 210 472 328 c 0
 472 446 424 514 346 514 c 0
 268 514 220 446 220 328 c 0xf4
 220 210 268 136 346 136 c 0
EndSplineSet
Validated: 1
Substitution2: "'c2sc' Capitals to Small Capitals lookup 17 subtable" uni01EA.sc
Ligature2: "'ccmp' Glyph Composition/Decomposition lookup 11 subtable" O uni0328
Substitution2: "'aalt' Access All Alternates lookup 0 subtable" uni01EA.sc
EndChar

StartChar: Racute
Encoding: 340 340 182
Width: 630
Flags: MW
HStem: 0 21G<72 72 72 244 422 422 422 614> 218 136<244 306 306 310 244 306> 514 136<244 306 244 244>
VStem: 72 172<0 218 354 514> 410 168<412 468>
LayerCount: 2
Back
Fore
SplineSet
72 0 m 1
 72 650 l 1
 318 650 l 2
 458 650 578 602 578 440 c 0
 578 347 536 286 473 252 c 1
 614 0 l 1
 422 0 l 1
 310 218 l 1
 244 218 l 1
 244 0 l 1
 72 0 l 1
244 354 m 1
 306 354 l 2
 374 354 410 384 410 440 c 0
 410 496 374 514 306 514 c 2
 244 514 l 1
 244 354 l 1
308 674 m 1
 232 760 l 1
 414 904 l 1
 504 794 l 1
 308 674 l 1
EndSplineSet
Validated: 1
Substitution2: "'c2sc' Capitals to Small Capitals lookup 17 subtable" Racute.sc
Substitution2: "'aalt' Access All Alternates lookup 0 subtable" Racute.sc
EndChar

StartChar: Rcaron
Encoding: 344 344 183
Width: 630
Flags: MW
HStem: 0 21G<72 72 72 244 422 422 422 614> 218 136<244 306 306 310 244 306> 514 136<244 306 244 244> 700 74<314 318 314 410>
VStem: 72 172<0 218 354 514> 410 168<412 468>
LayerCount: 2
Back
Fore
SplineSet
72 0 m 1
 72 650 l 1
 318 650 l 2
 458 650 578 602 578 440 c 0
 578 347 536 286 473 252 c 1
 614 0 l 1
 422 0 l 1
 310 218 l 1
 244 218 l 1
 244 0 l 1
 72 0 l 1
244 354 m 1
 306 354 l 2
 374 354 410 384 410 440 c 0
 410 496 374 514 306 514 c 2
 244 514 l 1
 244 354 l 1
222 700 m 1
 138 810 l 1
 212 854 l 1
 314 774 l 1
 318 774 l 1
 420 854 l 1
 494 810 l 1
 410 700 l 1
 222 700 l 1
EndSplineSet
Validated: 1
Substitution2: "'c2sc' Capitals to Small Capitals lookup 17 subtable" Rcaron.sc
Substitution2: "'aalt' Access All Alternates lookup 0 subtable" Rcaron.sc
EndChar

StartChar: uni1E58
Encoding: 7768 7768 184
Width: 630
Flags: MW
HStem: 0 21G<72 72 72 244 422 422 422 614> 218 136<244 306 306 310 244 306> 514 136<244 306 244 244> 696 172<288 344>
VStem: 72 172<0 218 354 514> 220 192<757 807> 410 168<412 468>
LayerCount: 2
Back
Fore
SplineSet
72 0 m 1xfa
 72 650 l 1
 318 650 l 2
 458 650 578 602 578 440 c 0
 578 347 536 286 473 252 c 1
 614 0 l 1
 422 0 l 1
 310 218 l 1
 244 218 l 1
 244 0 l 1
 72 0 l 1xfa
244 354 m 1
 306 354 l 2
 374 354 410 384 410 440 c 0
 410 496 374 514 306 514 c 2
 244 514 l 1
 244 354 l 1
316 696 m 0xf4
 260 696 220 732 220 782 c 0
 220 832 260 868 316 868 c 0
 372 868 412 832 412 782 c 0
 412 732 372 696 316 696 c 0xf4
EndSplineSet
Validated: 1
Substitution2: "'c2sc' Capitals to Small Capitals lookup 17 subtable" uni1E58.sc
Substitution2: "'aalt' Access All Alternates lookup 0 subtable" uni1E58.sc
EndChar

StartChar: uni0156
Encoding: 342 342 185
Width: 630
Flags: MW
HStem: -244 66<214 226> -110 60<254 286> 0 21G<72 72 72 244 422 422 422 614> 218 136<244 306 306 310 244 306> 514 136<244 306 244 244>
VStem: 72 172<0 218 354 514> 314 122<-153 -134> 410 168<412 468>
LayerCount: 2
Back
Fore
SplineSet
72 0 m 1xfd
 72 650 l 1
 318 650 l 2
 458 650 578 602 578 440 c 0
 578 347 536 286 473 252 c 1
 614 0 l 1
 422 0 l 1
 310 218 l 1
 244 218 l 1
 244 0 l 1
 72 0 l 1xfd
244 354 m 1
 306 354 l 2
 374 354 410 384 410 440 c 0
 410 496 374 514 306 514 c 2
 244 514 l 1
 244 354 l 1
226 -244 m 1
 214 -178 l 1
 290 -174 314 -164 314 -142 c 0
 314 -126 298 -114 254 -110 c 1
 286 -50 l 1
 400 -58 436 -86 436 -136 c 0xfe
 436 -208 358 -240 226 -244 c 1
EndSplineSet
Validated: 1
Substitution2: "'c2sc' Capitals to Small Capitals lookup 17 subtable" uni0156.sc
Substitution2: "'aalt' Access All Alternates lookup 0 subtable" uni0156.sc
EndChar

StartChar: uni1E5A
Encoding: 7770 7770 186
Width: 630
Flags: MW
HStem: -234 172<307 361> 0 21G<72 72 72 244 422 422 422 614> 218 136<244 306 306 310 244 306> 514 136<244 306 244 244>
VStem: 72 172<0 218 354 514> 242 184<-173 -123> 410 168<412 468>
LayerCount: 2
Back
Fore
SplineSet
72 0 m 1xfa
 72 650 l 1
 318 650 l 2
 458 650 578 602 578 440 c 0
 578 347 536 286 473 252 c 1
 614 0 l 1
 422 0 l 1
 310 218 l 1
 244 218 l 1
 244 0 l 1
 72 0 l 1xfa
244 354 m 1
 306 354 l 2
 374 354 410 384 410 440 c 0
 410 496 374 514 306 514 c 2
 244 514 l 1
 244 354 l 1
334 -234 m 0xf4
 280 -234 242 -198 242 -148 c 0
 242 -98 280 -62 334 -62 c 0
 388 -62 426 -98 426 -148 c 0
 426 -198 388 -234 334 -234 c 0xf4
EndSplineSet
Validated: 1
Substitution2: "'c2sc' Capitals to Small Capitals lookup 17 subtable" uni1E5A.sc
Substitution2: "'aalt' Access All Alternates lookup 0 subtable" uni1E5A.sc
EndChar

StartChar: uni1E5C
Encoding: 7772 7772 187
Width: 630
Flags: MW
HStem: -234 172<307 361> 0 21G<72 72 72 244 422 422 422 614> 218 136<244 306 306 310 244 306> 514 136<244 306 244 244> 716 108<158 474 158 474>
VStem: 72 172<0 218 354 514> 158 316<716 824 716 824> 242 184<-173 -123> 410 168<412 468>
LayerCount: 2
Back
Fore
SplineSet
72 0 m 1xfc80
 72 650 l 1
 318 650 l 2
 458 650 578 602 578 440 c 0
 578 347 536 286 473 252 c 1
 614 0 l 1
 422 0 l 1
 310 218 l 1
 244 218 l 1
 244 0 l 1
 72 0 l 1xfc80
244 354 m 1
 306 354 l 2
 374 354 410 384 410 440 c 0
 410 496 374 514 306 514 c 2
 244 514 l 1
 244 354 l 1
158 716 m 1xfa
 158 824 l 1
 474 824 l 1
 474 716 l 1
 158 716 l 1xfa
334 -234 m 0xf9
 280 -234 242 -198 242 -148 c 0
 242 -98 280 -62 334 -62 c 0
 388 -62 426 -98 426 -148 c 0
 426 -198 388 -234 334 -234 c 0xf9
EndSplineSet
Validated: 1
Substitution2: "'c2sc' Capitals to Small Capitals lookup 17 subtable" uni1E5C.sc
Substitution2: "'aalt' Access All Alternates lookup 0 subtable" uni1E5C.sc
EndChar

StartChar: uni1E5E
Encoding: 7774 7774 188
Width: 630
Flags: MW
HStem: -196 108<180 488 180 488> 0 21G<72 72 72 244 422 422 422 614> 218 136<244 306 306 310 244 306> 514 136<244 306 244 244>
VStem: 72 172<0 218 354 514> 410 168<412 468>
LayerCount: 2
Back
Fore
SplineSet
72 0 m 1
 72 650 l 1
 318 650 l 2
 458 650 578 602 578 440 c 0
 578 347 536 286 473 252 c 1
 614 0 l 1
 422 0 l 1
 310 218 l 1
 244 218 l 1
 244 0 l 1
 72 0 l 1
244 354 m 1
 306 354 l 2
 374 354 410 384 410 440 c 0
 410 496 374 514 306 514 c 2
 244 514 l 1
 244 354 l 1
180 -196 m 1
 180 -88 l 1
 488 -88 l 1
 488 -196 l 1
 180 -196 l 1
EndSplineSet
Validated: 1
Substitution2: "'c2sc' Capitals to Small Capitals lookup 17 subtable" uni1E5E.sc
Substitution2: "'aalt' Access All Alternates lookup 0 subtable" uni1E5E.sc
EndChar

StartChar: Sacute
Encoding: 346 346 189
Width: 564
Flags: MW
HStem: -12 148<258 308 258 359> 514 148<277 322>
VStem: 56 174<454.5 484.5 454.5 515.5> 356 176<167.5 197.5>
LayerCount: 2
Back
Fore
SplineSet
278 -12 m 0
 196 -12 102 18 32 81 c 1
 130 199 l 1
 176 162 234 136 282 136 c 0
 334 136 356 153 356 182 c 0
 356 213 323 223 268 245 c 2
 187 279 l 2
 117 307 56 366 56 460 c 0
 56 571 156 662 298 662 c 0
 372 662 454 634 514 575 c 1
 428 467 l 1
 384 498 346 514 298 514 c 0
 256 514 230 499 230 470 c 0
 230 439 267 428 326 405 c 2
 405 374 l 2
 486 342 532 286 532 196 c 0
 532 86 440 -12 278 -12 c 0
288 674 m 1
 212 760 l 1
 394 904 l 1
 484 794 l 1
 288 674 l 1
EndSplineSet
Validated: 1
Substitution2: "'c2sc' Capitals to Small Capitals lookup 17 subtable" Sacute.sc
Substitution2: "'aalt' Access All Alternates lookup 0 subtable" Sacute.sc
EndChar

StartChar: Scircumflex
Encoding: 348 348 190
Width: 564
Flags: MW
HStem: -12 148<258 308 258 359> 514 148<277 322> 760 74<294 298 294 294>
VStem: 56 174<454.5 484.5 454.5 515.5> 356 176<167.5 197.5>
LayerCount: 2
Back
Fore
SplineSet
278 -12 m 0
 196 -12 102 18 32 81 c 1
 130 199 l 1
 176 162 234 136 282 136 c 0
 334 136 356 153 356 182 c 0
 356 213 323 223 268 245 c 2
 187 279 l 2
 117 307 56 366 56 460 c 0
 56 571 156 662 298 662 c 0
 372 662 454 634 514 575 c 1
 428 467 l 1
 384 498 346 514 298 514 c 0
 256 514 230 499 230 470 c 0
 230 439 267 428 326 405 c 2
 405 374 l 2
 486 342 532 286 532 196 c 0
 532 86 440 -12 278 -12 c 0
118 724 m 1
 202 834 l 1
 390 834 l 1
 474 724 l 1
 400 680 l 1
 298 760 l 1
 294 760 l 1
 192 680 l 1
 118 724 l 1
EndSplineSet
Validated: 1
Substitution2: "'c2sc' Capitals to Small Capitals lookup 17 subtable" Scircumflex.sc
Substitution2: "'aalt' Access All Alternates lookup 0 subtable" Scircumflex.sc
EndChar

StartChar: Scaron
Encoding: 352 352 191
Width: 564
Flags: MW
HStem: -12 148<258 308 258 359> 514 148<277 322> 700 74<294 298 294 390>
VStem: 56 174<454.5 484.5 454.5 515.5> 356 176<167.5 197.5>
LayerCount: 2
Back
Fore
SplineSet
278 -12 m 0
 196 -12 102 18 32 81 c 1
 130 199 l 1
 176 162 234 136 282 136 c 0
 334 136 356 153 356 182 c 0
 356 213 323 223 268 245 c 2
 187 279 l 2
 117 307 56 366 56 460 c 0
 56 571 156 662 298 662 c 0
 372 662 454 634 514 575 c 1
 428 467 l 1
 384 498 346 514 298 514 c 0
 256 514 230 499 230 470 c 0
 230 439 267 428 326 405 c 2
 405 374 l 2
 486 342 532 286 532 196 c 0
 532 86 440 -12 278 -12 c 0
202 700 m 1
 118 810 l 1
 192 854 l 1
 294 774 l 1
 298 774 l 1
 400 854 l 1
 474 810 l 1
 390 700 l 1
 202 700 l 1
EndSplineSet
Validated: 1
Substitution2: "'c2sc' Capitals to Small Capitals lookup 17 subtable" Scaron.sc
Substitution2: "'aalt' Access All Alternates lookup 0 subtable" Scaron.sc
EndChar

StartChar: uni015E
Encoding: 350 350 192
Width: 564
Flags: MW
HStem: -244 66<162 174> -9 21G<230 230 328 328> 514 148<277 322>
VStem: 56 174<454.5 484.5> 262 122<-150 -127> 356 176<167.5 197.5>
LayerCount: 2
Back
Fore
SplineSet
174 -244 m 1xf4
 162 -178 l 1
 238 -174 262 -164 262 -136 c 0
 262 -118 248 -104 186 -96 c 1
 230 -9 l 1xf8
 161 1 89 30 32 81 c 1
 130 199 l 1
 176 162 234 136 282 136 c 0
 334 136 356 153 356 182 c 0
 356 213 323 223 268 245 c 2
 187 279 l 2
 117 307 56 366 56 460 c 0
 56 571 156 662 298 662 c 0
 372 662 454 634 514 575 c 1
 428 467 l 1
 384 498 346 514 298 514 c 0
 256 514 230 499 230 470 c 0
 230 439 267 428 326 405 c 2
 405 374 l 2
 486 342 532 286 532 196 c 0xf4
 532 98 459 10 328 -9 c 1
 306 -60 l 1
 358 -72 384 -94 384 -136 c 0xf8
 384 -208 306 -240 174 -244 c 1xf4
EndSplineSet
Validated: 1
Substitution2: "'c2sc' Capitals to Small Capitals lookup 17 subtable" uni015E.sc
Substitution2: "'aalt' Access All Alternates lookup 0 subtable" uni015E.sc
EndChar

StartChar: uni0218
Encoding: 536 536 193
Width: 564
Flags: MW
HStem: -244 66<162 174> -110 60<202 234> -12 148<258 308 258 359> 514 148<277 322>
VStem: 56 174<454.5 484.5 454.5 515.5> 262 122<-153 -134> 356 176<167.5 197.5>
LayerCount: 2
Back
Fore
SplineSet
278 -12 m 0xfa
 196 -12 102 18 32 81 c 1
 130 199 l 1
 176 162 234 136 282 136 c 0
 334 136 356 153 356 182 c 0
 356 213 323 223 268 245 c 2
 187 279 l 2
 117 307 56 366 56 460 c 0
 56 571 156 662 298 662 c 0
 372 662 454 634 514 575 c 1
 428 467 l 1
 384 498 346 514 298 514 c 0
 256 514 230 499 230 470 c 0
 230 439 267 428 326 405 c 2
 405 374 l 2
 486 342 532 286 532 196 c 0
 532 86 440 -12 278 -12 c 0xfa
174 -244 m 1
 162 -178 l 1
 238 -174 262 -164 262 -142 c 0
 262 -126 246 -114 202 -110 c 1
 234 -50 l 1
 348 -58 384 -86 384 -136 c 0xfc
 384 -208 306 -240 174 -244 c 1
EndSplineSet
Validated: 1
Substitution2: "'c2sc' Capitals to Small Capitals lookup 17 subtable" uni0218.sc
Substitution2: "'aalt' Access All Alternates lookup 0 subtable" uni0218.sc
EndChar

StartChar: uni1E60
Encoding: 7776 7776 194
Width: 564
Flags: MW
HStem: -12 148<258 308 258 359> 514 148<277 322> 696 172<268 324>
VStem: 56 174<454.5 484.5 454.5 515.5> 200 192<757 807> 356 176<167.5 197.5>
LayerCount: 2
Back
Fore
SplineSet
278 -12 m 0xf4
 196 -12 102 18 32 81 c 1
 130 199 l 1
 176 162 234 136 282 136 c 0
 334 136 356 153 356 182 c 0
 356 213 323 223 268 245 c 2
 187 279 l 2
 117 307 56 366 56 460 c 0
 56 571 156 662 298 662 c 0
 372 662 454 634 514 575 c 1
 428 467 l 1
 384 498 346 514 298 514 c 0
 256 514 230 499 230 470 c 0
 230 439 267 428 326 405 c 2
 405 374 l 2
 486 342 532 286 532 196 c 0
 532 86 440 -12 278 -12 c 0xf4
296 696 m 0xe8
 240 696 200 732 200 782 c 0
 200 832 240 868 296 868 c 0
 352 868 392 832 392 782 c 0
 392 732 352 696 296 696 c 0xe8
EndSplineSet
Validated: 1
Substitution2: "'c2sc' Capitals to Small Capitals lookup 17 subtable" uni1E60.sc
Substitution2: "'aalt' Access All Alternates lookup 0 subtable" uni1E60.sc
EndChar

StartChar: uni1E62
Encoding: 7778 7778 195
Width: 564
Flags: MW
HStem: -234 172<255 309> -12 148<258 308 258 359> 514 148<277 322>
VStem: 56 174<454.5 484.5 454.5 515.5> 190 184<-173 -123> 356 176<167.5 197.5>
LayerCount: 2
Back
Fore
SplineSet
278 -12 m 0xf4
 196 -12 102 18 32 81 c 1
 130 199 l 1
 176 162 234 136 282 136 c 0
 334 136 356 153 356 182 c 0
 356 213 323 223 268 245 c 2
 187 279 l 2
 117 307 56 366 56 460 c 0
 56 571 156 662 298 662 c 0
 372 662 454 634 514 575 c 1
 428 467 l 1
 384 498 346 514 298 514 c 0
 256 514 230 499 230 470 c 0
 230 439 267 428 326 405 c 2
 405 374 l 2
 486 342 532 286 532 196 c 0
 532 86 440 -12 278 -12 c 0xf4
282 -234 m 0xe8
 228 -234 190 -198 190 -148 c 0
 190 -98 228 -62 282 -62 c 0
 336 -62 374 -98 374 -148 c 0
 374 -198 336 -234 282 -234 c 0xe8
EndSplineSet
Validated: 1
Substitution2: "'c2sc' Capitals to Small Capitals lookup 17 subtable" uni1E62.sc
Substitution2: "'aalt' Access All Alternates lookup 0 subtable" uni1E62.sc
EndChar

StartChar: uni1E9E
Encoding: 7838 7838 196
Width: 720
Flags: MW
HStem: -12 138<441 468 441 543> 0 21G<76 248 76 76> 0 58<76 286> 524 138<323 386.5>
VStem: 76 172<0 384 0 406 0 477> 506 176<165 198>
LayerCount: 2
Back
Fore
SplineSet
474 -12 m 0x9c
 384 -12 322 24 286 58 c 1x3c
 374 162 l 1
 404 134 430 126 452 126 c 0
 484 126 506 148 506 182 c 0x9c
 506 214 464 244 371 261 c 1
 360 360 l 1
 458 474 l 1
 443 500 411 524 362 524 c 0
 284 524 248 476 248 384 c 2
 248 0 l 1
 76 0 l 1x5c
 76 406 l 2
 76 548 160 662 366 662 c 0
 504 662 598 584 626 468 c 1
 530 358 l 1
 612 326 682 280 682 180 c 0
 682 72 612 -12 474 -12 c 0x9c
EndSplineSet
Validated: 1
Substitution2: "'c2sc' Capitals to Small Capitals lookup 17 subtable" uni1E9E.sc
Substitution2: "'aalt' Access All Alternates lookup 0 subtable" uni1E9E.sc
EndChar

StartChar: Tcaron
Encoding: 356 356 197
Width: 564
Flags: MW
HStem: 0 21G<196 196 196 368> 506 144<24 196 24 540 368 368 368 540> 700 74<280 284 280 376>
VStem: 196 172<0 506 0 506>
LayerCount: 2
Back
Fore
SplineSet
196 0 m 1
 196 506 l 1
 24 506 l 1
 24 650 l 1
 540 650 l 1
 540 506 l 1
 368 506 l 1
 368 0 l 1
 196 0 l 1
188 700 m 1
 104 810 l 1
 178 854 l 1
 280 774 l 1
 284 774 l 1
 386 854 l 1
 460 810 l 1
 376 700 l 1
 188 700 l 1
EndSplineSet
Validated: 1
Substitution2: "'c2sc' Capitals to Small Capitals lookup 17 subtable" Tcaron.sc
Substitution2: "'aalt' Access All Alternates lookup 0 subtable" Tcaron.sc
EndChar

StartChar: uni0162
Encoding: 354 354 198
Width: 564
Flags: MW
HStem: -244 66<166 178> 0 21G<196 196 196 238 336 336 336 368> 506 144<24 196 24 540 368 368 368 540>
VStem: 196 172<0 506 0 506> 266 122<-150 -127>
LayerCount: 2
Back
Fore
SplineSet
196 0 m 1xf0
 196 506 l 1
 24 506 l 1
 24 650 l 1
 540 650 l 1
 540 506 l 1
 368 506 l 1
 368 0 l 1
 336 0 l 1xf0
 310 -60 l 1
 362 -72 388 -94 388 -136 c 0
 388 -208 310 -240 178 -244 c 1
 166 -178 l 1
 242 -174 266 -164 266 -136 c 0
 266 -118 252 -104 190 -96 c 1
 238 0 l 1xe8
 196 0 l 1xf0
EndSplineSet
Validated: 1
Substitution2: "'c2sc' Capitals to Small Capitals lookup 17 subtable" uni0162.sc
Substitution2: "'aalt' Access All Alternates lookup 0 subtable" uni0162.sc
EndChar

StartChar: uni021A
Encoding: 538 538 199
Width: 564
Flags: MW
HStem: -244 66<162 174> -110 60<202 234> 0 21G<196 196 196 368> 506 144<24 196 24 540 368 368 368 540>
VStem: 196 172<0 506 0 506> 262 122<-153 -134>
LayerCount: 2
Back
Fore
SplineSet
196 0 m 1xf8
 196 506 l 1
 24 506 l 1
 24 650 l 1
 540 650 l 1
 540 506 l 1
 368 506 l 1
 368 0 l 1
 196 0 l 1xf8
174 -244 m 1
 162 -178 l 1
 238 -174 262 -164 262 -142 c 0
 262 -126 246 -114 202 -110 c 1
 234 -50 l 1
 348 -58 384 -86 384 -136 c 0xf4
 384 -208 306 -240 174 -244 c 1
EndSplineSet
Validated: 1
Substitution2: "'c2sc' Capitals to Small Capitals lookup 17 subtable" uni021A.sc
Substitution2: "'aalt' Access All Alternates lookup 0 subtable" uni021A.sc
EndChar

StartChar: uni1E6C
Encoding: 7788 7788 200
Width: 564
Flags: MW
HStem: -234 172<255 309> 0 21G<196 196 196 368> 506 144<24 196 24 540 368 368 368 540>
VStem: 190 184<-173 -123> 196 172<0 506 0 506>
LayerCount: 2
Back
Fore
SplineSet
196 0 m 1xe8
 196 506 l 1
 24 506 l 1
 24 650 l 1
 540 650 l 1
 540 506 l 1
 368 506 l 1
 368 0 l 1
 196 0 l 1xe8
282 -234 m 0xf0
 228 -234 190 -198 190 -148 c 0
 190 -98 228 -62 282 -62 c 0
 336 -62 374 -98 374 -148 c 0
 374 -198 336 -234 282 -234 c 0xf0
EndSplineSet
Validated: 1
Substitution2: "'c2sc' Capitals to Small Capitals lookup 17 subtable" uni1E6C.sc
Substitution2: "'aalt' Access All Alternates lookup 0 subtable" uni1E6C.sc
EndChar

StartChar: uni1E6E
Encoding: 7790 7790 201
Width: 564
Flags: MW
HStem: -196 108<128 436 128 436> 0 21G<196 196 196 368> 506 144<24 196 24 540 368 368 368 540>
VStem: 196 172<0 506 0 506>
LayerCount: 2
Back
Fore
SplineSet
196 0 m 1
 196 506 l 1
 24 506 l 1
 24 650 l 1
 540 650 l 1
 540 506 l 1
 368 506 l 1
 368 0 l 1
 196 0 l 1
128 -196 m 1
 128 -88 l 1
 436 -88 l 1
 436 -196 l 1
 128 -196 l 1
EndSplineSet
Validated: 1
Substitution2: "'c2sc' Capitals to Small Capitals lookup 17 subtable" uni1E6E.sc
Substitution2: "'aalt' Access All Alternates lookup 0 subtable" uni1E6E.sc
EndChar

StartChar: uni0166
Encoding: 358 358 202
Width: 564
Flags: MW
HStem: 0 21G<196 196 196 368> 274 80<176 196 176 196 368 484> 506 144<24 196 24 540 368 368 368 540>
VStem: 196 172<0 274 0 274 354 506>
LayerCount: 2
Back
Fore
SplineSet
196 0 m 1
 196 274 l 1
 80 274 l 1
 80 348 l 1
 176 354 l 1
 196 354 l 1
 196 506 l 1
 24 506 l 1
 24 650 l 1
 540 650 l 1
 540 506 l 1
 368 506 l 1
 368 354 l 1
 484 354 l 1
 484 274 l 1
 368 274 l 1
 368 0 l 1
 196 0 l 1
EndSplineSet
Validated: 1
Substitution2: "'c2sc' Capitals to Small Capitals lookup 17 subtable" uni0166.sc
Substitution2: "'aalt' Access All Alternates lookup 0 subtable" uni0166.sc
EndChar

StartChar: Ugrave
Encoding: 217 217 203
Width: 672
Flags: MW
HStem: -12 148<304 372 304 429> 630 20G<68 240 240 240 438 604 604 604>
VStem: 68 172<314 650> 438 166<294 314 314 650>
LayerCount: 2
Back
Fore
SplineSet
338 -12 m 0
 156 -12 68 92 68 314 c 2
 68 650 l 1
 240 650 l 1
 240 294 l 2
 240 178 270 136 338 136 c 0
 406 136 438 178 438 294 c 2
 438 650 l 1
 604 650 l 1
 604 314 l 2
 604 92 520 -12 338 -12 c 0
344 674 m 1
 148 794 l 1
 238 904 l 1
 420 760 l 1
 344 674 l 1
EndSplineSet
Validated: 1
Substitution2: "'c2sc' Capitals to Small Capitals lookup 17 subtable" Ugrave.sc
Substitution2: "'aalt' Access All Alternates lookup 0 subtable" Ugrave.sc
EndChar

StartChar: Uacute
Encoding: 218 218 204
Width: 672
Flags: MW
HStem: -12 148<304 372 304 429> 630 20G<68 240 240 240 438 604 604 604>
VStem: 68 172<314 650> 438 166<294 314 314 650>
LayerCount: 2
Back
Fore
SplineSet
338 -12 m 0
 156 -12 68 92 68 314 c 2
 68 650 l 1
 240 650 l 1
 240 294 l 2
 240 178 270 136 338 136 c 0
 406 136 438 178 438 294 c 2
 438 650 l 1
 604 650 l 1
 604 314 l 2
 604 92 520 -12 338 -12 c 0
328 674 m 1
 252 760 l 1
 434 904 l 1
 524 794 l 1
 328 674 l 1
EndSplineSet
Validated: 1
Substitution2: "'c2sc' Capitals to Small Capitals lookup 17 subtable" Uacute.sc
Substitution2: "'aalt' Access All Alternates lookup 0 subtable" Uacute.sc
EndChar

StartChar: Ucircumflex
Encoding: 219 219 205
Width: 672
Flags: MW
HStem: -12 148<304 372 304 429> 630 20G<68 240 240 240 438 604 604 604> 760 74<334 338 334 334>
VStem: 68 172<314 650> 438 166<294 314 314 650>
LayerCount: 2
Back
Fore
SplineSet
338 -12 m 0
 156 -12 68 92 68 314 c 2
 68 650 l 1
 240 650 l 1
 240 294 l 2
 240 178 270 136 338 136 c 0
 406 136 438 178 438 294 c 2
 438 650 l 1
 604 650 l 1
 604 314 l 2
 604 92 520 -12 338 -12 c 0
158 724 m 1
 242 834 l 1
 430 834 l 1
 514 724 l 1
 440 680 l 1
 338 760 l 1
 334 760 l 1
 232 680 l 1
 158 724 l 1
EndSplineSet
Validated: 1
Substitution2: "'c2sc' Capitals to Small Capitals lookup 17 subtable" Ucircumflex.sc
Substitution2: "'aalt' Access All Alternates lookup 0 subtable" Ucircumflex.sc
EndChar

StartChar: Utilde
Encoding: 360 360 206
Width: 672
Flags: MW
HStem: -12 148<304 372 304 429> 630 20G<68 240 240 240 438 604 604 604> 686 118<386 408 386 442.5> 738 118<264 286>
VStem: 68 172<314 650> 432 110<838 846> 438 166<294 314 314 650>
LayerCount: 2
Back
Fore
SplineSet
338 -12 m 0xda
 156 -12 68 92 68 314 c 2
 68 650 l 1
 240 650 l 1
 240 294 l 2
 240 178 270 136 338 136 c 0
 406 136 438 178 438 294 c 2
 438 650 l 1
 604 650 l 1
 604 314 l 2
 604 92 520 -12 338 -12 c 0xda
406 686 m 0xec
 336 686 300 738 272 738 c 0
 256 738 244 730 240 696 c 1
 130 704 l 1
 136 814 193 856 266 856 c 0xda
 336 856 372 804 400 804 c 0
 416 804 428 812 432 846 c 1
 542 838 l 1
 536 728 479 686 406 686 c 0xec
EndSplineSet
Validated: 1
Substitution2: "'c2sc' Capitals to Small Capitals lookup 17 subtable" Utilde.sc
Substitution2: "'aalt' Access All Alternates lookup 0 subtable" Utilde.sc
EndChar

StartChar: Udieresis
Encoding: 220 220 207
Width: 672
Flags: MW
HStem: -12 148<304 372 304 429> 630 20G<68 240 240 240 438 604 604 604> 694 156<199 245 427 473>
VStem: 68 172<314 650> 144 156<750 794> 372 156<750 794> 438 166<294 314 314 650>
LayerCount: 2
Back
Fore
SplineSet
338 -12 m 0xf2
 156 -12 68 92 68 314 c 2
 68 650 l 1
 240 650 l 1
 240 294 l 2
 240 178 270 136 338 136 c 0
 406 136 438 178 438 294 c 2
 438 650 l 1
 604 650 l 1
 604 314 l 2
 604 92 520 -12 338 -12 c 0xf2
222 694 m 0
 176 694 144 728 144 772 c 0xf2
 144 816 176 850 222 850 c 0
 268 850 300 816 300 772 c 0xea
 300 728 268 694 222 694 c 0
450 694 m 0
 404 694 372 728 372 772 c 0xf4
 372 816 404 850 450 850 c 0
 496 850 528 816 528 772 c 0
 528 728 496 694 450 694 c 0
EndSplineSet
Validated: 1
Substitution2: "'c2sc' Capitals to Small Capitals lookup 17 subtable" Udieresis.sc
Substitution2: "'aalt' Access All Alternates lookup 0 subtable" Udieresis.sc
EndChar

StartChar: Umacron
Encoding: 362 362 208
Width: 672
Flags: MW
HStem: -12 148<304 372 304 429> 630 20G<68 240 240 240 438 604 604 604> 716 108<178 494 178 494>
VStem: 68 172<314 650> 438 166<294 314 314 650>
LayerCount: 2
Back
Fore
SplineSet
338 -12 m 0
 156 -12 68 92 68 314 c 2
 68 650 l 1
 240 650 l 1
 240 294 l 2
 240 178 270 136 338 136 c 0
 406 136 438 178 438 294 c 2
 438 650 l 1
 604 650 l 1
 604 314 l 2
 604 92 520 -12 338 -12 c 0
178 716 m 1
 178 824 l 1
 494 824 l 1
 494 716 l 1
 178 716 l 1
EndSplineSet
Validated: 1
Substitution2: "'c2sc' Capitals to Small Capitals lookup 17 subtable" Umacron.sc
Substitution2: "'aalt' Access All Alternates lookup 0 subtable" Umacron.sc
EndChar

StartChar: Ubreve
Encoding: 364 364 209
Width: 672
Flags: MW
HStem: -12 148<304 372 304 429> 630 20G<68 240 240 240 438 604 604 604> 694 98<316 356 316 387>
VStem: 68 172<314 650> 438 166<294 314 314 650>
LayerCount: 2
Back
Fore
SplineSet
338 -12 m 0
 156 -12 68 92 68 314 c 2
 68 650 l 1
 240 650 l 1
 240 294 l 2
 240 178 270 136 338 136 c 0
 406 136 438 178 438 294 c 2
 438 650 l 1
 604 650 l 1
 604 314 l 2
 604 92 520 -12 338 -12 c 0
336 694 m 0
 234 694 176 738 166 834 c 1
 258 850 l 1
 267 811 296 792 336 792 c 0
 376 792 405 811 414 850 c 1
 506 834 l 1
 496 738 438 694 336 694 c 0
EndSplineSet
Validated: 1
Substitution2: "'c2sc' Capitals to Small Capitals lookup 17 subtable" Ubreve.sc
Substitution2: "'aalt' Access All Alternates lookup 0 subtable" Ubreve.sc
EndChar

StartChar: Uring
Encoding: 366 366 210
Width: 672
Flags: MW
HStem: -12 148<304 372 304 429> 630 20G<68 240 240 240 438 604 604 604> 696 62<325.5 346.5 325.5 372> 838 62<325.5 346.5>
VStem: 68 172<314 650> 216 82<786 810 786 829> 374 82<786 810> 438 166<294 314 314 650>
LayerCount: 2
Back
Fore
SplineSet
338 -12 m 0xf9
 156 -12 68 92 68 314 c 2
 68 650 l 1
 240 650 l 1
 240 294 l 2
 240 178 270 136 338 136 c 0
 406 136 438 178 438 294 c 2
 438 650 l 1
 604 650 l 1
 604 314 l 2
 604 92 520 -12 338 -12 c 0xf9
336 696 m 0xf6
 264 696 216 736 216 798 c 0
 216 860 264 900 336 900 c 0
 408 900 456 860 456 798 c 0
 456 736 408 696 336 696 c 0xf6
336 758 m 0
 357 758 374 774 374 798 c 0
 374 822 357 838 336 838 c 0
 315 838 298 822 298 798 c 0
 298 774 315 758 336 758 c 0
EndSplineSet
Validated: 1
Substitution2: "'c2sc' Capitals to Small Capitals lookup 17 subtable" Uring.sc
Substitution2: "'aalt' Access All Alternates lookup 0 subtable" Uring.sc
EndChar

StartChar: Uhungarumlaut
Encoding: 368 368 211
Width: 672
Flags: MW
HStem: -12 148<304 372 304 429> 630 20G<68 240 240 240 438 604 604 604>
VStem: 68 172<314 650> 438 166<294 314 314 650>
LayerCount: 2
Back
Fore
SplineSet
338 -12 m 0
 156 -12 68 92 68 314 c 2
 68 650 l 1
 240 650 l 1
 240 294 l 2
 240 178 270 136 338 136 c 0
 406 136 438 178 438 294 c 2
 438 650 l 1
 604 650 l 1
 604 314 l 2
 604 92 520 -12 338 -12 c 0
188 730 m 1
 292 894 l 1
 400 834 l 1
 272 690 l 1
 188 730 l 1
386 730 m 1
 490 894 l 1
 598 834 l 1
 470 690 l 1
 386 730 l 1
EndSplineSet
Validated: 1
Substitution2: "'c2sc' Capitals to Small Capitals lookup 17 subtable" Uhungarumlaut.sc
Substitution2: "'aalt' Access All Alternates lookup 0 subtable" Uhungarumlaut.sc
EndChar

StartChar: uni01D3
Encoding: 467 467 212
Width: 672
Flags: MW
HStem: -12 148<304 372 304 429> 630 20G<68 240 240 240 438 604 604 604> 700 74<334 338 334 430>
VStem: 68 172<314 650> 438 166<294 314 314 650>
LayerCount: 2
Back
Fore
SplineSet
338 -12 m 0
 156 -12 68 92 68 314 c 2
 68 650 l 1
 240 650 l 1
 240 294 l 2
 240 178 270 136 338 136 c 0
 406 136 438 178 438 294 c 2
 438 650 l 1
 604 650 l 1
 604 314 l 2
 604 92 520 -12 338 -12 c 0
242 700 m 1
 158 810 l 1
 232 854 l 1
 334 774 l 1
 338 774 l 1
 440 854 l 1
 514 810 l 1
 430 700 l 1
 242 700 l 1
EndSplineSet
Validated: 1
Substitution2: "'c2sc' Capitals to Small Capitals lookup 17 subtable" uni01D3.sc
Substitution2: "'aalt' Access All Alternates lookup 0 subtable" uni01D3.sc
EndChar

StartChar: uni01D5
Encoding: 469 469 213
Width: 672
Flags: MW
HStem: -12 148<304 372 304 429> 630 20G<68 240 240 240 438 604 604 604> 694 136<202 242 430 470> 876 78<178 494 178 494>
VStem: 68 172<314 650> 154 136<743 781> 178 316<876 954 876 954> 382 136<743 781> 438 166<294 314 314 650>
LayerCount: 2
Back
Fore
SplineSet
338 -12 m 0xf880
 156 -12 68 92 68 314 c 2
 68 650 l 1
 240 650 l 1
 240 294 l 2
 240 178 270 136 338 136 c 0
 406 136 438 178 438 294 c 2
 438 650 l 1
 604 650 l 1
 604 314 l 2
 604 92 520 -12 338 -12 c 0xf880
222 694 m 0
 182 694 154 724 154 762 c 0xf880
 154 800 182 830 222 830 c 0
 262 830 290 800 290 762 c 0xf480
 290 724 262 694 222 694 c 0
178 876 m 1xf2
 178 954 l 1
 494 954 l 1
 494 876 l 1
 178 876 l 1xf2
450 694 m 0xf880
 410 694 382 724 382 762 c 0xf9
 382 800 410 830 450 830 c 0
 490 830 518 800 518 762 c 0
 518 724 490 694 450 694 c 0xf880
EndSplineSet
Validated: 1
Substitution2: "'c2sc' Capitals to Small Capitals lookup 17 subtable" uni01D5.sc
Substitution2: "'aalt' Access All Alternates lookup 0 subtable" uni01D5.sc
EndChar

StartChar: uni01D7
Encoding: 471 471 214
Width: 672
Flags: MW
HStem: -12 148<304 372 304 429> 630 20G<68 240 240 240 438 604 604 604> 694 136<202 242 430 470>
VStem: 68 172<314 650> 154 136<743 781> 382 136<743 781> 438 166<294 314 314 650>
LayerCount: 2
Back
Fore
SplineSet
338 -12 m 0xf2
 156 -12 68 92 68 314 c 2
 68 650 l 1
 240 650 l 1
 240 294 l 2
 240 178 270 136 338 136 c 0
 406 136 438 178 438 294 c 2
 438 650 l 1
 604 650 l 1
 604 314 l 2
 604 92 520 -12 338 -12 c 0xf2
222 694 m 0
 182 694 154 724 154 762 c 0xf2
 154 800 182 830 222 830 c 0
 262 830 290 800 290 762 c 0xea
 290 724 262 694 222 694 c 0
274 870 m 1
 370 1024 l 1
 476 960 l 1
 348 826 l 1
 274 870 l 1
450 694 m 0
 410 694 382 724 382 762 c 0xf4
 382 800 410 830 450 830 c 0
 490 830 518 800 518 762 c 0
 518 724 490 694 450 694 c 0
EndSplineSet
Validated: 1
Substitution2: "'c2sc' Capitals to Small Capitals lookup 17 subtable" uni01D7.sc
Substitution2: "'aalt' Access All Alternates lookup 0 subtable" uni01D7.sc
EndChar

StartChar: uni01D9
Encoding: 473 473 215
Width: 672
Flags: MW
HStem: -12 148<304 372 304 429> 630 20G<68 240 240 240 438 604 604 604> 694 136<202 242 430 470> 860 76<262 338 334 338 334 410>
VStem: 68 172<314 650> 154 136<743 781> 382 136<743 781> 438 166<294 314 314 650>
LayerCount: 2
Back
Fore
SplineSet
338 -12 m 0xe9
 156 -12 68 92 68 314 c 2
 68 650 l 1
 240 650 l 1
 240 294 l 2
 240 178 270 136 338 136 c 0
 406 136 438 178 438 294 c 2
 438 650 l 1
 604 650 l 1
 604 314 l 2
 604 92 520 -12 338 -12 c 0xe9
262 860 m 1xf9
 174 964 l 1
 242 1008 l 1
 334 936 l 1
 338 936 l 1
 430 1008 l 1
 498 964 l 1
 410 860 l 1
 262 860 l 1xf9
222 694 m 0xe9
 182 694 154 724 154 762 c 0xe9
 154 800 182 830 222 830 c 0
 262 830 290 800 290 762 c 0xe5
 290 724 262 694 222 694 c 0xe9
450 694 m 0
 410 694 382 724 382 762 c 0xea
 382 800 410 830 450 830 c 0
 490 830 518 800 518 762 c 0
 518 724 490 694 450 694 c 0
EndSplineSet
Validated: 1
Substitution2: "'c2sc' Capitals to Small Capitals lookup 17 subtable" uni01D9.sc
Substitution2: "'aalt' Access All Alternates lookup 0 subtable" uni01D9.sc
EndChar

StartChar: uni01DB
Encoding: 475 475 216
Width: 672
Flags: MW
HStem: -12 148<304 372 304 429> 630 20G<68 240 240 240 438 604 604 604> 694 136<202 242 430 470>
VStem: 68 172<314 650> 154 136<743 781> 382 136<743 781> 438 166<294 314 314 650>
LayerCount: 2
Back
Fore
SplineSet
338 -12 m 0xf2
 156 -12 68 92 68 314 c 2
 68 650 l 1
 240 650 l 1
 240 294 l 2
 240 178 270 136 338 136 c 0
 406 136 438 178 438 294 c 2
 438 650 l 1
 604 650 l 1
 604 314 l 2
 604 92 520 -12 338 -12 c 0xf2
398 870 m 1
 324 826 l 1
 196 960 l 1
 302 1024 l 1
 398 870 l 1
222 694 m 0
 182 694 154 724 154 762 c 0xf2
 154 800 182 830 222 830 c 0
 262 830 290 800 290 762 c 0xea
 290 724 262 694 222 694 c 0
450 694 m 0
 410 694 382 724 382 762 c 0xf4
 382 800 410 830 450 830 c 0
 490 830 518 800 518 762 c 0
 518 724 490 694 450 694 c 0
EndSplineSet
Validated: 1
Substitution2: "'c2sc' Capitals to Small Capitals lookup 17 subtable" uni01DB.sc
Substitution2: "'aalt' Access All Alternates lookup 0 subtable" uni01DB.sc
EndChar

StartChar: uni1EE4
Encoding: 7908 7908 217
Width: 672
Flags: MW
HStem: -234 172<309 363> -12 148<304 372 304 429> 630 20G<68 240 240 240 438 604 604 604>
VStem: 68 172<314 650> 244 184<-173 -123> 438 166<294 314 314 650>
LayerCount: 2
Back
Fore
SplineSet
338 -12 m 0
 156 -12 68 92 68 314 c 2
 68 650 l 1
 240 650 l 1
 240 294 l 2
 240 178 270 136 338 136 c 0
 406 136 438 178 438 294 c 2
 438 650 l 1
 604 650 l 1
 604 314 l 2
 604 92 520 -12 338 -12 c 0
336 -234 m 0xec
 282 -234 244 -198 244 -148 c 0
 244 -98 282 -62 336 -62 c 0
 390 -62 428 -98 428 -148 c 0
 428 -198 390 -234 336 -234 c 0xec
EndSplineSet
Validated: 1
Substitution2: "'c2sc' Capitals to Small Capitals lookup 17 subtable" uni1EE4.sc
Substitution2: "'aalt' Access All Alternates lookup 0 subtable" uni1EE4.sc
EndChar

StartChar: uni1EE6
Encoding: 7910 7910 218
Width: 672
Flags: MW
HStem: -12 148<304 372 304 429> 808 84<238 258>
VStem: 68 172<314 650> 316 122<770 786> 438 166<294 314 314 650>
LayerCount: 2
Back
Fore
SplineSet
338 -12 m 0xe8
 156 -12 68 92 68 314 c 2
 68 650 l 1
 240 650 l 1
 240 294 l 2
 240 178 270 136 338 136 c 0
 406 136 438 178 438 294 c 2
 438 650 l 1
 604 650 l 1
 604 314 l 2
 604 92 520 -12 338 -12 c 0xe8
288 688 m 1
 276 754 l 1
 298 757 316 762 316 778 c 0
 316 794 296 804 238 808 c 1
 258 892 l 1
 396 888 438 850 438 796 c 0xf0
 438 724 370 692 288 688 c 1
EndSplineSet
Validated: 1
Substitution2: "'c2sc' Capitals to Small Capitals lookup 17 subtable" uni1EE6.sc
Substitution2: "'aalt' Access All Alternates lookup 0 subtable" uni1EE6.sc
EndChar

StartChar: Uogonek
Encoding: 370 370 219
Width: 672
GlyphClass: 2
Flags: MW
HStem: -228 110<326 408> -10 146 630 20G<68 240 240 240 438 604 604 604>
VStem: 68 172<314 650> 238 124<-161 -71> 438 166<294 314 314 650>
AnchorPoint: "Anchor-1" 336 672 basechar 0
LayerCount: 2
Back
Fore
SplineSet
360 -228 m 0xec
 292 -228 238 -192 238 -130 c 0xec
 238 -66 288 -22 302 -10 c 1
 144 2 68 108 68 314 c 2
 68 650 l 1
 240 650 l 1
 240 294 l 2xf4
 240 178 270 136 338 136 c 0
 406 136 438 178 438 294 c 2
 438 650 l 1
 604 650 l 1
 604 314 l 2
 604 126 557 53 430 -4 c 0
 381 -26 362 -58 362 -84 c 0
 362 -108 382 -118 402 -118 c 0
 414 -118 427 -110 436 -104 c 1
 474 -190 l 1
 446 -212 398 -228 360 -228 c 0xec
EndSplineSet
Validated: 1
Substitution2: "'c2sc' Capitals to Small Capitals lookup 17 subtable" Uogonek.sc
Ligature2: "'ccmp' Glyph Composition/Decomposition lookup 11 subtable" U uni0328
Substitution2: "'aalt' Access All Alternates lookup 0 subtable" Uogonek.sc
EndChar

StartChar: Uhorn
Encoding: 431 431 220
Width: 692
GlyphClass: 2
Flags: MW
HStem: -12 148<304 372 304 429> 630 20G<68 240 240 240 438 522 522 539>
VStem: 68 172<314 650> 438 166<294 314 314 589> 602 142<690 734>
AnchorPoint: "Anchor-4" 336 -22 basechar 0
AnchorPoint: "Anchor-1" 336 672 basechar 0
LayerCount: 2
Back
Fore
SplineSet
338 -12 m 0xf0
 156 -12 68 92 68 314 c 2
 68 650 l 1
 240 650 l 1
 240 294 l 2
 240 178 270 136 338 136 c 0
 406 136 438 178 438 294 c 2
 438 650 l 1xf0
 522 650 l 2
 556 650 602 657 602 720 c 0
 602 748 593 773 586 788 c 1
 712 838 l 1
 728 816 744 776 744 732 c 0xe8
 744 648 694 605 604 589 c 1
 604 314 l 2
 604 92 520 -12 338 -12 c 0xf0
EndSplineSet
Validated: 1
Substitution2: "'c2sc' Capitals to Small Capitals lookup 17 subtable" Uhorn.sc
Substitution2: "'aalt' Access All Alternates lookup 0 subtable" Uhorn.sc
EndChar

StartChar: uni1EE8
Encoding: 7912 7912 221
Width: 692
Flags: MW
HStem: -12 148<304 372 304 429> 630 20G<68 240 240 240 438 522 522 539>
VStem: 68 172<314 650> 438 166<294 314 314 589> 602 142<690 734>
LayerCount: 2
Back
Fore
SplineSet
338 -12 m 0xf0
 156 -12 68 92 68 314 c 2
 68 650 l 1
 240 650 l 1
 240 294 l 2
 240 178 270 136 338 136 c 0
 406 136 438 178 438 294 c 2
 438 650 l 1xf0
 522 650 l 2
 556 650 602 657 602 720 c 0
 602 748 593 773 586 788 c 1
 712 838 l 1
 728 816 744 776 744 732 c 0xe8
 744 648 694 605 604 589 c 1
 604 314 l 2
 604 92 520 -12 338 -12 c 0xf0
328 674 m 1
 252 760 l 1
 434 904 l 1
 524 794 l 1
 328 674 l 1
EndSplineSet
Validated: 1
Substitution2: "'c2sc' Capitals to Small Capitals lookup 17 subtable" uni1EE8.sc
Substitution2: "'aalt' Access All Alternates lookup 0 subtable" uni1EE8.sc
EndChar

StartChar: uni1EEA
Encoding: 7914 7914 222
Width: 692
Flags: MW
HStem: -12 148<304 372 304 429> 630 20G<68 240 240 240 438 522 522 539>
VStem: 68 172<314 650> 438 166<294 314 314 589> 602 142<690 734>
LayerCount: 2
Back
Fore
SplineSet
338 -12 m 0xf0
 156 -12 68 92 68 314 c 2
 68 650 l 1
 240 650 l 1
 240 294 l 2
 240 178 270 136 338 136 c 0
 406 136 438 178 438 294 c 2
 438 650 l 1xf0
 522 650 l 2
 556 650 602 657 602 720 c 0
 602 748 593 773 586 788 c 1
 712 838 l 1
 728 816 744 776 744 732 c 0xe8
 744 648 694 605 604 589 c 1
 604 314 l 2
 604 92 520 -12 338 -12 c 0xf0
344 674 m 1
 148 794 l 1
 238 904 l 1
 420 760 l 1
 344 674 l 1
EndSplineSet
Validated: 1
Substitution2: "'c2sc' Capitals to Small Capitals lookup 17 subtable" uni1EEA.sc
Substitution2: "'aalt' Access All Alternates lookup 0 subtable" uni1EEA.sc
EndChar

StartChar: uni1EEC
Encoding: 7916 7916 223
Width: 692
Flags: MW
HStem: -12 148<304 372 304 429> 808 84<238 258>
VStem: 68 172<314 650> 316 122<770 786> 438 166<294 314 314 589> 602 142<690 734>
LayerCount: 2
Back
Fore
SplineSet
338 -12 m 0xe8
 156 -12 68 92 68 314 c 2
 68 650 l 1
 240 650 l 1
 240 294 l 2
 240 178 270 136 338 136 c 0
 406 136 438 178 438 294 c 2
 438 650 l 1xe8
 522 650 l 2
 556 650 602 657 602 720 c 0
 602 748 593 773 586 788 c 1
 712 838 l 1
 728 816 744 776 744 732 c 0xe4
 744 648 694 605 604 589 c 1
 604 314 l 2
 604 92 520 -12 338 -12 c 0xe8
288 688 m 1
 276 754 l 1
 298 757 316 762 316 778 c 0
 316 794 296 804 238 808 c 1
 258 892 l 1
 396 888 438 850 438 796 c 0xf0
 438 724 370 692 288 688 c 1
EndSplineSet
Validated: 1
Substitution2: "'c2sc' Capitals to Small Capitals lookup 17 subtable" uni1EEC.sc
Substitution2: "'aalt' Access All Alternates lookup 0 subtable" uni1EEC.sc
EndChar

StartChar: uni1EEE
Encoding: 7918 7918 224
Width: 692
Flags: MW
HStem: -12 148<304 372 304 429> 630 20G<68 240 240 240 438 522 522 539> 686 118<386 408 386 442.5> 738 118<264 286>
VStem: 68 172<314 650> 432 110<838 846> 438 166<294 314 314 589> 602 142<690 734>
LayerCount: 2
Back
Fore
SplineSet
338 -12 m 0xda
 156 -12 68 92 68 314 c 2
 68 650 l 1
 240 650 l 1
 240 294 l 2
 240 178 270 136 338 136 c 0
 406 136 438 178 438 294 c 2
 438 650 l 1xda
 522 650 l 2
 556 650 602 657 602 720 c 0
 602 748 593 773 586 788 c 1
 712 838 l 1
 728 816 744 776 744 732 c 0xd9
 744 648 694 605 604 589 c 1
 604 314 l 2
 604 92 520 -12 338 -12 c 0xda
406 686 m 0xec
 336 686 300 738 272 738 c 0
 256 738 244 730 240 696 c 1
 130 704 l 1
 136 814 193 856 266 856 c 0xda
 336 856 372 804 400 804 c 0
 416 804 428 812 432 846 c 1
 542 838 l 1
 536 728 479 686 406 686 c 0xec
EndSplineSet
Validated: 1
Substitution2: "'c2sc' Capitals to Small Capitals lookup 17 subtable" uni1EEE.sc
Substitution2: "'aalt' Access All Alternates lookup 0 subtable" uni1EEE.sc
EndChar

StartChar: uni1EF0
Encoding: 7920 7920 225
Width: 692
Flags: MW
HStem: -234 172<309 363> -12 148<304 372 304 429> 630 20G<68 240 240 240 438 522 522 539>
VStem: 68 172<314 650> 244 184<-173 -123> 438 166<294 314 314 589> 602 142<690 734>
LayerCount: 2
Back
Fore
SplineSet
338 -12 m 0xf4
 156 -12 68 92 68 314 c 2
 68 650 l 1
 240 650 l 1
 240 294 l 2
 240 178 270 136 338 136 c 0
 406 136 438 178 438 294 c 2
 438 650 l 1xf4
 522 650 l 2
 556 650 602 657 602 720 c 0
 602 748 593 773 586 788 c 1
 712 838 l 1
 728 816 744 776 744 732 c 0xf2
 744 648 694 605 604 589 c 1
 604 314 l 2
 604 92 520 -12 338 -12 c 0xf4
336 -234 m 0xec
 282 -234 244 -198 244 -148 c 0
 244 -98 282 -62 336 -62 c 0
 390 -62 428 -98 428 -148 c 0
 428 -198 390 -234 336 -234 c 0xec
EndSplineSet
Validated: 1
Substitution2: "'c2sc' Capitals to Small Capitals lookup 17 subtable" uni1EF0.sc
Substitution2: "'aalt' Access All Alternates lookup 0 subtable" uni1EF0.sc
EndChar

StartChar: Wgrave
Encoding: 7808 7808 226
Width: 824
Flags: MW
HStem: 0 162<124 248 244 248 244 338 588 592> 630 20G<10 186 186 186 346 490 490 490 650 814 814 814>
VStem: 10 804<650 650>
LayerCount: 2
Back
Fore
SplineSet
124 0 m 1
 10 650 l 1
 186 650 l 1
 222 366 l 2
 229 298 237 230 244 162 c 1
 248 162 l 1
 260 230 272 299 284 366 c 2
 346 650 l 1
 490 650 l 1
 552 366 l 2
 564 301 576 231 588 162 c 1
 592 162 l 1
 599 231 607 300 614 366 c 2
 650 650 l 1
 814 650 l 1
 706 0 l 1
 488 0 l 1
 438 258 l 2
 428 308 420 362 414 410 c 1
 410 410 l 1
 403 362 396 308 386 258 c 2
 338 0 l 1
 124 0 l 1
420 674 m 1
 224 794 l 1
 314 904 l 1
 496 760 l 1
 420 674 l 1
EndSplineSet
Validated: 1
Substitution2: "'c2sc' Capitals to Small Capitals lookup 17 subtable" Wgrave.sc
Substitution2: "'aalt' Access All Alternates lookup 0 subtable" Wgrave.sc
EndChar

StartChar: Wacute
Encoding: 7810 7810 227
Width: 824
Flags: MW
HStem: 0 162<124 248 244 248 244 338 588 592> 630 20G<10 186 186 186 346 490 490 490 650 814 814 814>
VStem: 10 804<650 650>
LayerCount: 2
Back
Fore
SplineSet
124 0 m 1
 10 650 l 1
 186 650 l 1
 222 366 l 2
 229 298 237 230 244 162 c 1
 248 162 l 1
 260 230 272 299 284 366 c 2
 346 650 l 1
 490 650 l 1
 552 366 l 2
 564 301 576 231 588 162 c 1
 592 162 l 1
 599 231 607 300 614 366 c 2
 650 650 l 1
 814 650 l 1
 706 0 l 1
 488 0 l 1
 438 258 l 2
 428 308 420 362 414 410 c 1
 410 410 l 1
 403 362 396 308 386 258 c 2
 338 0 l 1
 124 0 l 1
404 674 m 1
 328 760 l 1
 510 904 l 1
 600 794 l 1
 404 674 l 1
EndSplineSet
Validated: 1
Substitution2: "'c2sc' Capitals to Small Capitals lookup 17 subtable" Wacute.sc
Substitution2: "'aalt' Access All Alternates lookup 0 subtable" Wacute.sc
EndChar

StartChar: Wcircumflex
Encoding: 372 372 228
Width: 824
Flags: MW
HStem: 0 162<124 248 244 248 244 338 588 592> 630 20G<10 186 186 186 346 490 490 490 650 814 814 814> 760 74<410 414 410 410>
VStem: 10 804<650 650>
LayerCount: 2
Back
Fore
SplineSet
124 0 m 1
 10 650 l 1
 186 650 l 1
 222 366 l 2
 229 298 237 230 244 162 c 1
 248 162 l 1
 260 230 272 299 284 366 c 2
 346 650 l 1
 490 650 l 1
 552 366 l 2
 564 301 576 231 588 162 c 1
 592 162 l 1
 599 231 607 300 614 366 c 2
 650 650 l 1
 814 650 l 1
 706 0 l 1
 488 0 l 1
 438 258 l 2
 428 308 420 362 414 410 c 1
 410 410 l 1
 403 362 396 308 386 258 c 2
 338 0 l 1
 124 0 l 1
234 724 m 1
 318 834 l 1
 506 834 l 1
 590 724 l 1
 516 680 l 1
 414 760 l 1
 410 760 l 1
 308 680 l 1
 234 724 l 1
EndSplineSet
Validated: 1
Substitution2: "'c2sc' Capitals to Small Capitals lookup 17 subtable" Wcircumflex.sc
Substitution2: "'aalt' Access All Alternates lookup 0 subtable" Wcircumflex.sc
EndChar

StartChar: Wdieresis
Encoding: 7812 7812 229
Width: 824
Flags: MW
HStem: 0 162<124 248 244 248 244 338 588 592> 630 20G<10 186 186 186 346 490 490 490 650 814 814 814> 694 156<275 321 503 549>
VStem: 220 156<750 794> 448 156<750 794>
LayerCount: 2
Back
Fore
SplineSet
124 0 m 1
 10 650 l 1
 186 650 l 1
 222 366 l 2
 229 298 237 230 244 162 c 1
 248 162 l 1
 260 230 272 299 284 366 c 2
 346 650 l 1
 490 650 l 1
 552 366 l 2
 564 301 576 231 588 162 c 1
 592 162 l 1
 599 231 607 300 614 366 c 2
 650 650 l 1
 814 650 l 1
 706 0 l 1
 488 0 l 1
 438 258 l 2
 428 308 420 362 414 410 c 1
 410 410 l 1
 403 362 396 308 386 258 c 2
 338 0 l 1
 124 0 l 1
298 694 m 0
 252 694 220 728 220 772 c 0
 220 816 252 850 298 850 c 0
 344 850 376 816 376 772 c 0
 376 728 344 694 298 694 c 0
526 694 m 0
 480 694 448 728 448 772 c 0
 448 816 480 850 526 850 c 0
 572 850 604 816 604 772 c 0
 604 728 572 694 526 694 c 0
EndSplineSet
Validated: 1
Substitution2: "'c2sc' Capitals to Small Capitals lookup 17 subtable" Wdieresis.sc
Substitution2: "'aalt' Access All Alternates lookup 0 subtable" Wdieresis.sc
EndChar

StartChar: Ygrave
Encoding: 7922 7922 230
Width: 544
Flags: MW
HStem: 0 21G<186 186 186 358> 630 20G<-10 174 174 174 374 554 554 554>
VStem: 186 172<0 224 0 224>
LayerCount: 2
Back
Fore
SplineSet
186 0 m 1
 186 224 l 1
 -10 650 l 1
 174 650 l 1
 222 514 l 2
 238 465 254 420 271 369 c 1
 275 369 l 1
 292 420 309 465 326 514 c 2
 374 650 l 1
 554 650 l 1
 358 224 l 1
 358 0 l 1
 186 0 l 1
280 674 m 1
 84 794 l 1
 174 904 l 1
 356 760 l 1
 280 674 l 1
EndSplineSet
Validated: 1
Substitution2: "'c2sc' Capitals to Small Capitals lookup 17 subtable" Ygrave.sc
Substitution2: "'aalt' Access All Alternates lookup 0 subtable" Ygrave.sc
EndChar

StartChar: Yacute
Encoding: 221 221 231
Width: 544
Flags: MW
HStem: 0 21G<186 186 186 358> 630 20G<-10 174 174 174 374 554 554 554>
VStem: 186 172<0 224 0 224>
LayerCount: 2
Back
Fore
SplineSet
186 0 m 1
 186 224 l 1
 -10 650 l 1
 174 650 l 1
 222 514 l 2
 238 465 254 420 271 369 c 1
 275 369 l 1
 292 420 309 465 326 514 c 2
 374 650 l 1
 554 650 l 1
 358 224 l 1
 358 0 l 1
 186 0 l 1
264 674 m 1
 188 760 l 1
 370 904 l 1
 460 794 l 1
 264 674 l 1
EndSplineSet
Validated: 1
Substitution2: "'c2sc' Capitals to Small Capitals lookup 17 subtable" Yacute.sc
Substitution2: "'aalt' Access All Alternates lookup 0 subtable" Yacute.sc
EndChar

StartChar: Ycircumflex
Encoding: 374 374 232
Width: 544
Flags: MW
HStem: 0 21G<186 186 186 358> 630 20G<-10 174 174 174 374 554 554 554> 760 74<270 274 270 270>
VStem: 186 172<0 224 0 224>
LayerCount: 2
Back
Fore
SplineSet
186 0 m 1
 186 224 l 1
 -10 650 l 1
 174 650 l 1
 222 514 l 2
 238 465 254 420 271 369 c 1
 275 369 l 1
 292 420 309 465 326 514 c 2
 374 650 l 1
 554 650 l 1
 358 224 l 1
 358 0 l 1
 186 0 l 1
94 724 m 1
 178 834 l 1
 366 834 l 1
 450 724 l 1
 376 680 l 1
 274 760 l 1
 270 760 l 1
 168 680 l 1
 94 724 l 1
EndSplineSet
Validated: 1
Substitution2: "'c2sc' Capitals to Small Capitals lookup 17 subtable" Ycircumflex.sc
Substitution2: "'aalt' Access All Alternates lookup 0 subtable" Ycircumflex.sc
EndChar

StartChar: Ydieresis
Encoding: 376 376 233
Width: 544
Flags: MW
HStem: 0 21G<186 186 186 358> 630 20G<-10 174 174 174 374 554 554 554> 694 156<135 181 363 409>
VStem: 80 156<750 794> 186 172<0 224 0 224> 308 156<750 794>
LayerCount: 2
Back
Fore
SplineSet
186 0 m 1xe8
 186 224 l 1
 -10 650 l 1
 174 650 l 1
 222 514 l 2
 238 465 254 420 271 369 c 1
 275 369 l 1
 292 420 309 465 326 514 c 2
 374 650 l 1
 554 650 l 1
 358 224 l 1
 358 0 l 1
 186 0 l 1xe8
158 694 m 0xf4
 112 694 80 728 80 772 c 0
 80 816 112 850 158 850 c 0
 204 850 236 816 236 772 c 0
 236 728 204 694 158 694 c 0xf4
386 694 m 0
 340 694 308 728 308 772 c 0
 308 816 340 850 386 850 c 0
 432 850 464 816 464 772 c 0
 464 728 432 694 386 694 c 0
EndSplineSet
Validated: 1
Substitution2: "'c2sc' Capitals to Small Capitals lookup 17 subtable" Ydieresis.sc
Substitution2: "'aalt' Access All Alternates lookup 0 subtable" Ydieresis.sc
EndChar

StartChar: uni1E8E
Encoding: 7822 7822 234
Width: 544
Flags: MW
HStem: 0 21G<186 186 186 358> 630 20G<-10 174 174 174 374 554 554 554> 696 172<244 300>
VStem: 176 192<757 807> 186 172<0 224 0 224>
LayerCount: 2
Back
Fore
SplineSet
186 0 m 1xe8
 186 224 l 1
 -10 650 l 1
 174 650 l 1
 222 514 l 2
 238 465 254 420 271 369 c 1
 275 369 l 1
 292 420 309 465 326 514 c 2
 374 650 l 1
 554 650 l 1
 358 224 l 1
 358 0 l 1
 186 0 l 1xe8
272 696 m 0xf0
 216 696 176 732 176 782 c 0
 176 832 216 868 272 868 c 0
 328 868 368 832 368 782 c 0
 368 732 328 696 272 696 c 0xf0
EndSplineSet
Validated: 1
Substitution2: "'c2sc' Capitals to Small Capitals lookup 17 subtable" uni1E8E.sc
Substitution2: "'aalt' Access All Alternates lookup 0 subtable" uni1E8E.sc
EndChar

StartChar: uni1EF4
Encoding: 7924 7924 235
Width: 544
Flags: MW
HStem: -234 172<247 301> 0 21G<186 186 186 358> 630 20G<-10 174 174 174 374 554 554 554>
VStem: 182 184<-173 -123> 186 172<0 224 0 224>
LayerCount: 2
Back
Fore
SplineSet
186 0 m 1xe8
 186 224 l 1
 -10 650 l 1
 174 650 l 1
 222 514 l 2
 238 465 254 420 271 369 c 1
 275 369 l 1
 292 420 309 465 326 514 c 2
 374 650 l 1
 554 650 l 1
 358 224 l 1
 358 0 l 1
 186 0 l 1xe8
274 -234 m 0xf0
 220 -234 182 -198 182 -148 c 0
 182 -98 220 -62 274 -62 c 0
 328 -62 366 -98 366 -148 c 0
 366 -198 328 -234 274 -234 c 0xf0
EndSplineSet
Validated: 1
Substitution2: "'c2sc' Capitals to Small Capitals lookup 17 subtable" uni1EF4.sc
Substitution2: "'aalt' Access All Alternates lookup 0 subtable" uni1EF4.sc
EndChar

StartChar: uni1EF6
Encoding: 7926 7926 236
Width: 544
Flags: MW
HStem: 808 84<174 194>
VStem: 186 172<0 224 0 224> 252 122<770 786>
LayerCount: 2
Back
Fore
SplineSet
186 0 m 1xc0
 186 224 l 1
 -10 650 l 1
 174 650 l 1
 222 514 l 2
 238 465 254 420 271 369 c 1
 275 369 l 1
 292 420 309 465 326 514 c 2
 374 650 l 1
 554 650 l 1
 358 224 l 1
 358 0 l 1
 186 0 l 1xc0
224 688 m 1
 212 754 l 1
 234 757 252 762 252 778 c 0
 252 794 232 804 174 808 c 1
 194 892 l 1
 332 888 374 850 374 796 c 0xa0
 374 724 306 692 224 688 c 1
EndSplineSet
Validated: 1
Substitution2: "'c2sc' Capitals to Small Capitals lookup 17 subtable" uni1EF6.sc
Substitution2: "'aalt' Access All Alternates lookup 0 subtable" uni1EF6.sc
EndChar

StartChar: uni1EF8
Encoding: 7928 7928 237
Width: 544
Flags: MW
HStem: 0 21G<186 186 186 358> 630 20G<-10 174 174 174 374 554 554 554> 686 118<322 344 322 378.5> 738 118<200 222>
VStem: 66 110<696 704> 186 172<0 224 0 224> 368 110<838 846>
LayerCount: 2
Back
Fore
SplineSet
186 0 m 1xd4
 186 224 l 1
 -10 650 l 1
 174 650 l 1
 222 514 l 2
 238 465 254 420 271 369 c 1
 275 369 l 1
 292 420 309 465 326 514 c 2
 374 650 l 1
 554 650 l 1
 358 224 l 1
 358 0 l 1
 186 0 l 1xd4
342 686 m 0xe6
 272 686 236 738 208 738 c 0
 192 738 180 730 176 696 c 1
 66 704 l 1
 72 814 129 856 202 856 c 0xdc
 272 856 308 804 336 804 c 0
 352 804 364 812 368 846 c 1
 478 838 l 1
 472 728 415 686 342 686 c 0xe6
EndSplineSet
Validated: 1
Substitution2: "'c2sc' Capitals to Small Capitals lookup 17 subtable" uni1EF8.sc
Substitution2: "'aalt' Access All Alternates lookup 0 subtable" uni1EF8.sc
EndChar

StartChar: Zacute
Encoding: 377 377 238
Width: 542
Flags: MW
HStem: 0 144<244 512 244 512> 506 144<58 298 58 510>
VStem: 32 480<0 104 104 104>
LayerCount: 2
Back
Fore
SplineSet
32 0 m 1
 32 104 l 1
 298 506 l 1
 58 506 l 1
 58 650 l 1
 510 650 l 1
 510 546 l 1
 244 144 l 1
 512 144 l 1
 512 0 l 1
 32 0 l 1
276 674 m 1
 200 760 l 1
 382 904 l 1
 472 794 l 1
 276 674 l 1
EndSplineSet
Validated: 1
Substitution2: "'c2sc' Capitals to Small Capitals lookup 17 subtable" Zacute.sc
Substitution2: "'aalt' Access All Alternates lookup 0 subtable" Zacute.sc
EndChar

